<?xml version="1.0" encoding="UTF-8"?>
<svg width="217px" height="703px" viewBox="0 0 217 703" version="1.1" xmlns="http://www.w3.org/2000/svg" xmlns:xlink="http://www.w3.org/1999/xlink">
    <!-- Generator: Sketch 61 (89581) - https://sketch.com -->
    <title>blue_graphic_right</title>
    <desc>Created with Sketch.</desc>
    <g id="Page-1" stroke="none" stroke-width="1" fill="none" fill-rule="evenodd" opacity="0.45">
        <g id="JCTF_LP_1280px_HOME" transform="translate(-1063.000000, -1028.000000)" fill="#3AADD4" fill-rule="nonzero">
            <g id="blue_graphic_right" transform="translate(1057.000000, 1023.000000)">
                <path d="M137.173547,92.7153538 C135.941449,91.0725569 136.352148,88.813711 137.994945,87.5816133 C139.637742,86.3495156 141.896588,86.7602148 143.128686,88.4030118 C144.360783,90.0458088 143.950084,92.3046546 142.307287,93.5367523 C140.459141,94.76885 138.200295,94.3581508 137.173547,92.7153538 Z" id="Path"></path>
                <path d="M81.5237995,68.2787489 C80.2917018,66.635952 80.702401,64.1717565 82.345198,62.9396588 C83.9879949,61.7075611 86.4521904,62.1182603 87.6842881,63.7610573 C88.9163858,65.4038543 88.5056866,67.8680497 86.8628896,69.1001474 C85.014743,70.3322452 82.7558972,70.1268955 81.5237995,68.2787489 Z" id="Path"></path>
                <path d="M7.18723673,62.3236099 C5.95513901,60.680813 6.36583825,58.2166175 8.00863521,56.9845198 C9.65143218,55.7524221 12.1156276,56.1631213 13.3477254,57.8059183 C14.5798231,59.4487152 14.1691238,61.9129107 12.5263269,63.1450084 C10.8835299,64.3771061 8.41933446,63.9664069 7.18723673,62.3236099 Z" id="Path"></path>
                <path d="M26.4901011,55.1363732 C25.2580034,53.4935762 25.6687026,51.0293808 27.3114996,49.7972831 C28.9542965,48.5651853 31.418492,48.9758846 32.6505897,50.6186816 C33.8826874,52.2614785 33.4719882,54.725674 31.8291912,55.9577717 C29.9810447,57.1898694 27.5168492,56.7791702 26.4901011,55.1363732 Z" id="Path"></path>
                <path d="M96.3089722,109.348673 C95.0768745,107.705876 95.4875737,105.241681 97.1303707,104.009583 C98.9785173,102.777485 101.237363,103.188184 102.67481,104.830981 C103.906908,106.679128 103.496209,108.937974 101.853412,110.170072 C100.005265,111.607519 97.5410699,111.19682 96.3089722,109.348673 Z" id="Path"></path>
                <path d="M66.5332772,161.712826 C65.3011794,159.86468 65.7118787,157.605834 67.3546757,156.168387 C68.9974726,154.936289 71.4616681,155.346988 72.8991154,156.989785 C74.1312131,158.837932 73.7205139,161.096778 72.0777169,162.534225 C70.2295703,163.766323 67.7653749,163.355623 66.5332772,161.712826 Z" id="Path"></path>
                <path d="M103.906908,243.031276 C102.67481,241.388479 103.08551,238.718934 104.728307,237.486837 C106.576453,236.254739 108.835299,236.665438 110.272746,238.308235 C111.504844,240.156382 111.094145,242.620577 109.451348,243.852675 C107.603201,245.290122 105.139006,244.879423 103.906908,243.031276 Z" id="Path"></path>
                <path d="M169.002738,43.0207456 C167.77064,41.172599 168.18134,38.9137532 169.824136,37.4763058 C171.466933,36.2442081 173.931129,36.6549073 175.368576,38.2977043 C176.600674,39.9405013 176.189975,42.4046967 174.547178,43.8421441 C172.699031,45.2795914 170.234836,44.8688922 169.002738,43.0207456 Z" id="Path"></path>
                <path d="M162.842249,123.928496 C161.610152,122.08035 162.020851,119.410805 163.663648,118.178707 C165.511794,116.946609 167.97599,117.357308 169.413437,119.000105 C170.645535,120.848252 170.234836,123.312447 168.592039,124.749895 C166.743892,126.187342 164.074347,125.776643 162.842249,123.928496 Z" id="Path"></path>
                <path d="M91.3805813,259.869945 C89.943134,258.021799 90.5591828,255.557603 92.2019798,254.120156 C94.0501264,252.682709 96.7196714,253.298757 97.9517692,254.941554 C99.1838669,256.789701 98.7731676,259.253896 97.1303707,260.691344 C95.2822241,262.128791 92.612679,261.718092 91.3805813,259.869945 Z" id="Path"></path>
                <path d="M95.2822241,215.309078 C94.0501264,213.460931 94.4608256,210.996735 96.1036226,209.559288 C97.9517692,208.121841 100.415965,208.53254 101.853412,210.380687 C103.290859,212.228833 102.88016,214.693029 101.032013,216.130476 C99.1838669,217.567923 96.7196714,217.157224 95.2822241,215.309078 Z" id="Path"></path>
                <path d="M223.215038,62.1182603 C221.777591,60.2701137 222.18829,57.6005687 224.036436,56.3684709 C225.884583,54.9310236 228.348778,55.3417228 229.786226,57.1898694 C231.223673,59.038016 230.607624,61.5022115 228.964827,62.9396588 C227.116681,64.3771061 224.447136,63.9664069 223.215038,62.1182603 Z" id="Path"></path>
                <path d="M151.75337,467.067713 C150.315922,465.219566 150.726622,462.550021 152.780118,461.112574 C154.628265,459.675126 157.29781,460.085826 158.735257,462.139322 C160.172704,463.987468 159.762005,466.657013 157.913858,468.094461 C155.655013,469.326559 152.985468,468.915859 151.75337,467.067713 Z" id="Path"></path>
                <path d="M54.6229992,198.059709 C53.3909014,196.211563 53.8016007,193.542018 55.6497473,192.10457 C57.4978939,190.667123 60.1674389,191.077822 61.6048863,193.131318 C63.0423336,194.979465 62.6316344,197.64901 60.7834878,199.086457 C58.7299916,200.318555 56.0604465,199.907856 54.6229992,198.059709 Z" id="Path"></path>
                <path d="M19.508214,79.1622789 C18.0707666,77.3141323 18.4814659,74.6445872 20.5349621,73.2071398 C22.3831087,71.7696925 25.0526537,72.1803917 26.4901011,74.233888 C27.9275484,76.0820345 27.3114996,78.7515796 25.463353,80.189027 C23.6152064,81.4211247 20.9456613,81.0104254 19.508214,79.1622789 Z" id="Path"></path>
                <path d="M160.378054,338.3135 C158.940607,336.465354 159.351306,333.795809 161.404802,332.358361 C163.252949,330.920914 165.922494,331.331613 167.359941,333.38511 C168.797388,335.233256 168.386689,337.902801 166.333193,339.340249 C164.485046,340.572346 161.815501,340.161647 160.378054,338.3135 Z" id="Path"></path>
                <path d="M106.576453,551.877106 C105.139006,550.02896 105.549705,547.359414 107.603201,545.921967 C109.451348,544.48452 112.120893,544.895219 113.55834,546.948715 C114.995788,548.796862 114.585088,551.466407 112.531592,552.903854 C110.683446,554.135952 108.013901,553.725253 106.576453,551.877106 Z" id="Path"></path>
                <path d="M111.094145,371.16944 C109.656698,369.321293 110.067397,366.446398 112.120893,365.214301 C113.96904,363.776853 116.843934,364.187553 118.281382,366.241049 C119.718829,368.089195 119.30813,370.96409 117.254634,372.196188 C115.201137,373.633635 112.326243,373.222936 111.094145,371.16944 Z" id="Path"></path>
                <path d="M32.4452401,69.5108467 C31.0077928,67.4573505 31.418492,64.7878054 33.4719882,63.350358 C35.3201348,61.9129107 38.1950295,62.3236099 39.6324768,64.3771061 C41.0699242,66.2252527 40.6592249,69.1001474 38.6057287,70.5375948 C36.5522325,71.7696925 33.8826874,71.3589933 32.4452401,69.5108467 Z" id="Path"></path>
                <path d="M209.456613,616.356887 C208.019166,614.508741 208.429865,611.633846 210.483361,610.196398 C212.536858,608.758951 215.206403,609.16965 216.64385,611.223147 C218.081297,613.071293 217.670598,615.946188 215.617102,617.383635 C213.768955,618.821083 210.894061,618.410383 209.456613,616.356887 Z" id="Path"></path>
                <path d="M216.233151,580.010004 C214.795703,577.956508 215.206403,575.286963 217.259899,573.849516 C219.108045,572.412068 221.98294,572.822767 223.420388,574.876264 C224.857835,576.92976 224.447136,579.599305 222.393639,581.036752 C220.545493,582.26885 217.670598,581.858151 216.233151,580.010004 Z" id="Path"></path>
                <path d="M131.629107,204.425548 C130.19166,202.577401 130.602359,199.702506 132.655855,198.265059 C134.504002,196.827612 137.378896,197.238311 138.816344,199.291807 C140.253791,201.345303 139.843092,204.014848 137.789596,205.452296 C135.736099,206.889743 133.066554,206.479044 131.629107,204.425548 Z" id="Path"></path>
                <path d="M190.975147,130.705034 C189.5377,128.651537 189.948399,125.981992 192.001896,124.544545 C194.055392,123.107098 196.724937,123.517797 198.162384,125.571293 C199.599832,127.624789 199.189132,130.294334 197.135636,131.731782 C195.08214,133.169229 192.412595,132.75853 190.975147,130.705034 Z" id="Path"></path>
                <path d="M109.245998,264.387637 C107.808551,262.334141 108.21925,259.664596 110.272746,258.227148 C112.120893,256.789701 114.995788,257.2004 116.433235,259.253896 C117.870682,261.307393 117.459983,263.976938 115.406487,265.414385 C113.352991,266.851832 110.478096,266.441133 109.245998,264.387637 Z" id="Path"></path>
                <path d="M18.4814659,12.8343513 C17.0440185,10.7808551 17.4547178,8.11131003 19.508214,6.67386268 C21.5617102,5.23641533 24.2312553,5.64711457 25.6687026,7.70061078 C27.10615,9.75410699 26.6954507,12.4236521 24.6419545,13.8610994 C22.7938079,15.2985468 19.9189132,14.8878475 18.4814659,12.8343513 Z" id="Path"></path>
                <path d="M189.127001,191.693871 C187.689553,189.640375 188.100253,186.97083 190.153749,185.533382 C192.207245,184.095935 194.87679,184.506634 196.314238,186.560131 C197.751685,188.613627 197.340986,191.283172 195.287489,192.720619 C193.233993,194.158067 190.564448,193.747367 189.127001,191.693871 Z" id="Path"></path>
                <path d="M82.9612468,147.543703 C81.5237995,145.490206 81.9344987,142.615312 83.9879949,141.177864 C86.0414912,139.740417 88.9163858,140.151116 90.3538332,142.204612 C91.7912805,144.258109 91.3805813,147.133003 89.3270851,148.570451 C87.2735889,150.007898 84.3986942,149.597199 82.9612468,147.543703 Z" id="Path"></path>
                <path d="M150.931971,407.721672 C149.494524,405.668176 149.905223,402.793281 151.958719,401.355834 C154.012216,399.918387 156.88711,400.329086 158.324558,402.382582 C159.762005,404.436078 159.351306,407.310973 157.29781,408.74842 C155.244313,410.185868 152.369419,409.775168 150.931971,407.721672 Z" id="Path"></path>
                <path d="M104.933656,705.273273 C103.496209,703.219777 103.906908,700.344882 105.960404,698.907435 C108.013901,697.469987 110.888795,697.880687 112.326243,699.934183 C113.76369,701.987679 113.352991,704.862574 111.299495,706.300021 C109.451348,707.942818 106.576453,707.326769 104.933656,705.273273 Z" id="Path"></path>
                <path d="M92.8180286,104.830981 C91.3805813,102.777485 91.7912805,99.9025906 93.8447767,98.4651432 C95.898273,97.0276959 98.7731676,97.4383951 100.210615,99.4918913 C101.648062,101.545388 101.237363,104.420282 99.1838669,105.85773 C97.3357203,107.295177 94.255476,106.884478 92.8180286,104.830981 Z" id="Path"></path>
                <path d="M154.422915,626.624368 C152.985468,624.570872 153.396167,621.695977 155.449663,620.25853 C157.503159,618.821083 160.378054,619.231782 161.815501,621.285278 C163.252949,623.338774 162.842249,626.213669 160.788753,627.651116 C158.735257,629.088564 155.860362,628.677864 154.422915,626.624368 Z" id="Path"></path>
                <path d="M202.269377,176.29265 C200.831929,174.239153 201.242628,171.364259 203.296125,169.721462 C205.349621,168.284014 208.224516,168.694714 209.867313,170.74821 C211.51011,172.801706 210.894061,175.88195 208.840564,177.319398 C206.581719,178.962195 203.706824,178.346146 202.269377,176.29265 Z" id="Path"></path>
                <path d="M57.9085931,310.385952 C56.2657961,308.332456 56.881845,305.252211 58.9353412,303.814764 C60.9888374,302.377317 64.0690817,302.788016 65.5065291,304.841512 C67.149326,306.895008 66.5332772,309.975253 64.479781,311.4127 C62.4262848,312.850147 59.5513901,312.439448 57.9085931,310.385952 Z" id="Path"></path>
                <path d="M192.823294,320.858783 C191.180497,318.805286 191.796546,315.725042 193.850042,314.287595 C195.903538,312.644798 198.983783,313.260847 200.42123,315.314343 C202.064027,317.367839 201.447978,320.242734 199.394482,321.885531 C197.340986,323.528328 194.260741,323.117628 192.823294,320.858783 Z" id="Path"></path>
                <path d="M110.683446,350.429128 C109.245998,348.375632 109.656698,345.295388 111.710194,343.85794 C113.76369,342.420493 116.843934,342.831192 118.281382,344.884688 C119.924179,346.938184 119.30813,350.018429 117.254634,351.455876 C115.201137,352.893324 112.120893,352.482624 110.683446,350.429128 Z" id="Path"></path>
                <path d="M206.992418,142.820661 C205.349621,140.561816 205.96567,137.686921 208.019166,136.044124 C210.072662,134.401327 213.152906,135.017376 214.795703,137.070872 C216.4385,139.329718 215.822452,142.204612 213.768955,143.847409 C211.51011,145.284857 208.635215,144.874158 206.992418,142.820661 Z" id="Path"></path>
                <path d="M79.059604,189.845725 C77.4168071,187.586879 78.0328559,184.506634 80.0863521,183.069187 C82.345198,181.42639 85.4254423,182.042439 86.8628896,184.095935 C88.5056866,186.354781 87.8896377,189.435025 85.8361415,190.872473 C83.7826453,192.51527 80.702401,192.10457 79.059604,189.845725 Z" id="Path"></path>
                <path d="M140.459141,89.8404591 L85.014743,65.4038543 C84.3986942,65.1985046 83.9879949,65.4038543 83.7826453,66.0199031 C83.5772957,66.4306024 83.7826453,67.0466512 84.1933446,67.2520008 L139.843092,91.6886057 C140.253791,91.8939553 140.86984,91.6886057 141.07519,91.2779065 C141.07519,90.456508 140.86984,90.0458088 140.459141,89.8404591 Z" id="Path"></path>
                <path d="M84.6040438,65.1985046 L10.4728307,59.2433656 C10.0621314,59.2433656 9.44608256,59.6540649 9.44608256,60.0647641 C9.44608256,60.680813 9.8567818,61.0915122 10.267481,61.0915122 L84.3986942,67.0466512 C85.014743,67.0466512 85.4254423,66.635952 85.4254423,66.2252527 C85.4254423,65.6092039 85.2200927,65.1985046 84.6040438,65.1985046 L84.6040438,65.1985046 Z" id="Path"></path>
                <path d="M29.1596462,53.6989259 L84.3986942,67.0466512 C84.8093934,67.0466512 85.4254423,66.8413016 85.4254423,66.2252527 C85.4254423,65.8145535 85.2200927,65.4038543 84.8093934,65.1985046 L29.775695,51.8507793 C29.3649958,51.6454297 28.7489469,52.0561289 28.7489469,52.4668281 C28.3382477,53.082877 28.7489469,53.6989259 29.1596462,53.6989259 Z" id="Path"></path>
                <path d="M29.1596462,51.8507793 L10.0621314,59.038016 C9.65143218,59.2433656 9.44608256,59.8594145 9.65143218,60.2701137 C9.8567818,60.680813 10.4728307,60.8861626 10.8835299,60.8861626 L29.9810447,53.6989259 C30.3917439,53.4935762 30.5970935,52.8775274 30.3917439,52.4668281 C30.1863943,52.0561289 29.5703454,51.8507793 29.1596462,51.8507793 Z" id="Path"></path>
                <path d="M83.5772957,66.4306024 L98.567818,107.500527 C98.7731676,107.911226 99.1838669,108.321925 99.7999158,108.116575 C100.210615,107.911226 100.621314,107.295177 100.415965,106.884478 L85.4254423,65.8145535 C85.2200927,65.4038543 84.6040438,64.993155 84.1933446,65.1985046 C83.7826453,65.4038543 83.5772957,66.0199031 83.5772957,66.4306024 Z" id="Path"></path>
                <path d="M9.8567818,60.8861626 L98.9785173,107.911226 C99.3892165,108.116575 100.005265,107.911226 100.415965,107.500527 C100.621314,107.089827 100.415965,106.473778 100.005265,106.268429 L10.8835299,59.2433656 C10.4728307,59.038016 9.8567818,59.2433656 9.65143218,59.6540649 C9.24073294,60.0647641 9.44608256,60.680813 9.8567818,60.8861626 L9.8567818,60.8861626 Z" id="Path"></path>
                <path d="M28.9542965,53.4935762 L98.9785173,107.705876 C99.3892165,108.116575 100.005265,107.911226 100.415965,107.500527 C100.826664,107.089827 100.621314,106.473778 100.210615,106.063079 L30.1863943,51.8507793 C29.775695,51.6454297 29.1596462,51.6454297 28.7489469,52.0561289 C28.3382477,52.6721778 28.3382477,53.2882266 28.9542965,53.4935762 Z" id="Path"></path>
                <path d="M98.7731676,106.679128 L68.9974726,158.837932 C68.792123,159.248631 68.9974726,159.86468 69.4081719,160.070029 C69.8188711,160.275379 70.43492,160.070029 70.6402696,159.65933 L100.415965,107.500527 C100.621314,107.089827 100.415965,106.473778 100.005265,106.268429 C99.3892165,106.063079 98.9785173,106.268429 98.7731676,106.679128 Z" id="Path"></path>
                <path d="M100.210615,107.911226 L172.904381,41.5832982 C173.31508,41.172599 173.31508,40.5565501 172.904381,40.1458509 C172.493682,39.7351516 171.877633,39.7351516 171.466933,40.1458509 L171.466933,40.1458509 L98.7731676,106.473778 C98.3624684,106.884478 98.3624684,107.500527 98.7731676,107.911226 C99.1838669,108.116575 99.7999158,108.116575 100.210615,107.911226 Z" id="Path"></path>
                <path d="M68.792123,159.65933 L105.960404,241.18313 C106.165754,241.593829 106.781803,241.799179 107.192502,241.593829 C107.603201,241.388479 107.808551,240.77243 107.603201,240.361731 L70.43492,158.837932 C70.2295703,158.427233 69.6135215,158.221883 69.2028222,158.427233 C68.792123,158.632582 68.5867734,159.248631 68.792123,159.65933 Z" id="Path"></path>
                <path d="M171.261584,40.7618997 L165.101095,121.464301 C165.101095,122.08035 165.511794,122.491049 165.922494,122.491049 C166.538543,122.491049 166.949242,122.08035 166.949242,121.66965 L166.949242,121.66965 L172.904381,40.9672494 C172.904381,40.3512005 172.493682,39.9405013 172.082982,39.9405013 C171.672283,39.7351516 171.261584,40.1458509 171.261584,40.7618997 Z" id="Path"></path>
                <path d="M95.4875737,258.021799 L107.808551,241.388479 C108.013901,240.97778 108.013901,240.361731 107.603201,239.951032 C107.192502,239.540333 106.576453,239.745682 106.165754,240.156382 L106.165754,240.156382 L93.8447767,256.789701 C93.6394271,257.2004 93.6394271,257.816449 94.0501264,258.227148 C94.6661752,258.637848 95.2822241,258.637848 95.4875737,258.021799 Z" id="Path"></path>
                <path d="M97.7464195,213.255581 L106.165754,240.97778 C106.371104,241.388479 106.781803,241.799179 107.397852,241.593829 C108.013901,241.388479 108.21925,240.97778 108.013901,240.361731 L108.013901,240.361731 L99.7999158,212.434183 C99.5945661,211.818134 98.9785173,211.612784 98.567818,211.818134 C97.7464195,212.228833 97.5410699,212.639532 97.7464195,213.255581 Z" id="Path"></path>
                <path d="M171.877633,41.7886479 L226.295282,60.680813 C226.911331,60.8861626 227.32203,60.4754634 227.52738,60.0647641 C227.73273,59.4487152 227.52738,59.038016 226.911331,58.8326664 L172.493682,39.9405013 C172.082982,39.7351516 171.466933,39.9405013 171.261584,40.5565501 C171.056234,40.9672494 171.261584,41.5832982 171.877633,41.7886479 L171.877633,41.7886479 Z" id="Path"></path>
                <path d="M166.127843,122.491049 L228.759478,115.919861 C229.375527,115.919861 229.786226,115.303812 229.580876,114.893113 C229.580876,114.277064 228.964827,113.866365 228.554128,114.071714 L165.717144,120.642902 C165.101095,120.642902 164.690396,121.258951 164.895746,121.66965 C165.101095,122.285699 165.717144,122.696398 166.127843,122.491049 Z" id="Path"></path>
                <path d="M99.3892165,213.666281 L166.743892,122.285699 C167.154591,121.875 166.949242,121.258951 166.538543,120.848252 C166.127843,120.437553 165.511794,120.642902 165.101095,121.053602 L165.101095,121.053602 L97.5410699,212.434183 C97.1303707,212.844882 97.3357203,213.460931 97.7464195,213.87163 C98.567818,214.07698 99.1838669,214.07698 99.3892165,213.666281 Z" id="Path"></path>
                <path d="M225.884583,58.8326664 L165.511794,120.642902 C165.101095,121.053602 165.101095,121.66965 165.511794,122.08035 C165.922494,122.491049 166.538543,122.491049 166.949242,122.08035 L227.32203,60.2701137 C227.73273,59.8594145 227.73273,59.2433656 227.32203,58.8326664 C226.911331,58.4219671 226.295282,58.6273168 225.884583,58.8326664 Z" id="Path"></path>
                <path d="M97.5410699,212.844882 L93.6394271,257.40575 C93.6394271,258.021799 94.0501264,258.432498 94.6661752,258.432498 C95.2822241,258.432498 95.6929233,258.021799 95.6929233,257.611099 L95.6929233,257.611099 L99.5945661,213.050232 C99.5945661,212.434183 99.1838669,212.023484 98.7731676,212.023484 C98.1571188,212.023484 97.7464195,212.434183 97.5410699,212.844882 Z" id="Path"></path>
                <path d="M225.473884,59.6540649 L227.73273,114.893113 C227.73273,115.509162 228.143429,115.919861 228.759478,115.919861 C229.375527,115.919861 229.786226,115.509162 229.786226,114.893113 L229.786226,114.893113 L227.52738,59.4487152 C227.52738,58.8326664 226.911331,58.4219671 226.500632,58.4219671 C225.884583,58.6273168 225.473884,59.038016 225.473884,59.6540649 Z" id="Path"></path>
                <path d="M209.456613,405.873526 L154.217565,463.782119 C153.806866,464.192818 153.806866,464.808867 154.217565,465.219566 C154.628265,465.630265 155.244313,465.630265 155.655013,465.219566 L210.688711,407.310973 C211.09941,406.900274 211.09941,406.284225 210.688711,405.873526 C210.688711,405.462826 209.867313,405.462826 209.456613,405.873526 L209.456613,405.873526 Z" id="Path"></path>
                <path d="M57.0871946,196.006213 L93.8447767,257.816449 C94.0501264,258.227148 94.6661752,258.432498 95.2822241,258.227148 C95.6929233,258.021799 95.898273,257.40575 95.6929233,256.789701 L58.9353412,194.979465 C58.524642,194.568766 57.9085931,194.363416 57.4978939,194.568766 C57.0871946,194.979465 56.881845,195.595514 57.0871946,196.006213 Z" id="Path"></path>
                <path d="M98.9785173,212.023484 L58.3192923,194.568766 C57.7032435,194.363416 57.0871946,194.568766 56.881845,195.184815 C56.6764954,195.800864 56.881845,196.416912 57.4978939,196.622262 L97.9517692,214.07698 C98.3624684,214.282329 99.1838669,214.07698 99.3892165,213.460931 C99.7999158,212.844882 99.5945661,212.228833 98.9785173,212.023484 L98.9785173,212.023484 Z" id="Path"></path>
                <path d="M154.217565,464.192818 L109.245998,549.002211 C109.040649,549.61826 109.245998,550.234309 109.656698,550.439659 C110.067397,550.645008 110.683446,550.439659 111.094145,550.02896 L156.065712,465.219566 C156.271061,464.603517 156.065712,463.987468 155.655013,463.782119 C155.038964,463.37142 154.422915,463.576769 154.217565,464.192818 L154.217565,464.192818 Z" id="Path"></path>
                <path d="M113.55834,369.115944 L154.217565,465.014217 C154.422915,465.630265 155.038964,465.835615 155.655013,465.630265 C156.271061,465.424916 156.476411,464.808867 156.271061,464.192818 L115.611837,368.294545 C115.406487,367.678496 114.790438,367.473147 114.174389,367.678496 C113.55834,367.883846 113.352991,368.499895 113.55834,369.115944 L113.55834,369.115944 Z" id="Path"></path>
                <path d="M115.201137,369.526643 L164.485046,336.670703 C164.895746,336.260004 165.101095,335.643955 164.690396,335.233256 C164.279697,334.822557 163.663648,334.617207 163.252949,335.027906 L163.252949,335.027906 L113.96904,367.883846 C113.55834,368.294545 113.352991,368.910594 113.76369,369.321293 C113.96904,369.731992 114.585088,369.937342 115.201137,369.526643 Z" id="Path"></path>
                <path d="M23.6152064,77.5194819 L36.5522325,67.6627001 C36.9629318,67.2520008 37.1682814,66.635952 36.7575821,66.0199031 C36.3468829,65.6092039 35.730834,65.4038543 35.3201348,65.8145535 L35.3201348,65.8145535 L22.3831087,75.6713353 C21.9724094,76.0820345 21.7670598,76.6980834 22.1777591,77.1087826 C22.3831087,77.7248315 22.9991575,77.9301811 23.6152064,77.5194819 L23.6152064,77.5194819 Z" id="Path"></path>
                <path d="M57.9085931,196.622262 L134.914701,202.9881 C135.53075,202.9881 136.146799,202.577401 136.146799,201.961352 C136.146799,201.345303 135.736099,200.729254 135.120051,200.729254 L58.1139427,194.363416 C57.4978939,194.363416 57.0871946,194.774115 56.881845,195.390164 C56.881845,196.006213 57.4978939,196.622262 57.9085931,196.622262 Z" id="Path"></path>
                <path d="M256.687026,564.814132 L212.331508,613.276643 C211.920809,613.687342 211.920809,614.508741 212.331508,614.91944 C212.742207,615.330139 213.563606,615.330139 213.974305,614.91944 L258.329823,566.456929 C258.740522,566.04623 258.740522,565.430181 258.329823,565.019482 C257.713774,564.198083 257.097725,564.198083 256.687026,564.814132 Z" id="Path"></path>
                <path d="M257.097725,564.403433 L219.518745,576.313711 C218.902696,576.519061 218.697346,577.13511 218.902696,577.751158 C219.108045,578.367207 219.724094,578.572557 220.340143,578.367207 L257.919124,566.456929 C258.535173,566.25158 258.740522,565.635531 258.535173,565.224832 C258.329823,564.608783 257.713774,564.198083 257.097725,564.403433 Z" id="Path"></path>
                <path d="M164.074347,336.670703 L245.187447,309.564553 C245.803496,309.359204 246.008846,308.743155 245.803496,308.127106 C245.598147,307.511057 244.982098,307.305708 244.366049,307.511057 L163.458298,334.822557 C162.842249,335.027906 162.6369,335.643955 162.842249,336.260004 C163.047599,336.670703 163.663648,336.876053 164.074347,336.670703 Z" id="Path"></path>
                <path d="M24.0259056,76.6980834 L23.2045072,10.3701559 C23.2045072,9.75410699 22.7938079,9.34340775 21.9724094,9.34340775 C21.3563606,9.34340775 20.9456613,9.95945661 20.9456613,10.5755055 L21.7670598,76.903433 C21.7670598,77.5194819 22.1777591,77.9301811 22.7938079,77.9301811 C23.6152064,77.7248315 24.0259056,77.3141323 24.0259056,76.6980834 L24.0259056,76.6980834 Z" id="Path"></path>
                <path d="M164.690396,335.027906 L113.55834,261.102043 C113.147641,260.485994 112.531592,260.485994 111.915543,260.896693 C111.504844,261.307393 111.299495,261.923441 111.710194,262.334141 L162.842249,336.260004 C163.252949,336.670703 163.868997,336.876053 164.279697,336.465354 C164.895746,336.260004 165.101095,335.643955 164.690396,335.027906 Z" id="Path"></path>
                <path d="M248.883741,685.970409 L213.974305,613.276643 C213.768955,612.660594 212.947557,612.455244 212.536858,612.865944 C212.126158,613.071293 211.715459,613.687342 212.126158,614.303391 L247.035594,686.997157 C247.240944,687.613206 247.856992,687.818555 248.473041,687.407856 C248.883741,687.202506 249.08909,686.586457 248.883741,685.970409 Z" id="Path"></path>
                <path d="M260.17797,208.943239 L195.287489,127.41944 C194.87679,127.008741 194.260741,126.803391 193.850042,127.21409 C193.439343,127.624789 193.233993,128.240838 193.644693,128.856887 L258.740522,210.380687 C259.151222,210.791386 259.76727,210.996735 260.17797,210.586036 C260.588669,210.175337 260.588669,209.559288 260.17797,208.943239 Z" id="Path"></path>
                <path d="M248.883741,686.175758 L220.750842,577.13511 C220.545493,576.519061 219.929444,576.108361 219.313395,576.313711 C218.697346,576.519061 218.286647,576.92976 218.491997,577.751158 L246.624895,686.791807 C246.830244,687.407856 247.240944,687.818555 247.856992,687.613206 C248.883741,687.407856 249.08909,686.791807 248.883741,686.175758 L248.883741,686.175758 Z" id="Path"></path>
                <path d="M259.76727,208.73789 L193.028644,188.202928 C192.412595,187.997578 191.796546,188.408277 191.591196,189.024326 C191.385847,189.640375 191.796546,190.256424 192.412595,190.461773 L192.412595,190.461773 L259.151222,210.996735 C259.76727,211.202085 260.383319,210.791386 260.588669,210.175337 C260.588669,209.353939 260.17797,208.943239 259.76727,208.73789 Z" id="Path"></path>
                <path d="M115.611837,368.705244 L113.76369,261.923441 C113.76369,261.307393 113.147641,260.896693 112.736942,260.896693 C112.120893,260.896693 111.710194,261.512742 111.710194,261.923441 L111.710194,261.923441 L113.55834,368.705244 C113.55834,369.321293 113.96904,369.731992 114.585088,369.731992 C115.201137,369.731992 115.611837,369.321293 115.611837,368.705244 Z" id="Path"></path>
                <path d="M214.179655,614.098041 L220.956192,577.751158 C221.161542,577.13511 220.750842,576.519061 220.134794,576.519061 C219.518745,576.519061 219.108045,576.72441 218.902696,577.340459 L212.126158,613.892692 C212.126158,614.508741 212.331508,615.124789 212.947557,615.124789 C213.563606,615.124789 213.974305,614.71409 214.179655,614.098041 Z" id="Path"></path>
                <path d="M135.941449,202.577401 L195.287489,128.856887 C195.698189,128.446188 195.698189,127.624789 195.08214,127.21409 C194.466091,126.803391 193.850042,127.008741 193.439343,127.41944 L134.093302,201.139954 C133.682603,201.550653 133.682603,202.372051 134.298652,202.782751 C134.914701,203.19345 135.53075,203.19345 135.941449,202.577401 Z" id="Path"></path>
                <path d="M36.9629318,66.635952 L23.2045072,10.1648062 C22.9991575,9.54875737 22.3831087,9.13805813 21.9724094,9.34340775 C21.3563606,9.54875737 20.9456613,10.1648062 21.151011,10.7808551 L34.9094356,67.2520008 C35.1147852,67.8680497 35.730834,68.0733993 36.3468829,68.0733993 C36.7575821,67.6627001 37.1682814,67.2520008 36.9629318,66.635952 Z" id="Path"></path>
                <path d="M113.76369,262.334141 L136.146799,202.372051 C136.352148,201.756003 136.146799,201.139954 135.53075,200.934604 C134.914701,200.729254 134.298652,200.934604 134.093302,201.550653 L134.093302,201.550653 L111.710194,261.512742 C111.504844,262.128791 111.710194,262.74484 112.326243,262.95019 C112.942291,263.155539 113.55834,262.74484 113.76369,262.334141 Z" id="Path"></path>
                <path d="M135.3254,202.9881 L192.823294,190.256424 C193.439343,190.051074 193.850042,189.435025 193.644693,188.818976 C193.439343,188.202928 192.823294,187.792228 192.207245,187.997578 L134.709351,200.934604 C134.093302,201.139954 133.682603,201.756003 133.887953,202.166702 C134.298652,202.782751 134.709351,203.19345 135.3254,202.9881 L135.3254,202.9881 Z" id="Path"></path>
                <path d="M193.439343,128.240838 L191.591196,189.229676 C191.591196,189.845725 192.001896,190.256424 192.617944,190.256424 C193.233993,190.256424 193.644693,189.845725 193.644693,189.229676 L195.287489,128.446188 C195.287489,127.830139 194.87679,127.21409 194.260741,127.21409 C193.850042,127.008741 193.439343,127.624789 193.439343,128.240838 L193.439343,128.240838 Z" id="Path"></path>
                <path d="M213.152906,614.91944 L250.731887,614.91944 C251.347936,614.91944 251.963985,614.303391 251.963985,613.687342 C251.963985,613.071293 251.347936,612.660594 250.731887,612.660594 L213.152906,612.865944 C212.536858,612.865944 212.126158,613.276643 212.126158,613.892692 C211.920809,614.508741 212.536858,614.91944 213.152906,614.91944 L213.152906,614.91944 Z" id="Path"></path>
                <path d="M113.55834,262.74484 L193.644693,190.051074 C194.055392,189.640375 194.055392,189.024326 193.644693,188.408277 C193.233993,187.997578 192.617944,187.792228 192.001896,188.408277 L111.915543,261.102043 C111.504844,261.512742 111.504844,262.128791 111.915543,262.74484 C112.326243,263.155539 112.942291,263.155539 113.55834,262.74484 Z" id="Path"></path>
                <path d="M251.553286,613.071293 L220.750842,576.72441 C220.340143,576.313711 219.724094,576.313711 219.313395,576.72441 C218.902696,577.13511 218.697346,577.751158 219.108045,578.161858 L249.910489,614.508741 C250.321188,614.91944 250.937237,615.124789 251.553286,614.71409 C251.758635,614.098041 251.963985,613.481992 251.553286,613.071293 Z" id="Path"></path>
                <path d="M35.1147852,67.4573505 L85.6307919,145.490206 C86.0414912,146.106255 86.65754,146.106255 87.2735889,145.900906 C87.8896377,145.490206 87.8896377,144.874158 87.6842881,144.258109 L87.6842881,144.258109 L36.9629318,66.2252527 C36.7575821,65.6092039 35.9361837,65.6092039 35.5254844,65.8145535 C34.9094356,66.2252527 34.7040859,66.8413016 35.1147852,67.4573505 Z" id="Path"></path>
                <path d="M155.449663,404.230729 L115.201137,367.883846 C114.790438,367.473147 114.174389,367.473147 113.76369,367.883846 C113.352991,368.294545 113.352991,368.910594 113.76369,369.321293 L153.806866,405.873526 C154.217565,406.284225 155.038964,406.284225 155.449663,405.873526 C155.860362,405.257477 155.860362,404.641428 155.449663,404.230729 Z" id="Path"></path>
                <path d="M135.941449,201.139954 L87.4789385,144.052759 C87.0682393,143.64206 86.2468408,143.43671 85.8361415,143.847409 C85.4254423,144.258109 85.2200927,144.874158 85.6307919,145.490206 L134.298652,202.577401 C134.709351,202.9881 135.3254,202.9881 135.941449,202.782751 C136.352148,202.372051 136.352148,201.756003 135.941449,201.139954 Z" id="Path"></path>
                <path d="M219.108045,576.519061 L157.29781,622.928075 C156.88711,623.338774 156.681761,623.954823 157.09246,624.570872 C157.503159,624.981571 158.119208,625.186921 158.735257,624.776222 L158.735257,624.776222 L220.545493,578.161858 C220.956192,577.751158 221.161542,577.13511 220.750842,576.519061 C220.340143,576.313711 219.724094,576.108361 219.108045,576.519061 Z" id="Path"></path>
                <path d="M193.439343,128.446188 L204.938922,173.828454 C205.144271,174.444503 205.76032,174.855202 206.376369,174.649853 C206.992418,174.444503 207.403117,173.828454 207.197767,173.212405 L195.698189,127.830139 C195.492839,127.21409 194.87679,126.803391 194.260741,127.008741 C193.644693,127.21409 193.233993,127.830139 193.439343,128.446188 L193.439343,128.446188 Z" id="Path"></path>
                <path d="M250.526537,612.660594 L157.913858,622.722725 C157.29781,622.722725 156.88711,623.338774 156.88711,623.954823 C156.88711,624.570872 157.503159,624.981571 158.119208,624.981571 L250.731887,614.91944 C251.347936,614.91944 251.758635,614.303391 251.758635,613.687342 C251.553286,613.071293 251.142586,612.660594 250.526537,612.660594 Z" id="Path"></path>
                <path d="M87.6842881,145.079507 L97.7464195,102.366786 C97.7464195,101.750737 97.5410699,101.134688 96.7196714,101.134688 C96.1036226,101.134688 95.6929233,101.340038 95.4875737,101.956087 L85.4254423,144.668808 C85.2200927,145.284857 85.6307919,145.900906 86.2468408,145.900906 C86.8628896,146.106255 87.4789385,145.695556 87.6842881,145.079507 Z" id="Path"></path>
                <path d="M109.656698,703.219777 L158.940607,624.570872 C159.351306,623.954823 159.145956,623.338774 158.529907,622.928075 C157.913858,622.517376 157.29781,622.722725 156.88711,623.338774 L107.603201,702.193029 C107.192502,702.603728 107.397852,703.425126 108.013901,703.835826 C108.629949,704.041175 109.451348,703.835826 109.656698,703.219777 Z" id="Path"></path>
                <path d="M206.171019,172.391007 L86.65754,143.64206 C86.0414912,143.43671 85.4254423,143.847409 85.2200927,144.463458 C85.014743,145.079507 85.4254423,145.695556 86.0414912,145.900906 L86.0414912,145.900906 L205.554971,174.649853 C206.171019,174.855202 206.787068,174.444503 206.992418,173.828454 C207.197767,173.212405 206.992418,172.596356 206.171019,172.391007 L206.171019,172.391007 Z" id="Path"></path>
                <path d="M195.492839,317.573189 L153.601516,404.436078 C153.396167,405.052127 153.601516,405.668176 154.217565,406.078875 C154.833614,406.284225 155.449663,406.078875 155.655013,405.462826 L197.546335,318.599937 C197.751685,317.983888 197.546335,317.367839 196.930286,316.95714 C196.519587,316.75179 195.903538,316.95714 195.492839,317.573189 Z" id="Path"></path>
                <path d="M235.125316,386.981361 L154.422915,403.820029 C153.806866,404.025379 153.396167,404.641428 153.601516,405.257477 C153.806866,405.873526 154.422915,406.284225 155.038964,406.078875 L235.741365,389.240206 C236.357414,389.034857 236.768113,388.418808 236.562763,387.802759 C236.357414,387.18671 235.741365,386.776011 235.125316,386.981361 Z" id="Path"></path>
                <path d="M113.55834,348.375632 L153.806866,405.873526 C154.217565,406.489575 154.833614,406.489575 155.449663,406.078875 C155.860362,405.668176 156.065712,405.052127 155.655013,404.436078 L115.406487,346.938184 C114.995788,346.322136 114.379739,346.322136 113.76369,346.732835 C113.147641,346.938184 113.147641,347.759583 113.55834,348.375632 Z" id="Path"></path>
                <path d="M61.6048863,308.743155 L196.314238,319.215986 C196.930286,319.215986 197.546335,318.805286 197.546335,318.189238 C197.546335,317.573189 197.135636,316.95714 196.519587,316.95714 L196.519587,316.95714 L61.6048863,306.484309 C60.9888374,306.484309 60.3727885,306.895008 60.3727885,307.511057 C60.5781382,308.127106 60.9888374,308.743155 61.6048863,308.743155 Z" id="Path"></path>
                <path d="M195.492839,318.805286 L234.303917,388.829507 C234.509267,389.445556 235.330666,389.650906 235.946714,389.240206 C236.562763,388.829507 236.768113,388.213458 236.357414,387.597409 L197.546335,317.573189 C197.340986,316.95714 196.519587,316.75179 195.903538,317.162489 C195.492839,317.367839 195.287489,318.189238 195.492839,318.805286 L195.492839,318.805286 Z" id="Path"></path>
                <path d="M60.9888374,308.537805 L113.76369,348.580981 C114.379739,348.991681 114.995788,348.786331 115.406487,348.375632 C115.817186,347.759583 115.611837,347.143534 115.201137,346.732835 L62.4262848,306.689659 C62.0155855,306.27896 61.194187,306.484309 60.7834878,306.895008 C60.3727885,307.305708 60.5781382,308.127106 60.9888374,308.537805 Z" id="Path"></path>
                <path d="M114.790438,348.786331 L196.930286,319.215986 C197.546335,319.010636 197.751685,318.394587 197.751685,317.778538 C197.546335,317.162489 196.930286,316.95714 196.314238,317.162489 L114.174389,346.732835 C113.55834,346.938184 113.352991,347.554233 113.352991,348.170282 C113.55834,348.580981 114.174389,348.991681 114.790438,348.786331 Z" id="Path"></path>
                <path d="M114.174389,348.786331 L235.125316,389.240206 C235.741365,389.445556 236.357414,389.034857 236.562763,388.418808 C236.768113,387.802759 236.357414,387.18671 235.741365,386.981361 L114.790438,346.322136 C114.174389,346.116786 113.55834,346.527485 113.352991,347.143534 C113.147641,347.759583 113.55834,348.580981 114.174389,348.786331 Z" id="Path"></path>
                <path d="M207.197767,173.828454 L212.126158,140.151116 C212.331508,139.535067 211.715459,138.919019 211.09941,138.919019 C210.483361,138.919019 209.867313,139.329718 209.661963,139.945767 L204.733572,173.623104 C204.733572,174.239153 205.144271,174.855202 205.76032,174.855202 C206.376369,174.855202 206.992418,174.444503 207.197767,173.828454 Z" id="Path"></path>
                <path d="M195.698189,318.805286 L260.794019,406.284225 C261.204718,406.900274 261.820767,406.900274 262.436816,406.489575 C262.847515,406.078875 263.052864,405.257477 262.642165,404.846778 L197.546335,317.367839 C197.135636,316.75179 196.314238,316.75179 195.903538,317.162489 C195.492839,317.573189 195.287489,318.394587 195.698189,318.805286 L195.698189,318.805286 Z" id="Path"></path>
                <path d="M210.483361,138.713669 L82.5505476,185.738732 C81.9344987,185.944082 81.7291491,186.560131 81.9344987,187.381529 C82.1398484,187.997578 82.7558972,188.408277 83.3719461,188.202928 L83.3719461,188.202928 L211.30476,141.177864 C211.920809,140.972515 212.331508,140.151116 211.920809,139.535067 C211.715459,138.919019 211.09941,138.508319 210.483361,138.713669 Z" id="Path"></path>
            </g>
        </g>
    </g>
</svg>