<svg xmlns="http://www.w3.org/2000/svg" width="432" height="863" viewBox="0 0 432 863">
  <g fill="#3AADD4" opacity=".45" transform="translate(-6 -6)">
    <path d="M147.850885 145.216723C147.645535 147.270219 145.797388 148.502317 143.743892 148.296967 141.690396 147.886268 140.458298 146.243471 140.663648 144.189975 141.074347 142.136479 142.922494 140.904381 144.77064 141.10973 146.824136 141.52043 148.056234 143.368576 147.850885 145.216723zM163.252106 116.673126C163.046757 118.726622 160.99326 119.958719 159.145114 119.75337 157.091618 119.54802 155.85952 117.494524 156.064869 115.646377 156.475569 113.592881 158.323715 112.360783 160.377211 112.566133 162.225358 112.771483 163.662805 114.824979 163.252106 116.673126zM128.342671 494.105729C127.931971 496.159225 126.083825 497.802022 123.824979 497.391323 121.771483 496.980623 120.334035 495.132477 120.539385 492.873631 120.950084 490.820135 122.798231 489.382687 125.057077 489.588037 127.315922 489.998736 128.75337 491.846883 128.342671 494.105729zM159.761163 410.117734C159.350463 412.17123 157.502317 413.814027 155.243471 413.403328 153.189975 412.992628 151.752527 411.144482 151.957877 408.885636 152.368576 406.83214 154.216723 405.189343 156.475569 405.600042 158.529065 406.010741 159.966512 407.858888 159.761163 410.117734zM263.668071 679.331087C263.257372 681.589933 261.203875 683.02738 258.945029 682.82203 256.686184 682.411331 255.248736 680.357835 255.659436 678.098989 256.070135 675.840143 258.123631 674.402696 260.382477 674.813395 262.641323 675.018745 264.07877 677.072241 263.668071 679.331087zM204.116681 219.758635C203.705981 222.017481 201.652485 223.454928 199.393639 223.044229 197.134794 222.63353 195.697346 220.580034 196.108045 218.321188 196.518745 216.062342 198.572241 214.624895 200.831087 215.035594 202.884583 215.446293 204.32203 217.499789 204.116681 219.758635zM180.296125 407.037489C179.885425 409.296335 177.831929 410.733783 175.573083 410.528433 173.314238 410.117734 171.87679 408.064238 172.287489 405.805392 172.698189 403.546546 174.751685 402.109099 177.010531 402.314448 179.269377 402.725147 180.706824 404.778644 180.296125 407.037489zM146.208088 435.786436C145.797388 438.045282 143.743892 439.48273 141.485046 439.27738 139.226201 438.661331 137.583404 436.607835 137.994103 434.348989 138.404802 432.090143 140.458298 430.652696 142.717144 430.858045 144.97599 431.268745 146.413437 433.527591 146.208088 435.786436zM335.745788 666.394061C335.335088 668.652906 333.281592 670.090354 331.022746 669.885004 328.763901 669.474305 327.326453 667.420809 327.531803 665.161963 327.942502 662.903117 329.995998 661.46567 332.254844 661.876369 334.71904 662.081719 336.156487 664.135215 335.745788 666.394061zM194.054549 656.537279C193.64385 658.796125 191.590354 660.438922 189.331508 660.028222 187.072662 659.617523 185.429865 657.564027 185.840564 655.305181 186.251264 653.046335 188.30476 651.403538 190.563606 651.814238 192.822452 652.019587 194.465249 654.278433 194.054549 656.537279zM278.042544 630.868576C277.631845 633.127422 275.578349 634.770219 273.114153 634.35952 270.855307 633.948821 269.212511 631.895324 269.62321 629.636479 270.033909 627.377633 272.087405 625.734836 274.551601 626.145535 276.810447 626.350885 278.453243 628.404381 278.042544 630.868576zM135.529907 686.929023C135.119208 689.187869 133.065712 690.830666 130.601516 690.419966 128.342671 690.009267 126.699874 687.955771 127.110573 685.491575 127.521272 683.23273 129.574768 681.589933 132.038964 682.000632 134.29781 682.411331 135.940607 684.464827 135.529907 686.929023zM284.203033 217.910489C283.792334 220.169334 281.738837 221.812131 279.274642 221.401432 277.015796 220.990733 275.372999 218.937237 275.783698 216.473041 276.194398 214.214195 278.247894 212.571398 280.712089 212.982098 282.970935 213.392797 284.613732 215.446293 284.203033 217.910489zM162.636057 476.651011C162.225358 478.909857 160.171862 480.552654 157.707666 480.141955 155.448821 479.731255 153.806024 477.677759 154.216723 475.213564 154.627422 472.954718 156.680918 471.311921 159.145114 471.72262 161.40396 472.338669 163.046757 474.392165 162.636057 476.651011zM236.356571 523.265375C235.945872 525.524221 233.892376 527.167018 231.42818 526.756318 229.169334 526.345619 227.526537 524.292123 227.937237 521.827928 228.347936 519.569082 230.401432 517.926285 232.865628 518.336984 235.124473 518.747683 236.76727 520.801179 236.356571 523.265375zM187.072662 302.719882C186.661963 304.978728 184.403117 306.621525 182.144271 306.210826 179.885425 305.800126 178.242628 303.74663 178.653328 301.282435 179.064027 299.023589 181.322873 297.380792 183.581719 297.791491 185.840564 298.20219 187.278012 300.461036 187.072662 302.719882zM176.189132 778.514954C175.778433 780.979149 173.724937 782.416596 171.260741 782.005897 169.001896 781.595198 167.359099 779.336352 167.769798 777.077506 168.180497 774.81866 170.439343 773.175864 172.698189 773.586563 174.957035 773.997262 176.599832 776.256108 176.189132 778.514954zM235.176285 90.165754C234.765586 92.4245998 232.50674 94.0673968 230.247894 93.6566976 227.989048 93.2459983 226.346251 91.1925021 226.75695 88.7283067 227.16765 86.4694608 229.221146 84.8266639 231.685341 85.2373631 233.944187 85.6480623 235.586984 87.9069082 235.176285 90.165754zM375.994313 189.777591C375.583614 192.036436 373.324768 193.679233 371.065922 193.268534 368.807077 192.857835 367.16428 190.598989 367.574979 188.340143 367.985678 186.081297 370.039174 184.4385 372.50337 184.8492 374.762216 185.259899 376.405013 187.518745 375.994313 189.777591zM229.785383 689.598568C229.374684 692.062763 227.115838 693.500211 224.856992 693.089511 222.598147 692.678812 220.95535 690.419966 221.366049 688.16112 221.776748 685.902275 223.830244 684.259478 226.29444 684.670177 228.553286 685.080876 230.196083 687.134372 229.785383 689.598568zM30.3909014 324.281592C29.9802022 326.540438 27.7213564 328.183235 25.4625105 327.772536 23.2036647 327.361837 21.5608677 325.102991 21.971567 322.844145 22.3822662 320.585299 24.641112 318.942502 26.8999579 319.353201 29.1588037 319.763901 30.5962511 322.022746 30.3909014 324.281592zM142.306445 627.993682C141.895746 630.457877 139.6369 631.895324 137.378054 631.484625 135.119208 631.073926 133.476411 628.81508 133.681761 626.556234 134.09246 624.092039 136.351306 622.654591 138.610152 622.859941 141.074347 623.47599 142.717144 625.529486 142.306445 627.993682zM327.583614 11.3114996C327.172915 13.5703454 324.914069 15.2131424 322.655223 14.8024431 320.396377 14.3917439 318.75358 12.1328981 319.16428 9.87405223 319.574979 7.6152064 321.833825 5.97240944 324.092671 6.17775906 326.351516 6.79380792 327.994313 9.05265375 327.583614 11.3114996zM245.186605 314.42481C244.775906 316.683656 242.51706 318.326453 240.258214 318.121104 237.999368 317.710404 236.356571 315.451559 236.561921 313.192713 236.97262 310.728517 239.231466 309.29107 241.490312 309.49642 243.954507 309.907119 245.597304 311.960615 245.186605 314.42481zM87.2727464 583.432814C86.8620472 585.897009 84.6032013 587.539806 82.3443555 587.129107 79.8801601 586.718408 78.2373631 584.459562 78.6480623 582.200716 79.0587616 579.736521 81.3176074 578.093724 83.5764532 578.504423 86.0406487 578.709773 87.6834457 580.968618 87.2727464 583.432814zM300.888163 87.2908593C300.477464 89.7550548 298.218618 91.3978517 295.754423 90.9871525 293.290227 90.5764532 291.64743 88.3176074 292.05813 86.0587616 292.468829 83.5945661 294.727675 81.9517692 297.19187 82.3624684 299.656066 82.7731676 301.298863 85.0320135 300.888163 87.2908593zM270.29107 108.236521C269.880371 110.700716 267.621525 112.343513 265.157329 111.932814 262.693134 111.522115 261.050337 109.263269 261.461036 106.799073 261.871735 104.334878 264.130581 102.692081 266.594777 103.10278 269.058972 103.718829 270.701769 105.977675 270.29107 108.236521zM112.736099 417.71567C112.3254 420.179865 110.066554 421.822662 107.602359 421.411963 105.138163 421.001264 103.495366 418.742418 103.906066 416.483572 104.316765 414.019377 106.575611 412.37658 109.039806 412.787279 111.504002 412.992628 113.146799 415.251474 112.736099 417.71567zM110.682603 264.730202C110.271904 267.194398 108.013058 268.837195 105.548863 268.426495 103.084667 268.015796 101.44187 265.75695 101.85257 263.292755 102.263269 260.828559 104.522115 259.185762 106.98631 259.596462 109.245156 260.007161 110.887953 262.266007 110.682603 264.730202zM18.685973 427.983151C18.2752738 430.447346 16.016428 432.090143 13.5522325 431.679444 11.0880371 431.268745 9.4452401 429.009899 9.85593934 426.545703 10.2666386 424.081508 12.5254844 422.438711 14.9896799 422.84941 17.4538753 423.26011 19.0966723 425.518955 18.685973 427.983151zM203.295282 664.751264C202.884583 667.215459 200.625737 668.858256 198.161542 668.447557 195.697346 668.036858 194.054549 665.778012 194.465249 663.313816 194.875948 660.849621 197.134794 659.206824 199.598989 659.617523 202.063184 660.028222 203.705981 662.287068 203.295282 664.751264zM171.055392 391.225569C170.644693 393.689764 168.385847 395.332561 165.921651 394.921862 163.457456 394.511163 161.814659 392.252317 162.225358 389.788121 162.636057 387.323926 164.894903 385.681129 167.359099 386.091828 169.823294 386.502527 171.466091 388.761373 171.055392 391.225569zM57.2917018 633.127422C56.8810025 635.591618 54.6221567 637.234414 52.1579612 636.823715 49.6937658 636.413016 48.0509688 634.15417 48.4616681 631.689975 48.8723673 629.225779 51.1312131 627.582982 53.5954086 627.993682 56.059604 628.404381 57.702401 630.663227 57.2917018 633.127422zM182.554971 658.180076C182.144271 660.644271 179.885425 662.287068 177.42123 661.876369 174.957035 661.46567 173.314238 659.206824 173.724937 656.742628 174.135636 654.278433 176.394482 652.635636 178.858677 653.046335 181.322873 653.457035 182.96567 655.71588 182.554971 658.180076zM63.0414912 386.091828C62.6307919 388.556024 60.3719461 390.198821 57.9077506 389.788121 55.4435552 389.377422 53.8007582 387.118576 54.2114575 384.654381 54.6221567 382.190185 56.8810025 380.547388 59.345198 380.958088 61.8093934 381.368787 63.4521904 383.627633 63.0414912 386.091828zM237.17797 480.552654C236.76727 483.016849 234.508425 484.659646 232.044229 484.248947 229.580034 483.838248 227.937237 481.579402 228.347936 479.115206 228.758635 476.651011 231.017481 475.008214 233.481676 475.418913 235.945872 475.829612 237.588669 478.088458 237.17797 480.552654zM35.3902696 808.727254C34.9795703 811.191449 32.7207245 812.834246 30.2565291 812.423547 27.7923336 812.012848 26.1495366 809.754002 26.5602359 807.289806 26.9709351 804.825611 29.229781 803.182814 31.6939764 803.593513 34.1581719 804.004212 35.8009688 806.263058 35.3902696 808.727254zM274.398062 60.8007582C273.987363 63.2649537 271.728517 64.9077506 269.264322 64.4970514 266.800126 64.0863521 265.157329 61.8275063 265.568029 59.3633109 265.978728 56.8991154 268.237574 55.2563184 270.701769 55.6670177 273.165965 56.0777169 274.808762 58.5419124 274.398062 60.8007582zM139.707877 814.682393C139.297178 817.146588 137.038332 818.789385 134.574136 818.378686 132.109941 817.967987 130.467144 815.709141 130.877843 813.244945 131.288543 810.78075 133.547388 809.137953 136.011584 809.548652 138.27043 809.959351 139.913227 812.218197 139.707877 814.682393zM23.8906908 784.495998C23.4799916 786.960194 21.2211457 788.602991 18.7569503 788.192291 16.2927548 787.781592 14.6499579 785.522746 15.0606571 783.058551 15.4713564 780.594356 17.7302022 778.951559 20.1943976 779.362258 22.4532435 779.567607 24.3013901 782.031803 23.8906908 784.495998zM24.5067397 864.7877C24.0960404 867.251896 21.8371946 868.894693 19.3729992 868.483993 16.9088037 868.073294 15.2660067 865.814448 15.676706 863.350253 16.0874052 860.886057 18.3462511 859.24326 20.8104465 859.65396 23.274642 860.064659 24.9174389 862.323505 24.5067397 864.7877zM106.98631 492.462932C106.575611 494.927127 104.316765 496.569924 101.85257 496.159225 99.3883741 495.748526 97.7455771 493.48968 98.1562763 491.025484 98.5669756 488.561289 100.825821 486.918492 103.290017 487.329191 105.548863 487.73989 107.19166 489.998736 106.98631 492.462932zM95.6920809 161.233993C95.2813816 163.698189 93.0225358 165.546335 90.5583404 164.930286 88.0941449 164.519587 86.4513479 162.260741 86.6566976 159.796546 87.0673968 157.33235 89.3262426 155.484204 91.9957877 155.894903 94.4599832 156.510952 96.1027801 158.769798 95.6920809 161.233993zM242.722409 260.41786C242.31171 262.882056 240.052864 264.524853 237.383319 264.114153 234.919124 263.703454 233.070977 261.444608 233.481676 258.980413 233.892376 256.516217 236.151222 254.668071 238.820767 255.07877 241.490312 255.489469 243.133109 257.748315 242.722409 260.41786zM437.651011 98.3797388C437.240312 100.843934 434.981466 102.486731 432.311921 102.281382 429.847725 101.870682 427.999579 99.6118366 428.410278 96.9422915 428.820977 94.478096 431.079823 92.6299495 433.749368 93.0406487 436.418913 93.4513479 438.06171 95.9155434 437.651011 98.3797388zM69.612679 515.667439C69.2019798 518.131634 66.943134 519.979781 64.2735889 519.569082 61.8093934 519.158382 59.9612468 516.899537 60.3719461 514.229992 60.7826453 511.765796 63.0414912 509.91765 65.7110362 510.328349 68.3805813 510.739048 70.0233783 513.203243 69.612679 515.667439zM347.091828 119.120051C346.681129 121.584246 344.216933 123.432393 341.752738 123.021693 339.288543 122.610994 337.440396 120.352148 337.851095 117.682603 338.261794 115.218408 340.52064 113.370261 343.190185 113.78096 345.85973 114.397009 347.502527 116.655855 347.091828 119.120051zM54.4168071 735.391533C54.0061078 737.855729 51.747262 739.703875 49.0777169 739.293176 46.6135215 738.882477 44.7653749 736.418281 45.1760741 733.954086 45.5867734 731.48989 48.0509688 729.641744 50.5151643 730.052443 52.9793597 730.668492 54.8275063 732.927338 54.4168071 735.391533zM42.9172283 387.734625C42.5065291 390.198821 40.0423336 392.046967 37.5781382 391.636268 35.1139427 391.225569 33.2657961 388.761373 33.6764954 386.297178 34.0871946 383.832982 36.5513901 381.984836 39.0155855 382.395535 41.479781 382.806234 43.3279275 385.27043 42.9172283 387.734625zM239.642165 394.921862C239.231466 397.386057 236.76727 399.234204 234.303075 398.823505 231.83888 398.412805 229.990733 395.94861 230.401432 393.484414 230.812131 390.814869 233.276327 389.172072 235.740522 389.582772 238.410067 389.993471 240.052864 392.457666 239.642165 394.921862zM151.752527 292.247051C151.341828 294.916596 148.877633 296.559393 146.413437 296.148694 143.743892 295.737995 142.101095 293.273799 142.511794 290.604254 142.922494 287.934709 145.386689 286.291912 147.850885 286.702612 150.52043 287.113311 152.163227 289.577506 151.752527 292.247051zM173.930286 215.240944C173.519587 217.705139 171.055392 219.553286 168.591196 219.142586 165.921651 218.731887 164.278854 216.267692 164.689553 213.803496 165.100253 211.133951 167.564448 209.491154 170.028644 209.901853 172.492839 210.312553 174.340986 212.776748 173.930286 215.240944zM230.812131 329.415333C230.401432 331.879528 227.937237 333.727675 225.267692 333.316976 222.598147 332.906276 220.95535 330.442081 221.366049 327.977885 221.776748 325.51369 224.240944 323.665543 226.705139 324.076243 229.374684 324.281592 231.222831 326.745788 230.812131 329.415333zM167.769798 184.233151C167.359099 186.902696 164.894903 188.545493 162.225358 188.134794 159.555813 187.724094 157.913016 185.259899 158.323715 182.590354 158.734414 179.920809 161.19861 178.072662 163.868155 178.688711 166.33235 179.09941 168.180497 181.563606 167.769798 184.233151zM15.8110783 408.064238C15.4003791 410.733783 12.9361837 412.581929 10.2666386 411.96588 7.59709351 411.555181 5.95429655 409.090986 6.36499579 406.421441 6.77569503 403.751896 9.23989048 401.903749 11.9094356 402.314448 14.373631 402.930497 16.2217776 405.394693 15.8110783 408.064238zM197.340143 156.100253C196.929444 158.769798 194.465249 160.617944 191.795703 160.207245 189.126158 159.796546 187.278012 157.33235 187.894061 154.662805 188.30476 151.99326 190.768955 150.145114 193.4385 150.555813 195.902696 150.966512 197.750842 153.430708 197.340143 156.100253zM124.030329 614.440607C123.619629 617.110152 121.155434 618.958298 118.485889 618.547599 115.816344 618.1369 113.968197 615.672704 114.378896 613.003159 114.789596 610.333614 117.253791 608.485468 119.923336 608.896167 122.798231 609.306866 124.441028 611.771061 124.030329 614.440607zM267.159014 707.463985C266.748315 710.13353 264.28412 711.981676 261.614575 711.570977 258.945029 711.160278 257.096883 708.696083 257.507582 706.026537 257.918281 703.356992 260.382477 701.508846 263.052022 701.919545 265.721567 702.330244 267.569714 704.79444 267.159014 707.463985zM139.43155 465.151432C139.020851 467.820977 136.556655 469.669124 133.88711 469.258425 131.217565 468.847725 129.369419 466.38353 129.780118 463.713985 130.190817 461.04444 132.655013 459.196293 135.324558 459.606992 137.994103 460.017692 139.842249 462.481887 139.43155 465.151432zM155.038121 60.612679C154.627422 63.2822241 152.163227 65.1303707 149.493682 64.7196714 146.824136 64.3089722 144.97599 61.8447767 145.386689 59.1752317 145.797388 56.5056866 148.261584 54.65754 150.931129 55.0682393 153.600674 55.4789385 155.448821 57.943134 155.038121 60.612679zM188.09941 688.777169C187.688711 691.446714 185.019166 693.500211 182.349621 692.884162 179.680076 692.473463 177.62658 689.803917 178.242628 687.134372 178.653328 684.464827 181.322873 682.411331 183.992418 683.02738 186.661963 683.438079 188.51011 685.902275 188.09941 688.777169z"/>
    <path d="M158.734414 115.646377L143.333193 144.189975C143.127843 144.600674 143.333193 145.216723 143.743892 145.422072 144.154591 145.627422 144.77064 145.422072 144.97599 145.011373L160.377211 116.467776C160.582561 116.057077 160.377211 115.441028 159.966512 115.235678 159.555813 115.030329 159.145114 115.235678 158.734414 115.646377zM47.43492 549.550126L95.6920809 606.226622C96.1027801 606.637321 96.5134794 606.637321 97.1295282 606.431971 97.5402275 606.021272 97.5402275 605.610573 97.3348778 605.199874L49.0777169 548.523378C48.6670177 547.907329 48.0509688 547.907329 47.6402696 548.112679 47.2295703 548.523378 47.2295703 549.139427 47.43492 549.550126L47.43492 549.550126z"/>
    <path d="M78.6480623,596.780539 L49.0777169,548.523378 C48.6670177,547.907329 48.0509688,547.907329 47.6402696,548.112679 C47.2295703,548.318029 47.2295703,548.934078 47.43492,549.344777 L77.0052654,597.807287 C77.210615,598.217987 77.8266639,598.423336 78.2373631,598.012637 C78.6480623,597.807287 78.853412,597.191238 78.6480623,596.780539 Z"/>
    <path d="M49.0777169,549.344777 L67.5591828,509.7123 C67.7645324,509.301601 67.5591828,508.685552 67.1484836,508.480202 C66.7377843,508.274853 66.1217355,508.480202 65.9163858,508.890901 L47.43492,548.523378 C47.2295703,548.934078 47.43492,549.550126 47.8456192,549.755476 C48.2563184,549.960826 48.8723673,549.755476 49.0777169,549.344777 Z"/>
    <path d="M97.3348778,605.405223 L67.5591828,508.890901 C67.3538332,508.480202 66.943134,508.069503 66.3270851,508.274853 C65.9163858,508.480202 65.5056866,508.890901 65.7110362,509.50695 L95.4867313,605.815922 C95.6920809,606.431971 96.1027801,606.637321 96.718829,606.431971 C97.1295282,606.226622 97.3348778,605.815922 97.3348778,605.405223 L97.3348778,605.405223 Z"/>
    <path d="M78.6480623,597.191238 L67.5591828,509.301601 C67.5591828,508.685552 66.943134,508.480202 66.5324347,508.480202 C65.9163858,508.480202 65.7110362,509.096251 65.7110362,509.50695 L77.0052654,597.396588 C77.0052654,597.807287 77.6213142,598.217987 78.0320135,598.217987 C78.4427127,598.012637 78.853412,597.601938 78.6480623,597.191238 Z"/>
    <path d="M66.7377843,510.122999 L124.646377,494.311078 C125.057077,494.105729 125.467776,493.695029 125.262426,493.078981 C125.057077,492.668281 124.646377,492.257582 124.030329,492.462932 L66.1217355,508.274853 C65.5056866,508.480202 65.300337,508.890901 65.5056866,509.50695 C65.9163858,510.122999 66.3270851,510.328349 66.7377843,510.122999 Z"/>
    <path d="M125.467776,493.695029 L156.680918,409.707035 C156.886268,409.296335 156.680918,408.680286 156.064869,408.474937 C155.65417,408.269587 155.038121,408.474937 154.832772,409.090986 L123.619629,493.078981 C123.41428,493.48968 123.619629,494.105729 124.235678,494.311078 C124.646377,494.516428 125.262426,494.311078 125.467776,493.695029 Z"/>
    <path d="M176.189132,405.394693 L155.85952,408.474937 C155.243471,408.474937 154.832772,409.090986 155.038121,409.501685 C155.038121,410.117734 155.65417,410.323083 156.064869,410.323083 L156.064869,410.323083 L176.599832,407.242839 C177.21588,407.242839 177.42123,406.62679 177.42123,406.010741 C177.21588,405.600042 176.805181,405.189343 176.189132,405.394693 Z"/>
    <path d="M142.922494 435.581087L156.680918 409.912384C156.886268 409.501685 156.886268 408.885636 156.270219 408.680286 155.85952 408.474937 155.243471 408.680286 155.038121 409.090986L155.038121 409.090986 141.279697 434.554339C141.074347 435.170388 141.279697 435.581087 141.690396 435.991786 142.101095 436.197136 142.717144 435.991786 142.922494 435.581087zM259.971778 679.741786L332.049495 666.80476C332.665543 666.59941 333.076243 666.188711 332.870893 665.572662 332.665543 664.956613 332.254844 664.545914 331.638795 664.751264L331.638795 664.751264 259.766428 677.68829C259.150379 677.68829 258.945029 678.304339 258.945029 678.920388 258.945029 679.331087 259.355729 679.741786 259.971778 679.741786z"/>
    <path d="M142.717144 435.786436L177.010531 407.037489C177.42123 406.62679 177.42123 406.010741 177.21588 405.600042 176.805181 405.189343 176.189132 405.189343 175.778433 405.394693L175.778433 405.394693 141.485046 434.143639C141.074347 434.554339 141.074347 435.170388 141.485046 435.581087 141.690396 436.197136 142.306445 436.197136 142.717144 435.786436zM260.793176 678.920388L274.9623 630.252527C275.16765 629.636479 274.75695 629.02043 274.140901 629.02043 273.524853 628.81508 273.114153 629.225779 272.908804 629.841828L258.945029 678.509688C258.73968 679.125737 259.150379 679.536436 259.766428 679.741786 259.971778 679.741786 260.587826 679.536436 260.793176 678.920388zM200.009688 220.169334L280.09604 218.321188C280.712089 218.321188 281.122789 217.910489 281.122789 217.29444 281.122789 216.678391 280.712089 216.267692 280.09604 216.267692L200.009688 218.321188C199.393639 218.321188 198.98294 218.731887 198.98294 219.347936 198.98294 219.758635 199.598989 220.169334 200.009688 220.169334L200.009688 220.169334z"/>
    <path d="M159.350463 476.240312L177.21588 406.62679C177.42123 406.010741 177.010531 405.600042 176.394482 405.394693 175.778433 405.189343 175.367734 405.600042 175.162384 406.010741L157.296967 475.624263C157.296967 476.240312 157.502317 476.856361 158.118366 476.856361 158.734414 477.26706 159.350463 476.856361 159.350463 476.240312zM332.254844 664.956613L274.346251 629.225779C273.935552 628.81508 273.114153 629.02043 272.908804 629.431129 272.498104 630.047178 272.703454 630.663227 273.319503 630.868576L273.319503 630.868576 331.228096 666.59941C331.638795 666.80476 332.254844 666.80476 332.665543 666.188711 332.870893 665.778012 332.870893 665.161963 332.254844 664.956613L332.254844 664.956613z"/>
    <path d="M141.074347 435.375737L157.296967 476.445661C157.502317 477.06171 158.118366 477.26706 158.734414 477.06171 159.350463 476.856361 159.555813 476.240312 159.350463 475.624263L142.922494 434.554339C142.717144 433.93829 142.101095 433.73294 141.485046 433.93829 141.074347 434.348989 140.868997 434.965038 141.074347 435.375737L141.074347 435.375737zM190.152906 656.742628L274.140901 631.073926C274.75695 630.868576 274.9623 630.252527 274.75695 629.841828 274.551601 629.225779 273.935552 629.02043 273.319503 629.02043L273.319503 629.02043 189.331508 654.689132C188.715459 654.894482 188.51011 655.510531 188.715459 655.92123 189.126158 656.742628 189.742207 656.947978 190.152906 656.742628L190.152906 656.742628z"/>
    <path d="M131.833614,687.134372 L190.358256,656.742628 C190.768955,656.537279 191.179655,655.92123 190.768955,655.305181 C190.563606,654.894482 189.742207,654.689132 189.331508,654.894482 L130.806866,685.286226 C130.396167,685.491575 129.985468,686.107624 130.396167,686.723673 C130.601516,687.134372 131.422915,687.339722 131.833614,687.134372 Z"/>
    <path d="M173.108888 778.104254L190.974305 655.92123C190.974305 655.305181 190.563606 654.894482 190.152906 654.689132 189.536858 654.689132 189.126158 654.894482 188.920809 655.510531L171.055392 777.488206C171.055392 778.104254 171.466091 778.720303 171.87679 778.720303 172.492839 778.925653 172.903538 778.514954 173.108888 778.104254zM231.017481 522.854676L272.703454 630.457877C272.908804 631.073926 273.524853 631.279275 274.140901 631.073926 274.75695 630.868576 274.9623 630.252527 274.75695 629.841828L233.070977 522.238627C232.865628 521.622578 232.249579 521.417228 231.63353 521.622578 231.222831 521.827928 230.812131 522.443976 231.017481 522.854676z"/>
    <path d="M189.126158 656.537279L224.856992 689.598568C225.267692 690.009267 225.883741 690.009267 226.499789 689.598568 226.910489 689.187869 226.910489 688.57182 226.499789 688.16112L190.768955 655.099832C190.358256 654.689132 189.742207 654.689132 189.331508 655.099832 188.715459 655.510531 188.715459 656.12658 189.126158 656.537279zM130.396167 686.723673L171.055392 778.309604C171.260741 778.925653 171.87679 779.131003 172.492839 778.720303 173.108888 778.514954 173.314238 777.898905 173.108888 777.282856L132.449663 685.696925C132.244313 685.080876 131.628265 684.875527 131.012216 685.080876 130.396167 685.491575 130.190817 686.107624 130.396167 686.723673zM157.913016 476.856361L231.63353 523.470725C232.249579 523.676074 232.865628 523.676074 233.070977 523.060025 233.481676 522.649326 233.276327 521.827928 232.660278 521.622578L232.660278 521.622578 158.939764 475.213564C158.529065 474.802864 157.913016 475.008214 157.502317 475.418913 157.296967 476.034962 157.296967 476.651011 157.913016 476.856361zM280.30139 218.115838L372.092671 189.98294C372.708719 189.777591 372.914069 189.161542 372.708719 188.545493 372.50337 187.929444 371.887321 187.724094 371.271272 187.929444L279.479992 216.062342C278.863943 216.267692 278.658593 216.883741 278.863943 217.29444 279.274642 218.115838 279.890691 218.321188 280.30139 218.115838L280.30139 218.115838z"/>
    <path d="M190.358256 654.894482L138.610152 626.350885C138.199452 626.145535 137.378054 626.350885 137.172704 626.761584 136.967355 627.377633 137.172704 627.993682 137.583404 628.199031L189.331508 656.742628C189.742207 656.947978 190.358256 656.742628 190.768955 656.331929 191.179655 655.71588 190.974305 655.099832 190.358256 654.894482zM226.499789 689.598568L274.75695 630.868576C275.16765 630.457877 274.9623 629.841828 274.551601 629.431129 274.140901 629.02043 273.524853 629.02043 273.114153 629.636479L273.114153 629.636479 224.856992 688.36647C224.446293 688.777169 224.446293 689.598568 225.062342 689.803917 225.267692 690.009267 226.08909 690.009267 226.499789 689.598568z"/>
    <path d="M131.422915,687.339722 L225.678391,690.009267 C226.29444,690.009267 226.705139,689.393218 226.705139,688.982519 C226.705139,688.36647 226.29444,687.955771 225.678391,687.955771 L131.422915,685.286226 C130.806866,685.286226 130.396167,685.696925 130.396167,686.312974 C130.396167,686.723673 130.806866,687.134372 131.422915,687.339722 Z"/>
    <path d="M132.449663,686.312974 L139.226201,627.377633 C139.226201,626.761584 138.815501,626.350885 138.199452,626.145535 C137.583404,626.145535 137.172704,626.556234 136.967355,627.172283 L130.190817,686.107624 C130.190817,686.723673 130.601516,687.339722 131.217565,687.339722 C131.833614,687.339722 132.449663,686.929023 132.449663,686.312974 Z"/>
    <path d="M98.3616259 585.69166L137.172704 627.993682C137.583404 628.404381 138.199452 628.404381 138.815501 627.993682 139.226201 627.582982 139.226201 626.966933 138.815501 626.556234L99.7990733 584.254212C99.3883741 583.843513 98.7723252 583.843513 98.3616259 584.254212 97.9509267 584.664912 97.9509267 585.28096 98.3616259 585.69166zM172.903538 778.309604L226.499789 689.393218C226.705139 688.982519 226.499789 688.16112 226.08909 687.955771 225.473041 687.750421 224.856992 687.750421 224.651643 688.36647L171.055392 777.282856C170.850042 777.693555 170.850042 778.514954 171.466091 778.720303 172.08214 779.131003 172.698189 778.925653 172.903538 778.309604zM241.901011 314.219461L281.122789 217.705139C281.328138 217.08909 281.122789 216.473041 280.50674 216.267692 279.890691 216.062342 279.274642 216.267692 279.069292 216.883741L239.847515 313.398062C239.642165 314.014111 239.847515 314.63016 240.463564 314.83551 241.079612 315.040859 241.695661 314.63016 241.901011 314.219461L241.901011 314.219461zM231.685341 90.3711036L324.092671 11.5168492C324.50337 11.10615 324.708719 10.4901011 324.29802 10.0794019 323.887321 9.66870261 323.271272 9.66870261 322.655223 9.87405223L322.655223 9.87405223 230.453243 88.7283067C230.042544 89.1390059 230.042544 89.7550548 230.247894 90.165754 230.658593 90.5764532 231.274642 90.7818029 231.685341 90.3711036z"/>
    <path d="M241.079612 312.782013L182.96567 301.077085C182.349621 300.871735 181.733572 301.282435 181.733572 301.898484 181.528222 302.514532 181.938922 303.130581 182.554971 303.130581L182.554971 303.130581 240.668913 314.83551C241.284962 315.040859 241.901011 314.63016 241.901011 314.014111 242.106361 313.398062 241.695661 312.782013 241.079612 312.782013zM159.145114 475.418913L109.245156 416.278222C108.834457 415.867523 108.218408 415.662174 107.807709 416.072873 107.397009 416.483572 107.19166 417.099621 107.602359 417.71567L157.502317 476.651011C157.913016 477.06171 158.529065 477.06171 158.939764 476.856361 159.555813 476.445661 159.555813 475.829612 159.145114 475.418913zM231.069292 90.5764532L296.575821 87.7015586C297.19187 87.7015586 297.60257 87.0855097 297.60257 86.4694608 297.60257 85.853412 296.986521 85.4427127 296.370472 85.4427127L230.863943 88.3176074C230.247894 88.3176074 229.837195 88.9336563 229.837195 89.3443555 230.042544 90.165754 230.453243 90.5764532 231.069292 90.5764532z"/>
    <path d="M230.453243 90.5764532L265.568029 108.64722C266.184078 108.85257 266.800126 108.64722 267.005476 108.236521 267.210826 107.620472 267.005476 107.004423 266.594777 106.799073L231.479992 88.7283067C230.863943 88.522957 230.247894 88.7283067 230.042544 89.1390059 229.837195 89.5497051 230.042544 90.165754 230.453243 90.5764532zM183.171019 301.077085L106.575611 262.882056C105.959562 262.676706 105.343513 262.882056 105.138163 263.292755 104.932814 263.908804 105.138163 264.524853 105.548863 264.730202L182.144271 302.719882C182.76032 302.925232 183.376369 302.719882 183.581719 302.103833 183.992418 302.103833 183.787068 301.487784 183.171019 301.077085zM98.3616259 584.254212L51.9526116 631.689975C51.5419124 632.100674 51.5419124 632.922072 51.9526116 633.332772 52.3633109 633.743471 52.9793597 633.743471 53.5954086 633.332772L99.7990733 585.897009C100.209773 585.48631 100.209773 584.870261 99.7990733 584.459562 99.5937237 583.843513 98.7723252 583.843513 98.3616259 584.254212L98.3616259 584.254212z"/>
    <path d="M181.733572 301.898484L165.510952 390.198821C165.305602 390.814869 165.716302 391.430918 166.33235 391.430918 166.948399 391.636268 167.564448 391.225569 167.564448 390.60952L183.581719 302.309183C183.581719 301.693134 183.376369 301.077085 182.76032 301.077085 182.349621 301.077085 181.733572 301.282435 181.733572 301.898484zM82.3443555 583.638163L137.378054 628.199031C137.994103 628.404381 138.610152 628.404381 139.020851 627.993682 139.43155 627.582982 139.226201 626.761584 138.815501 626.556234L83.7818029 581.995366C83.3711036 581.584667 82.5497051 581.790017 82.3443555 582.200716 81.7283067 582.611415 81.9336563 583.227464 82.3443555 583.638163zM322.244524 10.2847515L295.549073 86.2641112C295.343724 86.8801601 295.754423 87.4962089 296.165122 87.7015586 296.781171 87.9069082 297.39722 87.4962089 297.60257 87.0855097L324.29802 11.10615C324.50337 10.4901011 324.092671 9.87405223 323.681971 9.66870261 323.065922 9.46335299 322.449874 9.66870261 322.244524 10.2847515zM26.6946083 324.486942L106.98631 264.935552C107.397009 264.524853 107.602359 263.908804 107.19166 263.498104 106.78096 263.087405 106.164912 262.882056 105.754212 263.292755L25.6678602 323.049495C25.2571609 323.460194 25.0518113 324.076243 25.4625105 324.486942 25.4625105 324.692291 26.283909 324.897641 26.6946083 324.486942L26.6946083 324.486942z"/>
    <path d="M25.0518113 323.460194L13.3468829 426.956403C13.3468829 427.572452 13.7575821 428.1885 14.373631 428.1885 14.9896799 428.1885 15.4003791 427.777801 15.6057287 427.161752L27.3106571 323.665543C27.3106571 323.049495 26.8999579 322.433446 26.283909 322.433446 25.6678602 322.638795 25.0518113 323.049495 25.0518113 323.460194zM226.29444 688.16112L199.598989 663.108467C199.18829 662.697767 198.366891 662.697767 197.956192 663.313816 197.545493 663.724516 197.545493 664.340564 197.956192 664.751264L224.651643 689.598568C225.062342 690.009267 225.883741 689.803917 226.29444 689.393218 226.705139 689.187869 226.705139 688.57182 226.29444 688.16112zM322.449874 10.0794019L265.157329 107.004423C264.95198 107.620472 264.95198 108.236521 265.568029 108.44187 265.978728 108.85257 266.800126 108.64722 267.005476 108.031171L324.29802 11.10615C324.50337 10.4901011 324.50337 9.87405223 323.887321 9.66870261 323.271272 9.46335299 322.655223 9.66870261 322.449874 10.0794019L322.449874 10.0794019zM233.070977 522.649326L233.892376 479.936605C233.892376 479.320556 233.481676 478.704507 232.865628 478.704507 232.249579 478.704507 231.63353 479.115206 231.63353 479.731255L231.017481 522.443976C231.017481 523.060025 231.42818 523.470725 232.044229 523.470725 232.660278 523.676074 233.070977 523.060025 233.070977 522.649326z"/>
    <path d="M177.62658 658.385425L225.062342 689.803917C225.473041 690.009267 226.29444 690.009267 226.499789 689.393218 226.705139 688.982519 226.705139 688.36647 226.29444 687.955771L178.858677 656.537279C178.242628 656.331929 177.62658 656.331929 177.42123 656.947978 177.010531 657.358677 177.21588 657.974726 177.62658 658.385425zM25.0518113 324.281592L57.702401 386.091828C57.9077506 386.707877 58.7291491 386.913227 59.1398484 386.502527 59.7558972 386.297178 59.9612468 385.475779 59.5505476 385.06508L59.5505476 385.06508 27.1053075 323.254844C26.8999579 322.844145 26.0785594 322.433446 25.6678602 322.844145 25.0518113 323.049495 24.8464617 323.665543 25.0518113 324.281592z"/>
    <path d="M178.858677 656.537279L138.610152 626.350885C138.199452 626.145535 137.378054 626.145535 137.172704 626.761584 136.762005 627.172283 136.967355 627.788332 137.378054 628.199031L177.42123 658.385425C178.037279 658.796125 178.653328 658.590775 178.858677 657.974726 179.474726 657.564027 179.474726 656.947978 178.858677 656.537279zM240.052864 312.987363L165.921651 389.788121C165.510952 390.198821 165.510952 390.814869 165.921651 391.225569 166.33235 391.636268 167.153749 391.636268 167.564448 391.225569L167.564448 391.225569 241.695661 314.42481C242.106361 314.014111 242.106361 313.398062 241.695661 312.987363 241.284962 312.576664 240.463564 312.576664 240.052864 312.987363zM231.685341 90.3711036L270.701769 61.0061078C271.112468 60.5954086 271.317818 59.9793597 270.907119 59.3633109 270.49642 58.9526116 269.880371 58.747262 269.469671 59.1579612L230.453243 88.522957C230.042544 88.9336563 229.837195 89.5497051 230.247894 89.9604044 230.453243 90.5764532 231.274642 90.7818029 231.685341 90.3711036zM295.959773 85.6480623L265.362679 106.593724C264.95198 107.004423 264.74663 107.620472 265.157329 108.236521 265.568029 108.64722 266.184078 108.85257 266.594777 108.44187L297.19187 87.4962089C297.60257 87.0855097 297.807919 86.4694608 297.39722 86.0587616 297.19187 85.4427127 296.575821 85.4427127 295.959773 85.6480623zM108.218408 415.867523L14.1682814 426.135004C13.5522325 426.135004 13.1415333 426.751053 13.1415333 427.367102 13.1415333 427.983151 13.7575821 428.39385 14.373631 428.39385L108.423757 418.126369C109.039806 418.126369 109.450505 417.51032 109.450505 416.894271 109.450505 416.278222 108.834457 415.867523 108.218408 415.867523zM82.1390059 582.200716L51.9526116 631.895324C51.5419124 632.511373 51.747262 633.127422 52.3633109 633.332772 52.9793597 633.743471 53.5954086 633.538121 53.8007582 632.922072L83.9871525 583.227464C84.3978517 582.611415 84.1925021 581.995366 83.5764532 581.790017 82.9604044 581.584667 82.3443555 581.584667 82.1390059 582.200716z"/>
    <path d="M322.655223 9.87405223L269.264322 59.3633109C268.853623 59.7740101 268.853623 60.5954086 269.264322 61.0061078 269.675021 61.4168071 270.29107 61.4168071 270.907119 61.0061078L324.092671 11.5168492C324.50337 11.10615 324.50337 10.4901011 324.092671 9.87405223 323.681971 9.46335299 323.065922 9.46335299 322.655223 9.87405223zM166.127001 389.582772L107.807709 416.072873C107.19166 416.278222 106.98631 416.894271 107.19166 417.51032 107.397009 418.126369 108.013058 418.331719 108.629107 418.126369L108.629107 418.126369 166.948399 391.636268C167.564448 391.430918 167.769798 390.814869 167.564448 390.198821 167.359099 389.582772 166.74305 389.172072 166.127001 389.582772z"/>
    <path d="M109.039806 416.072873L59.345198 384.449031C58.9344987 384.038332 58.1131003 384.243682 57.9077506 384.85973 57.4970514 385.27043 57.702401 386.091828 58.3184499 386.297178L108.013058 417.921019C108.629107 418.331719 109.245156 418.126369 109.655855 417.51032 109.655855 417.099621 109.450505 416.483572 109.039806 416.072873L109.039806 416.072873zM177.831929 658.590775L198.366891 664.956613C198.98294 665.161963 199.598989 664.751264 199.804339 664.135215 200.009688 663.519166 199.598989 663.108467 199.18829 662.697767L178.653328 656.12658C178.037279 655.92123 177.42123 656.331929 177.21588 656.947978 177.010531 657.769377 177.42123 658.385425 177.831929 658.590775z"/>
    <path d="M15.1950295 427.983151L59.5505476 386.297178C59.9612468 385.886479 59.9612468 385.06508 59.5505476 384.654381 59.1398484 384.243682 58.5237995 384.243682 57.9077506 384.654381L13.5522325 426.545703C13.1415333 426.956403 13.1415333 427.572452 13.5522325 428.1885 13.9629318 428.39385 14.5789806 428.39385 15.1950295 427.983151L15.1950295 427.983151zM297.39722 85.853412L270.907119 59.3633109C270.49642 58.9526116 269.675021 58.9526116 269.264322 59.3633109 268.853623 59.7740101 268.853623 60.5954086 269.264322 61.0061078L295.959773 87.4962089C296.370472 87.9069082 297.19187 87.9069082 297.60257 87.4962089 297.807919 87.0855097 297.807919 86.2641112 297.39722 85.853412L297.39722 85.853412z"/>
    <path d="M166.74305,389.377422 L58.7291491,384.243682 C58.1131003,384.243682 57.4970514,384.654381 57.4970514,385.27043 C57.4970514,385.886479 57.9077506,386.502527 58.5237995,386.502527 L166.5377,391.636268 C167.153749,391.636268 167.564448,391.225569 167.769798,390.60952 C167.769798,389.993471 167.359099,389.377422 166.74305,389.377422 Z"/>
    <path d="M233.687026 479.115206L167.564448 389.788121C167.153749 389.377422 166.5377 389.172072 166.127001 389.582772 165.716302 389.993471 165.510952 390.60952 165.921651 391.225569L165.921651 391.225569 232.044229 480.552654C232.454928 480.963353 233.070977 481.168703 233.687026 480.758003 234.097725 480.347304 234.097725 479.731255 233.687026 479.115206zM268.853623 60.1847094L264.95198 107.620472C264.95198 108.236521 265.362679 108.64722 265.978728 108.85257 266.594777 108.85257 267.005476 108.44187 267.210826 107.825821L271.112468 60.390059C271.112468 59.7740101 270.701769 59.1579612 270.08572 59.1579612 269.469671 58.9526116 268.853623 59.5686605 268.853623 60.1847094zM84.1925021 582.816765L103.700716 491.846883C103.906066 491.230834 103.495366 490.614785 102.879318 490.409436 102.263269 490.204086 101.64722 490.614785 101.44187 491.230834L101.44187 491.230834 82.1390059 582.200716C81.9336563 582.816765 82.3443555 583.432814 82.9604044 583.432814 83.3711036 583.843513 83.9871525 583.638163 84.1925021 582.816765zM237.17797 259.596462L239.847515 313.808762C239.847515 314.42481 240.463564 314.83551 240.874263 314.83551 241.490312 314.83551 241.901011 314.42481 241.901011 313.808762L239.436816 259.596462C239.436816 258.980413 238.820767 258.569714 238.204718 258.569714 237.588669 258.569714 237.17797 258.980413 237.17797 259.596462z"/>
    <path d="M107.397009 416.894271L101.44187 491.641533C101.44187 492.257582 101.85257 492.873631 102.468618 492.873631 103.084667 492.873631 103.700716 492.462932 103.700716 491.846883L109.655855 417.099621C109.655855 416.483572 109.245156 416.072873 108.629107 415.867523 108.013058 415.867523 107.397009 416.278222 107.397009 416.894271zM89.9422915 160.617944L104.932814 264.114153C105.138163 264.730202 105.548863 265.140901 106.164912 265.140901 106.78096 265.140901 107.19166 264.524853 107.19166 263.908804L92.2011373 160.412595C91.9957877 159.796546 91.5850885 159.385847 90.9690396 159.385847 90.3529907 159.591196 89.9422915 160.001896 89.9422915 160.617944zM31.0779275 809.137953L135.190185 815.093092C135.806234 815.093092 136.422283 814.682393 136.422283 814.066344 136.422283 813.450295 136.011584 812.834246 135.395535 812.834246L31.2832772 806.879107C30.6672283 806.879107 30.2565291 807.289806 30.0511794 808.111205 29.8458298 808.521904 30.4618787 809.137953 31.0779275 809.137953zM265.773378 108.64722L342.368787 119.53075C342.984836 119.53075 343.600885 119.120051 343.600885 118.504002 343.600885 117.887953 343.190185 117.271904 342.574136 117.271904L342.574136 117.271904 265.978728 106.593724C265.362679 106.388374 264.74663 107.004423 264.74663 107.620472 264.74663 108.031171 265.362679 108.64722 265.773378 108.64722z"/>
    <path d="M18.3462511,784.290649 L30.0511794,808.521904 C30.2565291,809.137953 31.0779275,809.343302 31.4886268,809.137953 C32.1046757,808.932603 32.3100253,808.316554 31.899326,807.700505 L20.1943976,783.46925 C20.1943976,782.647852 19.3729992,782.442502 18.7569503,782.647852 C18.3462511,783.058551 18.1409014,783.6746 18.3462511,784.290649 L18.3462511,784.290649 Z"/>
    <path d="M29.8458298 807.700505L18.7569503 863.760952C18.7569503 864.377001 18.9622999 864.99305 19.5783488 864.99305 20.1943976 865.198399 20.8104465 864.7877 20.8104465 864.171651L31.899326 808.111205C32.1046757 807.495156 31.6939764 806.879107 31.0779275 806.673757 30.6672283 806.879107 30.0511794 807.289806 29.8458298 807.700505L29.8458298 807.700505zM18.9622999 784.906698L134.779486 815.093092C135.395535 815.298441 136.011584 814.887742 136.216933 814.271693 136.422283 813.655644 136.011584 813.039596 135.395535 812.834246L19.5783488 782.647852C18.9622999 782.442502 18.3462511 782.853201 18.1409014 783.46925 18.1409014 784.085299 18.3462511 784.701348 18.9622999 784.906698z"/>
    <path d="M20.3997473 864.99305L135.600885 814.887742C136.216933 814.682393 136.422283 814.066344 136.216933 813.450295 136.011584 812.834246 135.395535 812.628896 134.779486 812.834246L19.5783488 862.939553C18.9622999 863.144903 18.7569503 863.760952 18.9622999 864.377001 19.1676495 864.99305 19.989048 865.403749 20.3997473 864.99305L20.3997473 864.99305zM50.9258635 734.775484L54.0061078 632.511373C54.0061078 631.895324 53.5954086 631.484625 52.9793597 631.279275 52.3633109 631.279275 51.747262 631.689975 51.747262 632.306024L48.6670177 734.775484C48.6670177 735.391533 49.0777169 736.007582 49.6937658 736.007582 50.3098147 735.802233 50.9258635 735.391533 50.9258635 734.775484z"/>
    <path d="M18.1409014 783.6746L18.7569503 863.966302C18.7569503 864.58235 19.3729992 864.99305 19.989048 864.99305 20.6050969 864.99305 21.0157961 864.58235 21.0157961 863.966302L20.3997473 783.6746C20.3997473 783.058551 19.7836984 782.647852 19.1676495 782.647852 18.7569503 782.647852 18.1409014 783.058551 18.1409014 783.6746zM15.1950295 427.777801L39.2209351 387.529275C39.6316344 386.913227 39.4262848 386.297178 38.8102359 385.886479 38.194187 385.475779 37.5781382 385.681129 37.1674389 386.297178L13.3468829 426.751053C12.9361837 427.367102 13.1415333 427.983151 13.7575821 428.1885 14.373631 428.39385 14.9896799 428.39385 15.1950295 427.777801L15.1950295 427.777801zM269.264322 61.0061078L341.958088 119.3254C342.574136 119.736099 343.190185 119.53075 343.600885 119.120051 344.011584 118.709351 344.011584 117.887953 343.395535 117.477254L270.701769 59.1579612C270.29107 58.747262 269.469671 58.747262 269.058972 59.3633109 268.648273 59.9793597 268.853623 60.5954086 269.264322 61.0061078zM101.85257 490.820135L64.4789385 513.819292C64.0682393 514.229992 63.8628896 514.84604 64.2735889 515.462089 64.6842881 515.872789 65.300337 516.078138 65.7110362 515.872789L102.879318 492.668281C103.290017 492.257582 103.495366 491.641533 103.290017 491.025484 103.084667 490.614785 102.263269 490.614785 101.85257 490.820135zM233.892376 479.936605L236.151222 394.305813C236.151222 393.689764 235.535173 393.073715 234.919124 393.073715 234.303075 393.073715 233.687026 393.484414 233.687026 394.100463L231.63353 479.731255C231.63353 480.347304 232.044229 480.758003 232.660278 480.758003 233.481676 480.963353 233.892376 480.552654 233.892376 479.936605z"/>
    <path d="M432.92797 96.5315922L342.368787 117.271904C341.752738 117.477254 341.342039 118.093302 341.547388 118.709351 341.752738 119.3254 342.368787 119.736099 342.984836 119.53075L433.544019 98.7904381C434.160067 98.5850885 434.570767 97.9690396 434.365417 97.3529907 434.160067 96.7369419 433.544019 96.3262426 432.92797 96.5315922zM37.3727885 387.529275L101.44187 492.257582C101.85257 492.873631 102.468618 492.873631 103.084667 492.668281 103.495366 492.257582 103.700716 491.641533 103.495366 491.025484L103.495366 491.025484 39.4262848 386.297178C39.0155855 385.681129 38.3995366 385.681129 37.7834878 385.886479 37.1674389 386.297178 36.9620893 387.118576 37.3727885 387.529275L37.3727885 387.529275zM147.440185 292.452401L238.615417 260.62321C239.231466 260.41786 239.436816 259.801811 239.231466 259.185762 239.026116 258.569714 238.410067 258.364364 237.794019 258.569714L146.618787 290.398905C146.002738 290.604254 145.592039 291.220303 146.002738 291.836352 146.208088 292.452401 146.824136 292.657751 147.440185 292.452401z"/>
    <path d="M168.591196,215.446293 L237.588669,260.62321 C238.204718,261.033909 238.820767,260.828559 239.231466,260.212511 C239.642165,259.596462 239.436816,258.980413 238.820767,258.569714 L169.823294,213.392797 C169.207245,212.982098 168.591196,213.187447 168.180497,213.803496 C167.975147,214.419545 167.975147,215.035594 168.591196,215.446293 Z"/>
    <path d="M227.115838 328.799284L239.231466 259.801811C239.231466 259.185762 238.820767 258.569714 238.204718 258.569714 237.588669 258.569714 236.97262 258.980413 236.97262 259.391112L224.651643 328.388585C224.651643 329.004634 225.062342 329.620682 225.678391 329.826032 226.499789 330.031382 227.115838 329.415333 227.115838 328.799284zM235.945872 393.484414L148.056234 290.604254C147.645535 290.193555 146.824136 289.988206 146.413437 290.398905 146.002738 290.809604 145.797388 291.631003 146.208088 292.041702L146.208088 292.041702 234.097725 394.716512C234.508425 395.127211 235.329823 395.332561 235.740522 394.921862 236.356571 394.716512 236.356571 393.895114 235.945872 393.484414z"/>
    <path d="M148.261584 291.836352L170.233993 214.830244C170.439343 214.214195 170.028644 213.598147 169.412595 213.392797 168.796546 213.187447 168.180497 213.598147 167.975147 214.214195L145.797388 291.220303C145.592039 291.836352 146.002738 292.452401 146.618787 292.657751 147.440185 292.657751 148.056234 292.452401 148.261584 291.836352L148.261584 291.836352zM236.151222 394.100463L227.115838 328.593934C227.115838 327.977885 226.499789 327.567186 225.883741 327.567186 225.267692 327.772536 224.856992 328.183235 224.856992 328.799284L233.892376 394.305813C233.892376 394.921862 234.508425 395.332561 235.124473 395.332561 235.740522 395.332561 236.356571 394.716512 236.151222 394.100463z"/>
    <path d="M226.499789,327.567186 L147.645535,290.398905 C147.029486,290.193555 146.413437,290.398905 146.002738,291.014954 C145.797388,291.631003 146.002738,292.247051 146.618787,292.657751 L225.473041,329.826032 C226.08909,330.031382 226.705139,329.826032 227.115838,329.209983 C227.321188,328.593934 227.115838,327.772536 226.499789,327.567186 Z"/>
    <path d="M227.115838 328.183235L170.233993 214.008846C170.028644 213.392797 169.207245 213.187447 168.591196 213.392797 167.975147 213.803496 167.769798 214.419545 167.975147 215.035594L224.856992 329.209983C225.062342 329.826032 225.883741 330.031382 226.499789 329.620682 227.115838 329.415333 227.321188 328.799284 227.115838 328.183235zM37.5781382 386.091828L10.2666386 406.421441C9.65058972 406.83214 9.65058972 407.653538 10.061289 408.064238 10.4719882 408.680286 11.0880371 408.680286 11.7040859 408.269587L39.0155855 387.939975C39.6316344 387.529275 39.6316344 386.707877 39.2209351 386.297178 38.8102359 385.681129 38.194187 385.681129 37.5781382 386.091828zM148.261584 291.631003L164.073505 183.617102C164.073505 183.001053 163.662805 182.385004 163.046757 182.179655 162.430708 182.179655 161.814659 182.590354 161.609309 183.206403L146.002738 291.220303C146.002738 291.836352 146.413437 292.452401 147.029486 292.452401 147.645535 292.657751 148.261584 292.247051 148.261584 291.631003L148.261584 291.631003z"/>
    <path d="M170.439343,214.214195 L164.278854,183.206403 C164.073505,182.590354 163.457456,182.179655 162.841407,182.385004 C162.225358,182.590354 161.814659,183.206403 162.020008,183.822452 L168.385847,214.830244 C168.591196,215.446293 169.207245,215.856992 169.823294,215.651643 C170.028644,215.446293 170.439343,214.830244 170.439343,214.214195 Z"/>
    <path d="M170.439343,215.035594 L193.8492,155.894903 C194.054549,155.278854 193.8492,154.457456 193.233151,154.252106 C192.617102,154.046757 192.001053,154.252106 191.590354,154.868155 L168.385847,214.214195 C168.180497,214.830244 168.385847,215.446293 169.001896,215.651643 C169.412595,215.856992 170.028644,215.446293 170.439343,215.035594 Z"/>
    <path d="M191.795703,154.457456 L162.225358,182.795703 C161.814659,183.206403 161.814659,184.027801 162.225358,184.4385 C162.636057,184.8492 163.457456,184.8492 163.868155,184.4385 L193.4385,156.305602 C193.8492,155.894903 193.8492,155.073505 193.4385,154.662805 C193.027801,153.841407 192.206403,153.841407 191.795703,154.457456 Z"/>
    <path d="M164.073505 183.411752L151.341828 59.7912805C151.341828 59.1752317 150.725779 58.5591828 149.904381 58.7645324 149.288332 58.7645324 148.672283 59.3805813 148.877633 59.9966302L161.609309 183.617102C161.814659 184.233151 162.225358 184.8492 163.046757 184.64385 163.662805 184.64385 164.278854 184.027801 164.073505 183.411752zM10.4719882 408.474937L134.09246 465.562131C134.708509 465.767481 135.529907 465.562131 135.735257 464.946083 135.940607 464.330034 135.735257 463.508635 135.119208 463.303286L135.119208 463.303286 11.4987363 406.216091C10.8826874 406.010741 10.2666386 406.216091 9.85593934 406.83214 9.65058972 407.448189 9.85593934 408.064238 10.4719882 408.474937z"/>
    <path d="M193.64385 154.662805L151.341828 59.1752317C151.136479 58.5591828 150.31508 58.3538332 149.699031 58.5591828 149.082982 58.7645324 148.877633 59.5859309 149.082982 60.2019798L191.385004 155.689553C191.590354 156.305602 192.411752 156.510952 193.027801 156.305602 193.64385 156.100253 193.8492 155.278854 193.64385 154.662805zM184.197767 687.134372L120.334035 612.79781C119.923336 612.181761 119.101938 612.181761 118.691238 612.59246 118.07519 613.003159 118.07519 613.824558 118.485889 614.235257L182.144271 688.57182C182.554971 689.187869 183.376369 689.187869 183.992418 688.57182 184.403117 688.36647 184.403117 687.545072 184.197767 687.134372z"/>
    <path d="M182.76032,689.187869 L262.025274,707.874684 C262.641323,708.080034 263.257372,707.669334 263.462721,707.053286 C263.668071,706.437237 263.257372,705.615838 262.641323,705.615838 L183.376369,686.929023 C182.76032,686.723673 181.938922,687.134372 181.938922,687.955771 C181.733572,688.36647 182.144271,688.982519 182.76032,689.187869 Z"/>
  </g>
</svg>
