<?xml version="1.0" encoding="UTF-8"?>
<svg width="233px" height="876px" viewBox="0 0 233 876" version="1.1" xmlns="http://www.w3.org/2000/svg" xmlns:xlink="http://www.w3.org/1999/xlink">
    <!-- Generator: Sketch 61 (89581) - https://sketch.com -->
    <title>blue_graphic_left</title>
    <desc>Created with Sketch.</desc>
    <g id="Page-1" stroke="none" stroke-width="1" fill="none" fill-rule="evenodd" opacity="0.45">
        <g id="JCTF_LP_1280px_HOME" transform="translate(0.000000, -950.000000)" fill="#3AADD4" fill-rule="nonzero">
            <g id="blue_graphic_left" transform="translate(-68.000000, 945.000000)">
                <path d="M170.234836,95.5902485 C170.029486,97.6437447 168.18134,98.8758425 166.127843,98.6704928 C164.074347,98.2597936 162.842249,96.6169966 163.047599,94.5635004 C163.458298,92.5100042 165.306445,91.2779065 167.154591,91.4832561 C169.208088,91.8939553 170.440185,93.7421019 170.234836,95.5902485 Z" id="Path"></path>
                <path d="M185.636057,67.0466512 C185.430708,69.1001474 183.377211,70.3322452 181.529065,70.1268955 C179.475569,69.9215459 178.243471,67.8680497 178.448821,66.0199031 C178.85952,63.9664069 180.707666,62.7343092 182.761163,62.9396588 C184.609309,63.1450084 186.046757,65.1985046 185.636057,67.0466512 Z" id="Path"></path>
                <path d="M138.200295,202.166702 C137.789596,204.220198 135.941449,205.452296 133.887953,205.246946 C131.834457,204.836247 130.602359,202.9881 130.807709,200.934604 C131.218408,198.881108 133.066554,197.64901 134.914701,197.85436 C136.968197,198.265059 138.405644,200.113206 138.200295,202.166702 Z" id="Path"></path>
                <path d="M150.726622,444.479254 C150.315922,446.532751 148.467776,448.175548 146.20893,447.764848 C144.155434,447.354149 142.717987,445.506003 142.923336,443.247157 C143.334035,441.19366 145.182182,439.756213 147.441028,439.961563 C149.699874,440.372262 151.137321,442.220409 150.726622,444.479254 Z" id="Path"></path>
                <path d="M182.145114,360.491259 C181.734414,362.544756 179.886268,364.187553 177.627422,363.776853 C175.573926,363.366154 174.136479,361.518008 174.341828,359.259162 C174.752527,357.205666 176.600674,355.562869 178.85952,355.973568 C180.913016,356.384267 182.350463,358.232414 182.145114,360.491259 Z" id="Path"></path>
                <path d="M286.052022,629.704612 C285.641323,631.963458 283.587826,633.400906 281.328981,633.195556 C279.070135,632.784857 277.632687,630.731361 278.043387,628.472515 C278.454086,626.213669 280.507582,624.776222 282.766428,625.186921 C285.025274,625.39227 286.462721,627.445767 286.052022,629.704612 Z" id="Path"></path>
                <path d="M202.680076,357.411015 C202.269377,359.669861 200.21588,361.107308 197.957035,360.901959 C195.698189,360.491259 194.260741,358.437763 194.671441,356.178917 C195.08214,353.920072 197.135636,352.482624 199.394482,352.687974 C201.653328,353.098673 203.090775,355.152169 202.680076,357.411015 Z" id="Path"></path>
                <path d="M168.592039,386.159962 C168.18134,388.418808 166.127843,389.856255 163.868997,389.650906 C161.610152,389.034857 159.967355,386.981361 160.378054,384.722515 C160.788753,382.463669 162.842249,381.026222 165.101095,381.231571 C167.359941,381.64227 168.797388,383.901116 168.592039,386.159962 Z" id="Path"></path>
                <path d="M216.4385,606.910805 C216.027801,609.16965 213.974305,610.812447 211.715459,610.401748 C209.456613,609.991049 207.813816,607.937553 208.224516,605.678707 C208.635215,603.419861 210.688711,601.777064 212.947557,602.187763 C215.206403,602.393113 216.8492,604.651959 216.4385,606.910805 Z" id="Path"></path>
                <path d="M300.426495,581.242102 C300.015796,583.500948 297.9623,585.143745 295.498104,584.733045 C293.239259,584.322346 291.596462,582.26885 292.007161,580.010004 C292.41786,577.751158 294.471356,576.108361 296.935552,576.519061 C299.194398,576.72441 300.837195,578.777906 300.426495,581.242102 Z" id="Path"></path>
                <path d="M157.913858,637.302548 C157.503159,639.561394 155.449663,641.204191 152.985468,640.793492 C150.726622,640.382793 149.083825,638.329297 149.494524,635.865101 C149.905223,633.606255 151.958719,631.963458 154.422915,632.374158 C156.681761,632.784857 158.324558,634.838353 157.913858,637.302548 Z" id="Path"></path>
                <path d="M185.020008,427.024537 C184.609309,429.283382 182.555813,430.926179 180.091618,430.51548 C177.832772,430.104781 176.189975,428.051285 176.600674,425.587089 C177.011373,423.328243 179.064869,421.685447 181.529065,422.096146 C183.787911,422.712195 185.430708,424.765691 185.020008,427.024537 Z" id="Path"></path>
                <path d="M258.740522,473.638901 C258.329823,475.897746 256.276327,477.540543 253.812131,477.129844 C251.553286,476.719145 249.910489,474.665649 250.321188,472.201453 C250.731887,469.942607 252.785383,468.29981 255.249579,468.71051 C257.508425,469.121209 259.151222,471.174705 258.740522,473.638901 Z" id="Path"></path>
                <path d="M209.456613,253.093408 C209.045914,255.352254 206.787068,256.995051 204.528222,256.584351 C202.269377,256.173652 200.62658,254.120156 201.037279,251.65596 C201.447978,249.397115 203.706824,247.754318 205.96567,248.165017 C208.224516,248.575716 209.661963,250.834562 209.456613,253.093408 Z" id="Path"></path>
                <path d="M198.573083,728.888479 C198.162384,731.352675 196.108888,732.790122 193.644693,732.379423 C191.385847,731.968724 189.74305,729.709878 190.153749,727.451032 C190.564448,725.192186 192.823294,723.549389 195.08214,723.960088 C197.340986,724.370788 198.983783,726.629634 198.573083,728.888479 Z" id="Path"></path>
                <path d="M252.169334,639.972094 C251.758635,642.436289 249.499789,643.873736 247.240944,643.463037 C244.982098,643.052338 243.339301,640.793492 243.75,638.534646 C244.160699,636.2758 246.214195,634.633003 248.678391,635.043703 C250.937237,635.454402 252.580034,637.507898 252.169334,639.972094 Z" id="Path"></path>
                <path d="M164.690396,578.367207 C164.279697,580.831403 162.020851,582.26885 159.762005,581.858151 C157.503159,581.447452 155.860362,579.188606 156.065712,576.92976 C156.476411,574.465564 158.735257,573.028117 160.994103,573.233467 C163.458298,573.849516 165.101095,575.903012 164.690396,578.367207 Z" id="Path"></path>
                <path d="M267.570556,264.798336 C267.159857,267.057182 264.901011,268.699979 262.642165,268.494629 C260.383319,268.08393 258.740522,265.825084 258.945872,263.566238 C259.356571,261.102043 261.615417,259.664596 263.874263,259.869945 C266.338458,260.280644 267.981255,262.334141 267.570556,264.798336 Z" id="Path"></path>
                <path d="M109.656698,533.80634 C109.245998,536.270535 106.987152,537.913332 104.728307,537.502633 C102.264111,537.091933 100.621314,534.833088 101.032013,532.574242 C101.442713,530.110046 103.701559,528.467249 105.960404,528.877949 C108.4246,529.083298 110.067397,531.342144 109.656698,533.80634 Z" id="Path"></path>
                <path d="M101.237363,876.740206 C100.826664,879.204402 98.567818,880.847199 96.1036226,880.4365 C93.6394271,880.0258 91.9966302,877.766955 92.4073294,875.302759 C92.8180286,872.838564 95.0768745,871.195767 97.5410699,871.606466 C100.005265,872.222515 101.648062,874.481361 101.237363,876.740206 Z" id="Path"></path>
                <path d="M135.120051,368.089195 C134.709351,370.553391 132.450505,372.196188 129.98631,371.785489 C127.522115,371.374789 125.879318,369.115944 126.290017,366.857098 C126.700716,364.392902 128.959562,362.750105 131.423757,363.160805 C133.887953,363.366154 135.53075,365.625 135.120051,368.089195 Z" id="Path"></path>
                <path d="M133.066554,215.103728 C132.655855,217.567923 130.397009,219.21072 127.932814,218.800021 C125.468618,218.389322 123.825821,216.130476 124.236521,213.666281 C124.64722,211.202085 126.906066,209.559288 129.370261,209.969987 C131.629107,210.380687 133.271904,212.639532 133.066554,215.103728 Z" id="Path"></path>
                <path d="M225.679233,615.124789 C225.268534,617.588985 223.009688,619.231782 220.545493,618.821083 C218.081297,618.410383 216.4385,616.151537 216.8492,613.687342 C217.259899,611.223147 219.518745,609.58035 221.98294,609.991049 C224.447136,610.401748 226.089933,612.660594 225.679233,615.124789 Z" id="Path"></path>
                <path d="M193.439343,341.599094 C193.028644,344.06329 190.769798,345.706087 188.305602,345.295388 C185.841407,344.884688 184.19861,342.625842 184.609309,340.161647 C185.020008,337.697452 187.278854,336.054655 189.74305,336.465354 C192.207245,336.876053 193.850042,339.134899 193.439343,341.599094 Z" id="Path"></path>
                <path d="M79.6756529,583.500948 C79.2649537,585.965143 77.0061078,587.60794 74.5419124,587.197241 C72.0777169,586.786542 70.43492,584.527696 70.8456192,582.0635 C71.2563184,579.599305 73.5151643,577.956508 75.9793597,578.367207 C78.4435552,578.777906 80.0863521,581.036752 79.6756529,583.500948 Z" id="Path"></path>
                <path d="M204.938922,608.553602 C204.528222,611.017797 202.269377,612.660594 199.805181,612.249895 C197.340986,611.839195 195.698189,609.58035 196.108888,607.116154 C196.519587,604.651959 198.778433,603.009162 201.242628,603.419861 C203.706824,603.83056 205.349621,606.089406 204.938922,608.553602 Z" id="Path"></path>
                <path d="M85.4254423,336.465354 C85.014743,338.929549 82.7558972,340.572346 80.2917018,340.161647 C77.8275063,339.750948 76.1847094,337.492102 76.5954086,335.027906 C77.0061078,332.563711 79.2649537,330.920914 81.7291491,331.331613 C84.1933446,331.742313 85.8361415,334.001158 85.4254423,336.465354 Z" id="Path"></path>
                <path d="M259.561921,430.926179 C259.151222,433.390375 256.892376,435.033172 254.42818,434.622473 C251.963985,434.211773 250.321188,431.952928 250.731887,429.488732 C251.142586,427.024537 253.401432,425.38174 255.865628,425.792439 C258.329823,426.203138 259.97262,428.461984 259.561921,430.926179 Z" id="Path"></path>
                <path d="M103.701559,797.064553 C103.290859,799.528749 101.032013,801.171546 98.567818,800.760847 C96.1036226,800.350147 94.4608256,798.091302 94.8715249,795.627106 C95.2822241,793.162911 97.5410699,791.520114 100.005265,791.930813 C102.469461,792.341512 104.112258,794.600358 103.701559,797.064553 Z" id="Path"></path>
                <path d="M129.370261,442.836457 C128.959562,445.300653 126.700716,446.94345 124.236521,446.532751 C121.772325,446.122051 120.129528,443.863206 120.540227,441.39901 C120.950927,438.934815 123.209773,437.292018 125.673968,437.702717 C127.932814,438.113416 129.575611,440.372262 129.370261,442.836457 Z" id="Path"></path>
                <path d="M118.076032,111.607519 C117.665333,114.071714 115.406487,115.919861 112.942291,115.303812 C110.478096,114.893113 108.835299,112.634267 109.040649,110.170072 C109.451348,107.705876 111.710194,105.85773 114.379739,106.268429 C116.843934,106.884478 118.486731,109.143324 118.076032,111.607519 Z" id="Path"></path>
                <path d="M265.106361,210.791386 C264.695661,213.255581 262.436816,214.898378 259.76727,214.487679 C257.303075,214.07698 255.454928,211.818134 255.865628,209.353939 C256.276327,206.889743 258.535173,205.041596 261.204718,205.452296 C263.874263,205.862995 265.51706,208.121841 265.106361,210.791386 Z" id="Path"></path>
                <path d="M91.9966302,466.040965 C91.5859309,468.50516 89.3270851,470.353307 86.65754,469.942607 C84.1933446,469.531908 82.345198,467.273062 82.7558972,464.603517 C83.1665965,462.139322 85.4254423,460.291175 88.0949874,460.701874 C90.7645324,461.112574 92.4073294,463.576769 91.9966302,466.040965 Z" id="Path"></path>
                <path d="M76.8007582,685.765059 C76.390059,688.229254 74.1312131,690.077401 71.4616681,689.666702 C68.9974726,689.256003 67.149326,686.791807 67.5600253,684.327612 C67.9707245,681.863416 70.43492,680.01527 72.8991154,680.425969 C75.3633109,681.042018 77.2114575,683.300864 76.8007582,685.765059 Z" id="Path"></path>
                <path d="M65.3011794,338.108151 C64.8904802,340.572346 62.4262848,342.420493 59.9620893,342.009794 C57.4978939,341.599094 55.6497473,339.134899 56.0604465,336.670703 C56.4711457,334.206508 58.9353412,332.358361 61.3995366,332.769061 C63.8637321,333.17976 65.7118787,335.643955 65.3011794,338.108151 Z" id="Path"></path>
                <path d="M262.026116,345.295388 C261.615417,347.759583 259.151222,349.60773 256.687026,349.19703 C254.222831,348.786331 252.374684,346.322136 252.785383,343.85794 C253.196083,341.188395 255.660278,339.545598 258.124473,339.956297 C260.794019,340.366997 262.436816,342.831192 262.026116,345.295388 Z" id="Path"></path>
                <path d="M174.136479,242.620577 C173.725779,245.290122 171.261584,246.932919 168.797388,246.52222 C166.127843,246.111521 164.485046,243.647325 164.895746,240.97778 C165.306445,238.308235 167.77064,236.665438 170.234836,237.076137 C172.904381,237.486837 174.547178,239.951032 174.136479,242.620577 Z" id="Path"></path>
                <path d="M196.314238,165.614469 C195.903538,168.078665 193.439343,169.926811 190.975147,169.516112 C188.305602,169.105413 186.662805,166.641217 187.073505,164.177022 C187.484204,161.507477 189.948399,159.86468 192.412595,160.275379 C194.87679,160.686078 196.724937,163.150274 196.314238,165.614469 Z" id="Path"></path>
                <path d="M253.196083,279.788858 C252.785383,282.253054 250.321188,284.101201 247.651643,283.690501 C244.982098,283.279802 243.339301,280.815607 243.75,278.351411 C244.160699,275.887216 246.624895,274.039069 249.08909,274.449768 C251.758635,274.655118 253.606782,277.119313 253.196083,279.788858 Z" id="Path"></path>
                <path d="M190.153749,134.606676 C189.74305,137.276222 187.278854,138.919019 184.609309,138.508319 C181.939764,138.09762 180.296967,135.633425 180.707666,132.96388 C181.118366,130.294334 183.582561,128.446188 186.252106,129.062237 C188.716302,129.472936 190.564448,131.937131 190.153749,134.606676 Z" id="Path"></path>
                <path d="M219.724094,106.473778 C219.313395,109.143324 216.8492,110.99147 214.179655,110.580771 C211.51011,110.170072 209.661963,107.705876 210.278012,105.036331 C210.688711,102.366786 213.152906,100.518639 215.822452,100.929339 C218.286647,101.340038 220.134794,103.804233 219.724094,106.473778 Z" id="Path"></path>
                <path d="M146.41428,564.814132 C146.00358,567.483677 143.539385,569.331824 140.86984,568.921125 C138.200295,568.510425 136.352148,566.04623 136.762848,563.376685 C137.173547,560.70714 139.637742,558.858993 142.307287,559.269693 C145.182182,559.680392 146.824979,562.144587 146.41428,564.814132 Z" id="Path"></path>
                <path d="M289.542965,657.837511 C289.132266,660.507056 286.668071,662.355202 283.998526,661.944503 C281.328981,661.533804 279.480834,659.069608 279.891533,656.400063 C280.302233,653.730518 282.766428,651.882372 285.435973,652.293071 C288.105518,652.70377 289.953665,655.167965 289.542965,657.837511 Z" id="Path"></path>
                <path d="M161.815501,415.524958 C161.404802,418.194503 158.940607,420.04265 156.271061,419.63195 C153.601516,419.221251 151.75337,416.757056 152.164069,414.087511 C152.574768,411.417965 155.038964,409.569819 157.708509,409.980518 C160.378054,410.391217 162.226201,412.855413 161.815501,415.524958 Z" id="Path"></path>
                <path d="M177.422072,10.9862047 C177.011373,13.6557498 174.547178,15.5038964 171.877633,15.0931971 C169.208088,14.6824979 167.359941,12.2183024 167.77064,9.54875737 C168.18134,6.8792123 170.645535,5.03106571 173.31508,5.44176495 C175.984625,5.8524642 177.832772,8.31665965 177.422072,10.9862047 Z" id="Path"></path>
                <path d="M210.483361,639.150695 C210.072662,641.82024 207.403117,643.873736 204.733572,643.257687 C202.064027,642.846988 200.010531,640.177443 200.62658,637.507898 C201.037279,634.838353 203.706824,632.784857 206.376369,633.400906 C209.045914,633.811605 210.894061,636.2758 210.483361,639.150695 Z" id="Path"></path>
                <path d="M181.118366,66.0199031 L165.717144,94.5635004 C165.511794,94.9741997 165.717144,95.5902485 166.127843,95.7955981 C166.538543,96.0009478 167.154591,95.7955981 167.359941,95.3848989 L182.761163,66.8413016 C182.966512,66.4306024 182.761163,65.8145535 182.350463,65.6092039 C181.939764,65.4038543 181.529065,65.6092039 181.118366,66.0199031 Z" id="Path"></path>
                <path d="M47.8464617,443.041807 L69.8188711,499.512953 C70.0242207,500.129002 70.6402696,500.129002 71.0509688,500.129002 C71.4616681,499.923652 71.6670177,499.307603 71.4616681,498.896904 L49.4892586,442.425758 C49.283909,442.015059 48.8732098,441.809709 48.2571609,442.015059 C47.8464617,442.015059 47.641112,442.425758 47.8464617,443.041807 Z" id="Path"></path>
                <path d="M69.8188711,499.923652 L118.076032,556.600147 C118.486731,557.010847 118.89743,557.010847 119.513479,556.805497 C119.924179,556.394798 119.924179,555.984099 119.718829,555.573399 L71.4616681,498.896904 C71.0509688,498.280855 70.43492,498.280855 70.0242207,498.486205 C69.6135215,498.896904 69.6135215,499.512953 69.8188711,499.923652 L69.8188711,499.923652 Z" id="Path"></path>
                <path d="M101.032013,547.154065 L71.4616681,498.896904 C71.0509688,498.280855 70.43492,498.280855 70.0242207,498.486205 C69.6135215,498.691554 69.6135215,499.307603 69.8188711,499.718302 L99.3892165,548.180813 C99.5945661,548.591512 100.210615,548.796862 100.621314,548.386163 C101.032013,548.180813 101.237363,547.564764 101.032013,547.154065 Z" id="Path"></path>
                <path d="M71.4616681,499.718302 L89.943134,460.085826 C90.1484836,459.675126 89.943134,459.059078 89.5324347,458.853728 C89.1217355,458.648378 88.5056866,458.853728 88.300337,459.264427 L69.8188711,498.896904 C69.6135215,499.307603 69.8188711,499.923652 70.2295703,500.129002 C70.6402696,500.334351 71.2563184,500.129002 71.4616681,499.718302 Z" id="Path"></path>
                <path d="M119.718829,555.778749 L89.943134,459.264427 C89.7377843,458.853728 89.3270851,458.443029 88.7110362,458.648378 C88.300337,458.853728 87.8896377,459.264427 88.0949874,459.880476 L117.870682,556.189448 C118.076032,556.805497 118.486731,557.010847 119.10278,556.805497 C119.513479,556.600147 119.718829,556.189448 119.718829,555.778749 L119.718829,555.778749 Z" id="Path"></path>
                <path d="M101.032013,547.564764 L89.943134,459.675126 C89.943134,459.059078 89.3270851,458.853728 88.9163858,458.853728 C88.300337,458.853728 88.0949874,459.469777 88.0949874,459.880476 L99.3892165,547.770114 C99.3892165,548.180813 100.005265,548.591512 100.415965,548.591512 C100.826664,548.386163 101.237363,547.975463 101.032013,547.564764 Z" id="Path"></path>
                <path d="M89.1217355,460.496525 L147.030329,444.684604 C147.441028,444.479254 147.851727,444.068555 147.646377,443.452506 C147.441028,443.041807 147.030329,442.631108 146.41428,442.836457 L88.5056866,458.648378 C87.8896377,458.853728 87.6842881,459.264427 87.8896377,459.880476 C88.300337,460.496525 88.7110362,460.701874 89.1217355,460.496525 Z" id="Path"></path>
                <path d="M88.9163858,458.648378 L2.13162821e-14,454.541386 L2.13162821e-14,456.594882 L88.7110362,460.701874 C89.3270851,460.701874 89.7377843,460.291175 89.7377843,459.675126 C89.943134,459.059078 89.5324347,458.648378 88.9163858,458.648378 Z" id="Path"></path>
                <path d="M147.851727,444.068555 L179.064869,360.08056 C179.270219,359.669861 179.064869,359.053812 178.448821,358.848463 C178.038121,358.643113 177.422072,358.848463 177.216723,359.464511 L146.00358,443.452506 C145.798231,443.863206 146.00358,444.479254 146.619629,444.684604 C147.030329,444.889954 147.646377,444.684604 147.851727,444.068555 Z" id="Path"></path>
                <path d="M198.573083,355.768218 L178.243471,358.848463 C177.627422,358.848463 177.216723,359.464511 177.422072,359.875211 C177.422072,360.491259 178.038121,360.696609 178.448821,360.696609 L178.448821,360.696609 L198.983783,357.616365 C199.599832,357.616365 199.805181,357.000316 199.805181,356.384267 C199.599832,355.973568 199.189132,355.562869 198.573083,355.768218 Z" id="Path"></path>
                <path d="M165.306445,385.954612 L179.064869,360.28591 C179.270219,359.875211 179.270219,359.259162 178.65417,359.053812 C178.243471,358.848463 177.627422,359.053812 177.422072,359.464511 L177.422072,359.464511 L163.663648,384.927864 C163.458298,385.543913 163.663648,385.954612 164.074347,386.365312 C164.485046,386.570661 165.101095,386.365312 165.306445,385.954612 Z" id="Path"></path>
                <path d="M164.279697,384.311816 L51.9534541,401.355834 C51.3374052,401.561184 50.926706,401.971883 51.1320556,402.587932 C51.1320556,403.203981 51.7481045,403.61468 52.3641533,403.40933 L52.3641533,403.40933 L164.690396,386.365312 C165.306445,386.365312 165.511794,385.749263 165.511794,385.133214 C165.306445,384.722515 164.895746,384.311816 164.279697,384.311816 Z" id="Path"></path>
                <path d="M165.101095,386.159962 L199.394482,357.411015 C199.805181,357.000316 199.805181,356.384267 199.599832,355.973568 C199.189132,355.562869 198.573083,355.562869 198.162384,355.768218 L198.162384,355.768218 L163.868997,384.517165 C163.458298,384.927864 163.458298,385.543913 163.868997,385.954612 C164.074347,386.570661 164.690396,386.570661 165.101095,386.159962 Z" id="Path"></path>
                <path d="M105.755055,711.228412 L0.205349621,753.325084 L0.205349621,755.58393 L106.781803,713.281908 C107.397852,713.076559 107.603201,712.46051 107.397852,711.844461 C106.987152,711.228412 106.371104,711.023062 105.755055,711.228412 Z" id="Path"></path>
                <path d="M283.177127,629.293913 L297.346251,580.626053 C297.551601,580.010004 297.140901,579.393955 296.524853,579.393955 C295.908804,579.188606 295.498104,579.599305 295.292755,580.215354 L281.328981,628.883214 C281.123631,629.499263 281.53433,629.909962 282.150379,630.115312 C282.355729,630.115312 282.971778,629.909962 283.177127,629.293913 Z" id="Path"></path>
                <path d="M181.734414,426.613837 L199.599832,357.000316 C199.805181,356.384267 199.394482,355.973568 198.778433,355.768218 C198.162384,355.562869 197.751685,355.973568 197.546335,356.384267 L179.680918,425.997789 C179.680918,426.613837 179.886268,427.229886 180.502317,427.229886 C181.118366,427.640586 181.734414,427.229886 181.734414,426.613837 Z" id="Path"></path>
                <path d="M163.458298,385.749263 L179.680918,426.819187 C179.886268,427.435236 180.502317,427.640586 181.118366,427.435236 C181.734414,427.229886 181.939764,426.613837 181.734414,425.997789 L165.306445,384.927864 C165.101095,384.311816 164.485046,384.106466 163.868997,384.311816 C163.458298,384.722515 163.252949,385.338564 163.458298,385.749263 L163.458298,385.749263 Z" id="Path"></path>
                <path d="M212.536858,607.116154 L296.524853,581.447452 C297.140901,581.242102 297.346251,580.626053 297.140901,580.215354 C296.935552,579.599305 296.319503,579.393955 295.703454,579.393955 L295.703454,579.393955 L211.715459,605.062658 C211.09941,605.268008 210.894061,605.884056 211.09941,606.294756 C211.51011,607.116154 212.126158,607.321504 212.536858,607.116154 L212.536858,607.116154 Z" id="Path"></path>
                <path d="M154.217565,637.507898 L212.742207,607.116154 C213.152906,606.910805 213.563606,606.294756 213.152906,605.678707 C212.947557,605.268008 212.126158,605.062658 211.715459,605.268008 L153.190817,635.659751 C152.780118,635.865101 152.369419,636.48115 152.780118,637.097199 C152.985468,637.507898 153.806866,637.713248 154.217565,637.507898 Z" id="Path"></path>
                <path d="M195.492839,728.47778 L213.358256,606.294756 C213.358256,605.678707 212.947557,605.268008 212.536858,605.062658 C211.920809,605.062658 211.51011,605.268008 211.30476,605.884056 L193.439343,727.861731 C193.439343,728.47778 193.850042,729.093829 194.260741,729.093829 C194.87679,729.299179 195.287489,728.888479 195.492839,728.47778 Z" id="Path"></path>
                <path d="M253.401432,473.228201 L295.087405,580.831403 C295.292755,581.447452 295.908804,581.652801 296.524853,581.447452 C297.140901,581.242102 297.346251,580.626053 297.140901,580.215354 L255.454928,472.612152 C255.249579,471.996104 254.63353,471.790754 254.017481,471.996104 C253.606782,472.201453 253.196083,472.817502 253.401432,473.228201 Z" id="Path"></path>
                <path d="M211.51011,606.910805 L247.240944,639.972094 C247.651643,640.382793 248.267692,640.382793 248.883741,639.972094 C249.29444,639.561394 249.29444,638.945345 248.883741,638.534646 L213.152906,605.473357 C212.742207,605.062658 212.126158,605.062658 211.715459,605.473357 C211.09941,605.884056 211.09941,606.500105 211.51011,606.910805 Z" id="Path"></path>
                <path d="M152.780118,637.097199 L193.439343,728.68313 C193.644693,729.299179 194.260741,729.504528 194.87679,729.093829 C195.492839,728.888479 195.698189,728.27243 195.492839,727.656382 L154.833614,636.070451 C154.628265,635.454402 154.012216,635.249052 153.396167,635.454402 C152.780118,635.865101 152.574768,636.48115 152.780118,637.097199 Z" id="Path"></path>
                <path d="M180.296967,427.229886 L254.017481,473.84425 C254.63353,474.0496 255.249579,474.0496 255.454928,473.433551 C255.865628,473.022852 255.660278,472.201453 255.044229,471.996104 L255.044229,471.996104 L181.323715,425.587089 C180.913016,425.17639 180.296967,425.38174 179.886268,425.792439 C179.680918,426.408488 179.680918,427.024537 180.296967,427.229886 Z" id="Path"></path>
                <path d="M212.742207,605.268008 L160.994103,576.72441 C160.583404,576.519061 159.762005,576.72441 159.556655,577.13511 C159.351306,577.751158 159.556655,578.367207 159.967355,578.572557 L211.715459,607.116154 C212.126158,607.321504 212.742207,607.116154 213.152906,606.705455 C213.563606,606.089406 213.358256,605.473357 212.742207,605.268008 Z" id="Path"></path>
                <path d="M248.883741,639.972094 L297.140901,581.242102 C297.551601,580.831403 297.346251,580.215354 296.935552,579.804655 C296.524853,579.393955 295.908804,579.393955 295.498104,580.010004 L295.498104,580.010004 L247.240944,638.739996 C246.830244,639.150695 246.830244,639.972094 247.446293,640.177443 C247.651643,640.382793 248.473041,640.382793 248.883741,639.972094 Z" id="Path"></path>
                <path d="M153.806866,637.713248 L248.062342,640.382793 C248.678391,640.382793 249.08909,639.766744 249.08909,639.356045 C249.08909,638.739996 248.678391,638.329297 248.062342,638.329297 L153.806866,635.659751 C153.190817,635.659751 152.780118,636.070451 152.780118,636.6865 C152.780118,637.097199 153.190817,637.507898 153.806866,637.713248 Z" id="Path"></path>
                <path d="M154.833614,636.6865 L161.610152,577.751158 C161.610152,577.13511 161.199452,576.72441 160.583404,576.519061 C159.967355,576.519061 159.556655,576.92976 159.351306,577.545809 L152.574768,636.48115 C152.574768,637.097199 152.985468,637.713248 153.601516,637.713248 C154.217565,637.713248 154.833614,637.302548 154.833614,636.6865 Z" id="Path"></path>
                <path d="M120.745577,536.065185 L159.556655,578.367207 C159.967355,578.777906 160.583404,578.777906 161.199452,578.367207 C161.610152,577.956508 161.610152,577.340459 161.199452,576.92976 L122.183024,534.627738 C121.772325,534.217039 121.156276,534.217039 120.745577,534.627738 C120.334878,535.038437 120.334878,535.654486 120.745577,536.065185 Z" id="Path"></path>
                <path d="M195.287489,728.68313 L248.883741,639.766744 C249.08909,639.356045 248.883741,638.534646 248.473041,638.329297 C247.856992,638.123947 247.240944,638.123947 247.035594,638.739996 L193.439343,727.656382 C193.233993,728.067081 193.233993,728.888479 193.850042,729.093829 C194.466091,729.504528 195.08214,729.299179 195.287489,728.68313 Z" id="Path"></path>
                <path d="M263.463564,263.155539 L205.349621,251.450611 C204.733572,251.245261 204.117523,251.65596 204.117523,252.272009 C203.912174,252.888058 204.322873,253.504107 204.938922,253.504107 L204.938922,253.504107 L263.052864,265.209035 C263.668913,265.414385 264.284962,265.003686 264.284962,264.387637 C264.490312,263.771588 264.079612,263.155539 263.463564,263.155539 Z" id="Path"></path>
                <path d="M181.529065,425.792439 L131.629107,366.651748 C131.218408,366.241049 130.602359,366.035699 130.19166,366.446398 C129.78096,366.857098 129.575611,367.473147 129.98631,368.089195 L179.886268,427.024537 C180.296967,427.435236 180.913016,427.435236 181.323715,427.229886 C181.939764,426.819187 181.939764,426.203138 181.529065,425.792439 Z" id="Path"></path>
                <path d="M205.554971,251.450611 L128.959562,213.255581 C128.343513,213.050232 127.727464,213.255581 127.522115,213.666281 C127.316765,214.282329 127.522115,214.898378 127.932814,215.103728 L204.528222,253.093408 C205.144271,253.298757 205.76032,253.093408 205.96567,252.477359 C206.376369,252.477359 206.171019,251.86131 205.554971,251.450611 Z" id="Path"></path>
                <path d="M120.745577,534.627738 L74.3365628,582.0635 C73.9258635,582.4742 73.9258635,583.295598 74.3365628,583.706297 C74.747262,584.116997 75.3633109,584.116997 75.9793597,583.706297 L122.183024,536.270535 C122.593724,535.859836 122.593724,535.243787 122.183024,534.833088 C121.977675,534.217039 121.156276,534.217039 120.745577,534.627738 L120.745577,534.627738 Z" id="Path"></path>
                <path d="M204.117523,252.272009 L187.894903,340.572346 C187.689553,341.188395 188.100253,341.804444 188.716302,341.804444 C189.33235,342.009794 189.948399,341.599094 189.948399,340.983045 L205.96567,252.682709 C205.96567,252.06666 205.76032,251.450611 205.144271,251.450611 C204.733572,251.450611 204.117523,251.65596 204.117523,252.272009 Z" id="Path"></path>
                <path d="M104.728307,534.011689 L159.762005,578.572557 C160.378054,578.777906 160.994103,578.777906 161.404802,578.367207 C161.815501,577.956508 161.610152,577.13511 161.199452,576.92976 L106.165754,532.368892 C105.755055,531.958193 104.933656,532.163543 104.728307,532.574242 C104.112258,532.984941 104.317607,533.60099 104.728307,534.011689 Z" id="Path"></path>
                <path d="M49.0785594,274.860468 L129.370261,215.309078 C129.78096,214.898378 129.98631,214.282329 129.575611,213.87163 C129.164912,213.460931 128.548863,213.255581 128.138163,213.666281 L48.0518113,273.42302 C47.641112,273.833719 47.4357624,274.449768 47.8464617,274.860468 C47.8464617,275.065817 48.6678602,275.271167 49.0785594,274.860468 L49.0785594,274.860468 Z" id="Path"></path>
                <path d="M248.678391,638.534646 L221.98294,613.481992 C221.572241,613.071293 220.750842,613.071293 220.340143,613.687342 C219.929444,614.098041 219.929444,614.71409 220.340143,615.124789 L247.035594,639.972094 C247.446293,640.382793 248.267692,640.177443 248.678391,639.766744 C249.08909,639.561394 249.08909,638.945345 248.678391,638.534646 Z" id="Path"></path>
                <path d="M255.454928,473.022852 L256.276327,430.310131 C256.276327,429.694082 255.865628,429.078033 255.249579,429.078033 C254.63353,429.078033 254.017481,429.488732 254.017481,430.104781 L253.401432,472.817502 C253.401432,473.433551 253.812131,473.84425 254.42818,473.84425 C255.044229,474.0496 255.454928,473.433551 255.454928,473.022852 Z" id="Path"></path>
                <path d="M200.010531,608.758951 L247.446293,640.177443 C247.856992,640.382793 248.678391,640.382793 248.883741,639.766744 C249.08909,639.356045 249.08909,638.739996 248.678391,638.329297 L201.242628,606.910805 C200.62658,606.705455 200.010531,606.705455 199.805181,607.321504 C199.394482,607.732203 199.599832,608.348252 200.010531,608.758951 Z" id="Path"></path>
                <path d="M47.4357624,274.655118 L80.0863521,336.465354 C80.2917018,337.081403 81.1131003,337.286752 81.5237995,336.876053 C82.1398484,336.670703 82.345198,335.849305 81.9344987,335.438606 L81.9344987,335.438606 L49.4892586,273.62837 C49.283909,273.217671 48.4625105,272.806971 48.0518113,273.217671 C47.4357624,273.42302 47.2304128,274.039069 47.4357624,274.655118 Z" id="Path"></path>
                <path d="M201.242628,606.910805 L160.994103,576.72441 C160.583404,576.519061 159.762005,576.519061 159.556655,577.13511 C159.145956,577.545809 159.351306,578.161858 159.762005,578.572557 L199.805181,608.758951 C200.42123,609.16965 201.037279,608.964301 201.242628,608.348252 C201.858677,607.937553 201.858677,607.321504 201.242628,606.910805 Z" id="Path"></path>
                <path d="M262.436816,263.360889 L188.305602,340.161647 C187.894903,340.572346 187.894903,341.188395 188.305602,341.599094 C188.716302,342.009794 189.5377,342.009794 189.948399,341.599094 L189.948399,341.599094 L264.079612,264.798336 C264.490312,264.387637 264.490312,263.771588 264.079612,263.360889 C263.668913,262.95019 262.847515,262.95019 262.436816,263.360889 Z" id="Path"></path>
                <path d="M130.602359,366.241049 L36.5522325,376.50853 C35.9361837,376.50853 35.5254844,377.124579 35.5254844,377.740628 C35.5254844,378.356676 36.1415333,378.767376 36.7575821,378.767376 L130.807709,368.499895 C131.423757,368.499895 131.834457,367.883846 131.834457,367.267797 C131.834457,366.651748 131.218408,366.241049 130.602359,366.241049 Z" id="Path"></path>
                <path d="M104.522957,532.574242 L74.3365628,582.26885 C73.9258635,582.884899 74.1312131,583.500948 74.747262,583.706297 C75.3633109,584.116997 75.9793597,583.911647 76.1847094,583.295598 L106.371104,533.60099 C106.781803,532.984941 106.576453,532.368892 105.960404,532.163543 C105.344356,531.958193 104.728307,531.958193 104.522957,532.574242 Z" id="Path"></path>
                <path d="M188.510952,339.956297 L130.19166,366.446398 C129.575611,366.651748 129.370261,367.267797 129.575611,367.883846 C129.78096,368.499895 130.397009,368.705244 131.013058,368.499895 L131.013058,368.499895 L189.33235,342.009794 C189.948399,341.804444 190.153749,341.188395 189.948399,340.572346 C189.74305,339.956297 189.127001,339.545598 188.510952,339.956297 Z" id="Path"></path>
                <path d="M131.423757,366.446398 L81.7291491,334.822557 C81.3184499,334.411858 80.4970514,334.617207 80.2917018,335.233256 C79.8810025,335.643955 80.0863521,336.465354 80.702401,336.670703 L130.397009,368.294545 C131.013058,368.705244 131.629107,368.499895 132.039806,367.883846 C132.039806,367.473147 131.834457,366.857098 131.423757,366.446398 L131.423757,366.446398 Z" id="Path"></path>
                <path d="M200.21588,608.964301 L220.750842,615.330139 C221.366891,615.535489 221.98294,615.124789 222.18829,614.508741 C222.393639,613.892692 221.98294,613.481992 221.572241,613.071293 L201.037279,606.500105 C200.42123,606.294756 199.805181,606.705455 199.599832,607.321504 C199.394482,608.142902 199.805181,608.758951 200.21588,608.964301 Z" id="Path"></path>
                <path d="M98.1571188,876.124158 L100.621314,796.448505 C100.621314,795.832456 100.210615,795.421757 99.5945661,795.421757 C98.9785173,795.421757 98.3624684,795.832456 98.3624684,796.448505 L98.3624684,796.448505 L95.898273,876.124158 C95.898273,876.740206 96.3089722,877.150906 96.9250211,877.356255 C97.5410699,877.150906 98.1571188,876.740206 98.1571188,876.124158 Z" id="Path"></path>
                <path d="M37.5789806,378.356676 L81.9344987,336.670703 C82.345198,336.260004 82.345198,335.438606 81.9344987,335.027906 C81.5237995,334.617207 80.9077506,334.617207 80.2917018,335.027906 L35.9361837,376.919229 C35.5254844,377.329928 35.5254844,377.945977 35.9361837,378.562026 C36.3468829,378.767376 36.9629318,378.767376 37.5789806,378.356676 L37.5789806,378.356676 Z" id="Path"></path>
                <path d="M189.127001,339.750948 L81.1131003,334.617207 C80.4970514,334.617207 79.8810025,335.027906 79.8810025,335.643955 C79.8810025,336.260004 80.2917018,336.876053 80.9077506,336.876053 L188.921651,342.009794 C189.5377,342.009794 189.948399,341.599094 190.153749,340.983045 C190.153749,340.366997 189.74305,339.750948 189.127001,339.750948 Z" id="Path"></path>
                <path d="M256.070977,429.488732 L189.948399,340.161647 C189.5377,339.750948 188.921651,339.545598 188.510952,339.956297 C188.100253,340.366997 187.894903,340.983045 188.305602,341.599094 L188.305602,341.599094 L254.42818,430.926179 C254.83888,431.336879 255.454928,431.542228 256.070977,431.131529 C256.481676,430.72083 256.481676,430.104781 256.070977,429.488732 Z" id="Path"></path>
                <path d="M106.576453,533.190291 L126.084667,442.220409 C126.290017,441.60436 125.879318,440.988311 125.263269,440.782961 C124.64722,440.577612 124.031171,440.988311 123.825821,441.60436 L123.825821,441.60436 L104.522957,532.574242 C104.317607,533.190291 104.728307,533.80634 105.344356,533.80634 C105.755055,534.217039 106.371104,534.011689 106.576453,533.190291 Z" id="Path"></path>
                <path d="M259.561921,209.969987 L262.231466,264.182287 C262.231466,264.798336 262.847515,265.209035 263.258214,265.209035 C263.874263,265.209035 264.284962,264.798336 264.284962,264.182287 L261.820767,209.969987 C261.820767,209.353939 261.204718,208.943239 260.588669,208.943239 C259.97262,208.943239 259.561921,209.353939 259.561921,209.969987 Z" id="Path"></path>
                <path d="M129.78096,367.267797 L123.825821,442.015059 C123.825821,442.631108 124.236521,443.247157 124.85257,443.247157 C125.468618,443.247157 126.084667,442.836457 126.084667,442.220409 L132.039806,367.473147 C132.039806,366.857098 131.629107,366.446398 131.013058,366.241049 C130.397009,366.241049 129.78096,366.651748 129.78096,367.267797 Z" id="Path"></path>
                <path d="M112.326243,110.99147 L127.316765,214.487679 C127.522115,215.103728 127.932814,215.514427 128.548863,215.514427 C129.164912,215.514427 129.575611,214.898378 129.575611,214.282329 L114.585088,110.78612 C114.379739,110.170072 113.96904,109.759372 113.352991,109.759372 C112.736942,109.964722 112.326243,110.375421 112.326243,110.99147 Z" id="Path"></path>
                <path d="M33.061289,849.634056 L96.5143218,877.150906 C97.1303707,877.356255 97.7464195,877.150906 97.9517692,876.534857 C98.1571188,875.918808 97.9517692,875.508109 97.3357203,875.302759 L33.8826874,847.58056 C33.2666386,847.375211 32.6505897,847.58056 32.4452401,848.196609 C32.2398905,848.812658 32.4452401,849.428707 33.061289,849.634056 Z" id="Path"></path>
                <path d="M73.3098147,685.14901 L76.390059,582.884899 C76.390059,582.26885 75.9793597,581.858151 75.3633109,581.652801 C74.747262,581.652801 74.1312131,582.0635 74.1312131,582.679549 L71.0509688,685.14901 C71.0509688,685.765059 71.4616681,686.381108 72.0777169,686.381108 C72.6937658,686.175758 73.3098147,685.765059 73.3098147,685.14901 Z" id="Path"></path>
                <path d="M34.0880371,849.428707 L100.005265,797.269903 C100.415965,796.859204 100.415965,796.243155 100.005265,795.627106 C99.5945661,795.216407 98.9785173,795.216407 98.567818,795.421757 L32.6505897,847.58056 C32.2398905,847.991259 32.0345409,848.607308 32.4452401,849.223357 C33.061289,849.839406 33.6773378,849.839406 34.0880371,849.428707 Z" id="Path"></path>
                <path d="M75.1579612,581.652801 L0.205349621,588.429339 L0.205349621,590.688184 L75.3633109,583.911647 C75.9793597,583.911647 76.390059,583.295598 76.1847094,582.679549 C76.1847094,582.0635 75.7740101,581.652801 75.1579612,581.652801 Z" id="Path"></path>
                <path d="M124.236521,441.19366 L86.8628896,464.192818 C86.4521904,464.603517 86.2468408,465.219566 86.65754,465.835615 C87.0682393,466.246314 87.6842881,466.451664 88.0949874,466.246314 L125.263269,443.041807 C125.673968,442.631108 125.879318,442.015059 125.673968,441.39901 C125.468618,440.988311 124.64722,440.988311 124.236521,441.19366 Z" id="Path"></path>
                <path d="M256.276327,430.310131 L258.535173,344.679339 C258.535173,344.06329 257.919124,343.447241 257.303075,343.447241 C256.687026,343.447241 256.070977,343.85794 256.070977,344.473989 L254.017481,430.104781 C254.017481,430.72083 254.42818,431.131529 255.044229,431.131529 C255.865628,431.336879 256.276327,430.926179 256.276327,430.310131 Z" id="Path"></path>
                <path d="M59.7567397,337.902801 L123.825821,442.631108 C124.236521,443.247157 124.85257,443.247157 125.468618,443.041807 C125.879318,442.631108 126.084667,442.015059 125.879318,441.39901 L125.879318,441.39901 L61.8102359,336.670703 C61.3995366,336.054655 60.7834878,336.054655 60.1674389,336.260004 C59.5513901,336.670703 59.3460404,337.492102 59.7567397,337.902801 L59.7567397,337.902801 Z" id="Path"></path>
                <path d="M169.824136,242.825927 L260.999368,210.996735 C261.615417,210.791386 261.820767,210.175337 261.615417,209.559288 C261.410067,208.943239 260.794019,208.73789 260.17797,208.943239 L169.002738,240.77243 C168.386689,240.97778 167.97599,241.593829 168.386689,242.209878 C168.592039,242.825927 169.208088,243.031276 169.824136,242.825927 Z" id="Path"></path>
                <path d="M190.975147,165.819819 L259.97262,210.996735 C260.588669,211.407435 261.204718,211.202085 261.615417,210.586036 C262.026116,209.969987 261.820767,209.353939 261.204718,208.943239 L192.207245,163.766323 C191.591196,163.355623 190.975147,163.560973 190.564448,164.177022 C190.359099,164.793071 190.359099,165.40912 190.975147,165.819819 Z" id="Path"></path>
                <path d="M249.499789,279.17281 L261.615417,210.175337 C261.615417,209.559288 261.204718,208.943239 260.588669,208.943239 C259.97262,208.943239 259.356571,209.353939 259.356571,209.764638 L247.035594,278.76211 C247.035594,279.378159 247.446293,279.994208 248.062342,280.199558 C248.883741,280.404907 249.499789,279.788858 249.499789,279.17281 Z" id="Path"></path>
                <path d="M72.8991154,684.327612 L0.205349621,614.098041 L0.205349621,617.383635 L71.4616681,685.970409 C71.8723673,686.381108 72.6937658,686.381108 73.104465,685.970409 C73.3098147,685.35436 73.3098147,684.738311 72.8991154,684.327612 Z" id="Path"></path>
                <path d="M258.329823,343.85794 L170.440185,240.97778 C170.029486,240.567081 169.208088,240.361731 168.797388,240.77243 C168.386689,241.18313 168.18134,242.004528 168.592039,242.415227 L168.592039,242.415227 L256.481676,345.090038 C256.892376,345.500737 257.713774,345.706087 258.124473,345.295388 C258.740522,345.090038 258.740522,344.268639 258.329823,343.85794 Z" id="Path"></path>
                <path d="M170.645535,242.209878 L192.617944,165.20377 C192.823294,164.587721 192.412595,163.971672 191.796546,163.766323 C191.180497,163.560973 190.564448,163.971672 190.359099,164.587721 L168.18134,241.593829 C167.97599,242.209878 168.386689,242.825927 169.002738,243.031276 C169.824136,243.031276 170.440185,242.825927 170.645535,242.209878 L170.645535,242.209878 Z" id="Path"></path>
                <path d="M258.535173,344.473989 L249.499789,278.96746 C249.499789,278.351411 248.883741,277.940712 248.267692,277.940712 C247.651643,278.146061 247.240944,278.556761 247.240944,279.17281 L256.276327,344.679339 C256.276327,345.295388 256.892376,345.706087 257.508425,345.706087 C258.124473,345.706087 258.740522,345.090038 258.535173,344.473989 Z" id="Path"></path>
                <path d="M248.883741,277.940712 L170.029486,240.77243 C169.413437,240.567081 168.797388,240.77243 168.386689,241.388479 C168.18134,242.004528 168.386689,242.620577 169.002738,243.031276 L247.856992,280.199558 C248.473041,280.404907 249.08909,280.199558 249.499789,279.583509 C249.705139,278.96746 249.499789,278.146061 248.883741,277.940712 Z" id="Path"></path>
                <path d="M249.499789,278.556761 L192.617944,164.382372 C192.412595,163.766323 191.591196,163.560973 190.975147,163.766323 C190.359099,164.177022 190.153749,164.793071 190.359099,165.40912 L247.240944,279.583509 C247.446293,280.199558 248.267692,280.404907 248.883741,279.994208 C249.499789,279.788858 249.705139,279.17281 249.499789,278.556761 Z" id="Path"></path>
                <path d="M170.645535,242.004528 L186.457456,133.990628 C186.457456,133.374579 186.046757,132.75853 185.430708,132.55318 C184.814659,132.55318 184.19861,132.96388 183.99326,133.579928 L168.386689,241.593829 C168.386689,242.209878 168.797388,242.825927 169.413437,242.825927 C170.029486,243.031276 170.645535,242.620577 170.645535,242.004528 L170.645535,242.004528 Z" id="Path"></path>
                <path d="M192.823294,164.587721 L186.662805,133.579928 C186.457456,132.96388 185.841407,132.55318 185.225358,132.75853 C184.609309,132.96388 184.19861,133.579928 184.40396,134.195977 L190.769798,165.20377 C190.975147,165.819819 191.591196,166.230518 192.207245,166.025168 C192.412595,165.819819 192.823294,165.20377 192.823294,164.587721 Z" id="Path"></path>
                <path d="M192.823294,165.40912 L216.233151,106.268429 C216.4385,105.65238 216.233151,104.830981 215.617102,104.625632 C215.001053,104.420282 214.385004,104.625632 213.974305,105.241681 L190.769798,164.587721 C190.564448,165.20377 190.769798,165.819819 191.385847,166.025168 C191.796546,166.230518 192.412595,165.819819 192.823294,165.40912 Z" id="Path"></path>
                <path d="M214.179655,104.830981 L184.609309,133.169229 C184.19861,133.579928 184.19861,134.401327 184.609309,134.812026 C185.020008,135.222725 185.841407,135.222725 186.252106,134.812026 L215.822452,106.679128 C216.233151,106.268429 216.233151,105.44703 215.822452,105.036331 C215.411752,104.214933 214.590354,104.214933 214.179655,104.830981 Z" id="Path"></path>
                <path d="M186.457456,133.785278 L173.725779,10.1648062 C173.725779,9.54875737 173.10973,8.93270851 172.288332,9.13805813 C171.672283,9.13805813 171.056234,9.75410699 171.261584,10.3701559 L183.99326,133.990628 C184.19861,134.606676 184.609309,135.222725 185.430708,135.017376 C186.046757,135.017376 186.662805,134.401327 186.457456,133.785278 Z" id="Path"></path>
                <path d="M32.8559393,358.848463 L156.476411,415.935657 C157.09246,416.141007 157.913858,415.935657 158.119208,415.319608 C158.324558,414.703559 158.119208,413.882161 157.503159,413.676811 L157.503159,413.676811 L33.8826874,356.589617 C33.2666386,356.384267 32.6505897,356.589617 32.2398905,357.205666 C32.0345409,357.821714 32.2398905,358.437763 32.8559393,358.848463 Z" id="Path"></path>
                <path d="M216.027801,105.036331 L173.725779,9.54875737 C173.52043,8.93270851 172.699031,8.72735889 172.082982,8.93270851 C171.466933,9.13805813 171.261584,9.95945661 171.466933,10.5755055 L213.768955,106.063079 C213.974305,106.679128 214.795703,106.884478 215.411752,106.679128 C216.027801,106.473778 216.233151,105.65238 216.027801,105.036331 Z" id="Path"></path>
                <path d="M206.581719,637.507898 L142.717987,563.171335 C142.307287,562.555286 141.485889,562.555286 141.07519,562.965986 C140.459141,563.376685 140.459141,564.198083 140.86984,564.608783 L204.528222,638.945345 C204.938922,639.561394 205.76032,639.561394 206.376369,638.945345 C206.787068,638.739996 206.787068,637.918597 206.581719,637.507898 Z" id="Path"></path>
                <path d="M205.144271,639.561394 L284.409225,658.24821 C285.025274,658.453559 285.641323,658.04286 285.846672,657.426811 C286.052022,656.810762 285.641323,655.989364 285.025274,655.989364 L205.76032,637.302548 C205.144271,637.097199 204.322873,637.507898 204.322873,638.329297 C204.117523,638.739996 204.528222,639.356045 205.144271,639.561394 Z" id="Path"></path>
            </g>
        </g>
    </g>
</svg>