<svg xmlns="http://www.w3.org/2000/svg" width="451" height="541" viewBox="0 0 451 541">
  <g fill="#3AADD4" opacity=".45" transform="translate(-5 -5)">
    <path d="M326.455 169.705C325.195 168.025 325.615 165.715 327.295 164.455 328.975 163.195 331.285 163.615 332.545 165.295 333.805 166.975 333.385 169.285 331.705 170.545 329.815 171.805 327.505 171.385 326.455 169.705zM270.35 145.779217C269.09 144.099217 269.51 141.579217 271.19 140.319217 272.87 139.059217 275.39 139.479217 276.65 141.159217 277.91 142.839217 277.49 145.359217 275.81 146.619217 273.92 147.879217 271.61 147.669217 270.35 145.779217zM196.35 139.81C195.09 138.13 195.51 135.61 197.19 134.35 198.87 133.09 201.39 133.51 202.65 135.19 203.91 136.87 203.49 139.39 201.81 140.65 200.13 141.91 197.61 141.49 196.35 139.81zM215.35 131.81C214.09 130.13 214.51 127.61 216.19 126.35 217.87 125.09 220.39 125.51 221.65 127.19 222.91 128.87 222.49 131.39 220.81 132.65 218.92 133.91 216.4 133.49 215.35 131.81zM285.245 186.734332C283.985 185.054332 284.405 182.534332 286.085 181.274332 287.975 180.014332 290.285 180.434332 291.755 182.114332 293.015 184.004332 292.595 186.314332 290.915 187.574332 289.025 189.044332 286.505 188.624332 285.245 186.734332zM255.245 238.915C253.985 237.025 254.405 234.715 256.085 233.245 257.765 231.985 260.285 232.405 261.755 234.085 263.015 235.975 262.595 238.285 260.915 239.755 259.025 241.015 256.505 240.595 255.245 238.915zM293.245 319.839332C291.985 318.159332 292.405 315.429332 294.085 314.169332 295.975 312.909332 298.285 313.329332 299.755 315.009332 301.015 316.899332 300.595 319.419332 298.915 320.679332 297.025 322.149332 294.505 321.729332 293.245 319.839332zM358.245 119.839332C356.985 117.949332 357.405 115.639332 359.085 114.169332 360.765 112.909332 363.285 113.329332 364.755 115.009332 366.015 116.689332 365.595 119.209332 363.915 120.679332 362.025 122.149332 359.505 121.729332 358.245 119.839332zM352.14 200.944332C350.88 199.054332 351.3 196.324332 352.98 195.064332 354.87 193.804332 357.39 194.224332 358.86 195.904332 360.12 197.794332 359.7 200.314332 358.02 201.784332 356.13 203.254332 353.4 202.834332 352.14 200.944332zM280.185683 336.990014C278.715683 335.100014 279.345683 332.580014 281.025683 331.110014 282.915683 329.640014 285.645683 330.270014 286.905683 331.950014 288.165683 333.840014 287.745683 336.360014 286.065683 337.830014 284.175683 339.300014 281.445683 338.880014 280.185683 336.990014zM284.064332 292.02C282.804332 290.13 283.224332 287.61 284.904332 286.14 286.794332 284.67 289.314332 285.09 290.784332 286.98 292.254332 288.87 291.834332 291.39 289.944332 292.86 288.054332 294.33 285.534332 293.91 284.064332 292.02zM412.169986 139.02C410.699986 137.13 411.119986 134.4 413.009986 133.14 414.899986 131.67 417.419986 132.09 418.889986 133.98 420.359986 135.87 419.729986 138.39 418.049986 139.86 416.159986 141.33 413.429986 140.91 412.169986 139.02zM93.9231563 170.095018C92.4531563 168.205018 92.8731563 165.475018 94.9731563 164.005018 96.8631563 162.535018 99.5931563 162.955018 101.063156 165.055018 102.533156 166.945018 102.113156 169.675018 100.223156 171.145018 97.9131563 172.405018 95.3931563 171.985018 93.9231563 170.095018zM53.0708875 248.095018C51.6008875 246.205018 52.0208875 243.475018 53.9108875 242.005018 55.8008875 240.535018 58.5308875 240.955018 60.0008875 243.055018 61.4708875 244.945018 60.8408875 247.675018 58.9508875 249.145018 57.2708875 250.405018 54.5408875 249.985018 53.0708875 248.095018zM113.93 107.095018C112.46 105.205018 112.88 102.475018 114.98 101.005018 116.87 99.5350182 119.6 99.9550182 121.07 102.055018 122.54 103.945018 122.12 106.675018 120.02 108.145018 117.92 109.405018 115.19 108.985018 113.93 107.095018zM340.923156 544.095018C339.453156 542.205018 339.873156 539.475018 341.973156 538.005018 343.863156 536.535018 346.593156 536.955018 348.063156 539.055018 349.533156 540.945018 349.113156 543.675018 347.223156 545.145018 344.913156 546.405018 342.183156 545.985018 340.923156 544.095018zM243.848138 275.095018C242.588138 273.205018 243.008138 270.475018 244.898138 269.005018 246.788138 267.535018 249.518138 267.955018 250.988138 270.055018 252.458138 271.945018 252.038138 274.675018 250.148138 276.145018 248.048138 277.405018 245.318138 276.985018 243.848138 275.095018zM208.959044 156.095018C207.489044 154.205018 207.909044 151.475018 210.009044 150.005018 211.899044 148.535018 214.629044 148.955018 216.099044 151.055018 217.569044 152.945018 216.939044 155.675018 215.049044 157.145018 213.159044 158.405018 210.429044 157.985018 208.959044 156.095018zM159.041844 294.095018C157.571844 292.205018 157.991844 289.475018 159.881844 288.005018 161.771844 286.535018 164.501844 286.955018 165.971844 289.055018 167.441844 290.945018 167.021844 293.675018 164.921844 295.145018 163.241844 296.405018 160.511844 295.985018 159.041844 294.095018zM349.93 415.095018C348.46 413.205018 348.88 410.475018 350.98 409.005018 352.87 407.535018 355.6 407.955018 357.07 410.055018 358.54 411.945018 358.12 414.675018 356.02 416.145018 354.13 417.405018 351.4 416.985018 349.93 415.095018zM21.035 71.0950182C19.565 69.2050182 19.985 66.4750182 21.875 65.0050182 23.765 63.5350182 26.495 63.9550182 27.965 66.0550182 29.435 67.9450182 29.015 70.6750182 27.125 72.1450182 25.235 73.4050182 22.505 72.9850182 21.035 71.0950182zM45.93 172.095018C44.46 170.205018 44.88 167.475018 46.98 166.005018 48.87 164.535018 51.6 164.955018 53.07 167.055018 54.54 168.945018 54.12 171.675018 52.02 173.145018 50.13 174.405018 47.19 173.985018 45.93 172.095018zM444.93 289.095018C443.46 287.205018 443.88 284.265018 445.98 283.005018 447.87 281.535018 450.6 281.955018 452.07 284.055018 453.54 285.945018 453.12 288.675018 451.02 290.145018 449.13 291.405018 446.4 290.985018 444.93 289.095018zM150.93 154.095018C149.46 152.205018 149.88 149.265018 151.98 148.005018 153.87 146.535018 156.6 146.955018 158.07 149.055018 159.54 150.945018 159.12 153.885018 157.02 155.145018 155.13 156.405018 152.4 155.985018 150.93 154.095018zM299.825 448.02C298.355 446.13 298.775 443.19 300.875 441.93 302.765 440.46 305.705 440.88 307.175 442.98 308.645 444.87 308.225 447.81 306.125 449.07 304.025 450.54 301.085 450.12 299.825 448.02zM221.825 146.200018C220.355 144.100018 220.775 141.370018 222.875 139.900018 224.765 138.430018 227.705 138.850018 229.175 140.950018 230.645 142.840018 230.225 145.780018 228.125 147.250018 226.025 148.510018 223.295 148.090018 221.825 146.200018zM320.825 281.125C319.355 279.235 319.775 276.295 321.875 274.825 323.765 273.355 326.705 273.775 328.175 275.875 329.645 277.975 329.225 280.705 327.125 282.175 325.025 283.645 322.295 283.225 320.825 281.125zM430.825 388.154044C429.355 386.054044 429.775 383.324044 431.875 381.854044 433.975 380.384044 436.705 380.804044 438.175 382.904044 439.645 385.004044 439.225 387.734044 437.125 389.204044 435.235 390.674044 432.295 390.044044 430.825 388.154044zM379.825 208.125C378.355 206.025 378.775 203.295 380.875 201.825 382.975 200.355 385.705 200.775 387.175 202.875 388.645 204.975 388.225 207.705 386.125 209.175 384.025 210.645 381.295 210.225 379.825 208.125zM81.825 171.200018C80.355 169.100018 80.775 166.370018 82.875 164.900018 84.975 163.430018 87.705 163.850018 89.175 165.950018 90.645 168.050018 90.225 170.780018 88.125 172.250018 86.025 173.510018 83.295 173.090018 81.825 171.200018zM297.825 341.125C296.355 339.025 296.775 336.295 298.875 334.825 300.765 333.355 303.705 333.775 305.175 335.875 306.645 337.975 306.225 340.705 304.125 342.175 302.025 343.645 299.085 343.225 297.825 341.125zM207.825 90.125C206.355 88.025 206.775 85.295 208.875 83.825 210.975 82.355 213.705 82.775 215.175 84.875 216.645 86.975 216.225 89.705 214.125 91.175 212.235 92.645 209.295 92.225 207.825 90.125zM100.825 161.125C99.355 159.025 99.775 156.295 101.875 154.825 103.975 153.355 106.705 153.775 108.175 155.875 109.645 157.975 109.225 160.705 107.125 162.175 105.235 163.645 102.295 163.225 100.825 161.125zM377.825 269.125C376.355 267.025 376.775 264.295 378.875 262.825 380.975 261.355 383.705 261.775 385.175 263.875 386.645 265.975 386.225 268.705 384.125 270.175 382.025 271.645 379.295 271.225 377.825 269.125zM187.825 325.125C186.355 323.025 186.775 320.295 188.875 318.825 190.975 317.355 193.915 317.775 195.175 319.875 196.645 321.975 196.225 324.705 194.125 326.175 192.235 327.645 189.295 327.225 187.825 325.125zM271.72 224.23C270.25 222.13 270.67 219.19 272.77 217.72 274.87 216.25 277.81 216.67 279.28 218.77 280.75 220.87 280.33 223.81 278.23 225.28 276.13 226.75 273.19 226.33 271.72 224.23zM339.72 485.23C338.25 483.13 338.67 480.19 340.77 478.72 342.87 477.25 345.81 477.67 347.28 479.77 348.75 481.87 348.33 484.81 346.23 486.28 344.13 487.75 341.19 487.33 339.72 485.23z"/>
    <path d="M281.72 182.23C280.25 180.13 280.67 177.19 282.77 175.72 284.87 174.25 287.81 174.67 289.28 176.77 290.75 178.87 290.33 181.81 288.23 183.28 286.34 184.75 283.19 184.33 281.72 182.23zM137.66056 15.335C135.98056 13.235 136.61056 10.295 138.71056 8.615 140.81056 7.145 143.75056 7.565 145.43056 9.665 146.90056 11.765 146.48056 14.705 144.38056 16.385 142.07056 17.855 139.13056 17.435 137.66056 15.335zM391.56944 253.28944C390.09944 251.18944 390.51944 248.24944 392.61944 246.56944 394.71944 245.09944 397.65944 245.51944 399.33944 247.61944 401.01944 249.71944 400.38944 252.86944 398.28944 254.33944 395.97944 256.01944 393.03944 255.38944 391.56944 253.28944zM271.56944 13.335C270.09944 11.235 270.51944 8.085 272.61944 6.615 274.71944 5.145 277.86944 5.565 279.33944 7.665 281.01944 9.765 280.38944 12.915 278.28944 14.385 276.18944 15.855 273.03944 15.435 271.56944 13.335zM246.615 387.335C244.935 385.235 245.565 382.085 247.665 380.615 249.765 379.145 252.915 379.565 254.385 381.665 256.065 383.765 255.435 386.915 253.335 388.385 251.235 389.855 248.295 389.435 246.615 387.335zM381.615 398.304764C379.935 396.204764 380.565 393.054764 382.665 391.584764 384.765 389.904764 387.915 390.534764 389.385 392.634764 391.065 394.734764 390.435 397.674764 388.335 399.354764 386.235 401.034764 383.085 400.614764 381.615 398.304764zM420.615 468.28944C418.935 466.18944 419.565 463.03944 421.665 461.56944 423.765 460.09944 426.915 460.51944 428.385 462.61944 430.065 464.71944 429.435 467.86944 427.335 469.33944 425.025 471.01944 422.085 470.38944 420.615 468.28944zM299.56944 427.335C298.09944 425.235 298.51944 422.085 300.61944 420.615 302.71944 419.145 305.86944 419.565 307.33944 421.665 309.01944 423.765 308.38944 426.915 306.28944 428.385 304.18944 429.855 301.03944 429.435 299.56944 427.335zM446.55556 485.48556C444.87556 483.38556 445.50556 480.23556 447.60556 478.55556 449.70556 476.87556 452.85556 477.50556 454.53556 479.60556 456.00556 481.70556 455.58556 484.85556 453.48556 486.53556 451.17556 488.00556 448.02556 487.58556 446.55556 485.48556zM396.51 220.48556C394.83 218.17556 395.46 215.23556 397.56 213.55556 399.66 211.87556 402.81 212.50556 404.49 214.60556 406.17 216.91556 405.54 219.85556 403.44 221.53556 401.13 223.00556 398.19 222.58556 396.51 220.48556zM445.51 526.44C443.83 524.34 444.46 521.19 446.56 519.51 448.87 517.83 451.81 518.46 453.49 520.56 455.17 522.87 454.54 525.81 452.44 527.49 450.13 529.17 446.98 528.54 445.51 526.44zM173.51 150.409764C171.83 148.099764 172.46 145.159764 174.56 143.479764 176.87 141.799764 179.81 142.429764 181.49 144.529764 183.17 146.839764 182.54 149.779764 180.44 151.459764 178.13 153.139764 174.98 152.719764 173.51 150.409764zM6.51 186.44C4.83 184.13 5.46 180.98 7.56 179.51 9.87 177.83 13.02 178.46 14.49 180.56 16.17 182.87 15.54 186.02 13.44 187.49 11.34 189.17 8.19 188.54 6.51 186.44zM268.51 267.409764C266.83 265.099764 267.46 261.949764 269.56 260.479764 271.87 258.799764 275.02 259.429764 276.49 261.529764 278.17 263.839764 277.54 266.989764 275.44 268.459764 273.34 270.139764 270.19 269.719764 268.51 267.409764zM75.2636514 143.545C73.5836514 141.235 74.2136514 138.085 76.5236514 136.405 78.8336514 134.725 81.9836514 135.145 83.6636514 137.455 85.3436514 139.765 84.9236514 142.915 82.6136514 144.595 80.3036514 146.275 76.9436514 145.855 75.2636514 143.545zM329.387957 167.103556L274.304121 143.075718C273.692078 142.873803 273.28405 143.075718 273.080036 143.681462 272.876022 144.085291 273.080036 144.691035 273.488064 144.892949L328.775915 168.920788C329.183943 169.122703 329.795986 168.920788 330 168.516959 330 167.7093 329.795986 167.305471 329.387957 167.103556z"/>
    <path d="M274.178378,142.6 L200.027027,136.51 C199.616216,136.51 199,136.93 199,137.35 C199,137.98 199.410811,138.4 199.821622,138.4 L273.972973,144.49 C274.589189,144.49 275,144.07 275,143.65 C275,143.02 274.794595,142.6 274.178378,142.6 L274.178378,142.6 Z"/>
    <path d="M218.582384,130.647929 L273.970481,144.297929 C274.382289,144.297929 275,144.087929 275,143.457929 C275,143.037929 274.794096,142.617929 274.382289,142.407929 L219.200095,128.757929 C218.788287,128.547929 218.170576,128.967929 218.170576,129.387929 C217.758769,130.017929 218.170576,130.647929 218.582384,130.647929 Z"/>
    <path d="M218.681152 128.88L199.493576 136.23C199.08094 136.44 198.874622 137.07 199.08094 137.49 199.287258 137.91 199.906212 138.12 200.318848 138.12L219.506424 130.77C219.91906 130.56 220.125378 129.93 219.91906 129.51 219.712742 129.09 219.093788 128.88 218.681152 128.88zM272.862071 143.285901L288.192071 184.329757C288.402071 184.740195 288.822071 185.150634 289.452071 184.945414 289.872071 184.740195 290.292071 184.124537 290.082071 183.714099L274.752071 142.670243C274.542071 142.259805 273.912071 141.849366 273.492071 142.054586 273.072071 142.259805 272.862071 142.875463 272.862071 143.285901z"/>
    <path d="M199.428891,137.729393 L288.483142,184.919158 C288.893531,185.125227 289.509113,184.919158 289.919501,184.507021 C290.124695,184.094883 289.919501,183.476676 289.509113,183.270607 L200.454861,136.080842 C200.044473,135.874773 199.428891,136.080842 199.223696,136.492979 C198.813308,136.905117 199.018502,137.523324 199.428891,137.729393 L199.428891,137.729393 Z"/>
    <path d="M218.490375,130.770919 L288.342763,184.776986 C288.752455,185.186123 289.366992,184.981554 289.776683,184.572417 C290.186375,184.16328 289.981529,183.549575 289.571838,183.140438 L219.71945,129.134372 C219.309758,128.929803 218.695221,128.929803 218.28553,129.33894 C217.875838,129.952645 217.875838,130.566351 218.490375,130.770919 Z"/>
    <path d="M288.253702,183.491598 L258.081632,235.686436 C257.873549,236.097419 258.081632,236.713893 258.497799,236.919385 C258.913965,237.124876 259.538215,236.919385 259.746298,236.508402 L289.918368,184.313564 C290.126451,183.902581 289.918368,183.286107 289.502201,183.080615 C288.877952,182.875124 288.461785,183.080615 288.253702,183.491598 Z"/>
    <path d="M288.751374 184.846501L361.690934 118.739654C362.103022 118.330324 362.103022 117.716328 361.690934 117.306998 361.278846 116.897667 360.660714 116.897667 360.248626 117.306998L360.248626 117.306998 287.309066 183.413845C286.896978 183.823175 286.896978 184.437171 287.309066 184.846501 287.721154 185.051166 288.339286 185.051166 288.751374 184.846501zM258.080617 237.307495L295.275414 318.510673C295.48091 318.919757 296.097398 319.124299 296.508391 318.919757 296.919383 318.715215 297.124879 318.101589 296.919383 317.692505L259.724586 236.489327C259.51909 236.080243 258.902602 235.875701 258.491609 236.080243 258.080617 236.284785 257.875121 236.898411 258.080617 237.307495z"/>
    <path d="M360.81 117.87901L354.51 198.968329C354.51 199.587332 354.93 200 355.35 200 355.98 200 356.4 199.587332 356.4 199.174663L356.4 199.174663 362.49 118.085344C362.49 117.466342 362.07 117.053674 361.65 117.053674 361.23 116.847339 360.81 117.260008 360.81 117.87901zM284.04 335.603111L296.64 318.593111C296.85 318.173111 296.85 317.543111 296.43 317.123111 296.01 316.703111 295.38 316.913111 294.96 317.333111L294.96 317.333111 282.36 334.343111C282.15 334.763111 282.15 335.393111 282.57 335.813111 283.2 336.233111 283.83 336.233111 284.04 335.603111z"/>
    <path d="M287.248496 290.519147L295.858496 318.327253C296.068496 318.739225 296.488496 319.151197 297.118496 318.945211 297.748496 318.739225 297.958496 318.327253 297.748496 317.709295L297.748496 317.709295 289.348496 289.695203C289.138496 289.077245 288.508496 288.871259 288.088496 289.077245 287.248496 289.489217 287.038496 289.901189 287.248496 290.519147zM361.687898 118.936965L415.700637 137.945045C416.312102 138.151654 416.719745 137.738435 416.923567 137.325216 417.127389 136.705387 416.923567 136.292168 416.312102 136.085559L362.299363 117.077479C361.89172 116.870869 361.280255 117.077479 361.076433 117.697307 360.872611 118.110526 361.076433 118.730355 361.687898 118.936965L361.687898 118.936965zM355.289643 199.805L418.122375 193.085C418.740402 193.085 419.15242 192.455 418.946411 192.035 418.946411 191.405 418.328384 190.985 417.916366 191.195L354.877625 197.915C354.259598 197.915 353.84758 198.545 354.053589 198.965 354.259598 199.595 354.877625 200.015 355.289643 199.805z"/>
    <path d="M288.082408,290.661158 L355.775011,199.654515 C356.187771,199.245496 355.981391,198.631969 355.568631,198.22295 C355.155871,197.813931 354.536732,198.018441 354.123972,198.427459 L354.123972,198.427459 L286.224989,289.434102 C285.812229,289.843121 286.018609,290.456649 286.431369,290.865667 C287.256889,291.070177 287.876028,291.070177 288.082408,290.661158 Z"/>
    <path d="M415.266447 136.237887L355.305921 198.24886C354.898026 198.660893 354.898026 199.278942 355.305921 199.690975 355.713816 200.103008 356.325658 200.103008 356.733553 199.690975L416.694079 137.680003C417.101974 137.26797 417.101974 136.64992 416.694079 136.237887 416.286184 135.825854 415.674342 136.031871 415.266447 136.237887zM286.445 289.814159L282.455 333.982301C282.455 334.59292 282.875 335 283.505 335 284.135 335 284.555 334.59292 284.555 334.185841L284.555 334.185841 288.545 290.017699C288.545 289.40708 288.125 289 287.705 289 287.075 289 286.655 289.40708 286.445 289.814159z"/>
    <path d="M414.295 137.221429L416.605 191.982143C416.605 192.592857 417.025 193 417.655 193 418.285 193 418.705 192.592857 418.705 191.982143L418.705 191.982143 416.395 137.017857C416.395 136.407143 415.765 136 415.345 136 414.715 136.203571 414.295 136.610714 414.295 137.221429zM246.081044 273.5223L283.059694 335.507352C283.266279 335.919213 283.886033 336.125143 284.505787 335.919213 284.918956 335.713282 285.12554 335.095491 284.918956 334.4777L247.940306 272.492648C247.527137 272.080787 246.907383 271.874857 246.494213 272.080787 246.081044 272.492648 245.87446 273.11044 246.081044 273.5223z"/>
    <path d="M288.372684 289.375L247.5216 271.525C246.902644 271.315 246.283688 271.525 246.077369 272.155 245.871051 272.785 246.077369 273.415 246.696325 273.625L287.341091 291.475C287.753729 291.685 288.579003 291.475 288.785322 290.845 289.197959 290.215 288.99164 289.585 288.372684 289.375L288.372684 289.375zM97.0839725 167.627829L56.0800301 245.473582C55.8760304 246.093044 56.0800301 246.712507 56.4880295 246.918994 56.8960289 247.125481 57.5080281 246.918994 57.9160275 246.506019L57.9160275 246.506019 98.9199699 168.660266C99.1239696 168.040804 98.9199699 167.421341 98.5119705 167.214854 97.8999714 166.801879 97.2879722 167.008367 97.0839725 167.627829L97.0839725 167.627829z"/>
    <path d="M116.899564,104.672797 L97.0532229,167.709199 C96.8486214,168.327203 97.2578244,168.945206 97.8716287,168.945206 C98.4854331,169.151208 99.0992375,168.739205 99.0992375,168.327203 L118.945579,105.290801 C119.15018,104.672797 118.740977,104.054794 118.331774,104.054794 C117.71797,103.848792 117.104166,104.260795 116.899564,104.672797 Z"/>
    <path d="M23.3084498 69.6601784L97.1307595 168.571078C97.5420258 168.981496 98.1589254 169.186706 98.5701917 168.776287 98.9814581 168.365868 99.1870912 167.75024 98.7758249 167.339822L24.9535152 68.4289224C24.5422488 68.0185037 23.9253493 67.8132944 23.3084498 68.223713 22.8971834 68.6341317 22.8971834 69.2497597 23.3084498 69.6601784zM162.305384 290.861725L56.5178657 244.077287C55.9004288 243.871188 55.2829919 244.077287 55.0771796 244.695584 54.8713673 245.31388 55.0771796 245.726078 55.6946165 246.138275L161.482134 292.922713C162.099571 293.128812 162.717008 292.922713 162.92282 292.304416 163.128633 291.68612 162.92282 291.067823 162.305384 290.861725z"/>
    <path d="M97.766129 166.4L49.0282258 168.29C48.4112903 168.29 48 168.92 48 169.55 48 170.18 48.4112903 170.6 49.233871 170.6L97.9717742 168.71C98.5887097 168.71 99 168.08 99 167.66 98.7943548 166.82 98.3830645 166.4 97.766129 166.4zM118.374185 104.0821L24.5179598 68.076716C23.9004846 67.87214 23.2830095 68.076716 23.0771844 68.6904441 22.8713593 69.3041723 23.0771844 69.7133244 23.6946596 70.1224764L117.34506 105.923284C117.962535 106.12786 118.58001 105.923284 118.785835 105.309556 119.197485 104.900404 118.99166 104.286676 118.374185 104.0821zM246.717066 272.052265L161.873059 290.938555C161.258247 291.139473 160.848373 291.541309 161.05331 292.144063 161.258247 292.746817 161.873059 293.148653 162.282934 292.947735L162.282934 292.947735 247.126941 274.061445C247.741753 274.061445 248.151627 273.458691 247.94669 272.855937 247.741753 272.253183 247.126941 271.851347 246.717066 272.052265z"/>
    <path d="M98.4340278 169.018411L155.180556 152.218411C155.795139 152.008411 156 151.378411 156 150.748411 155.795139 150.118411 155.180556 149.908411 154.565972 149.908411L97.8194444 166.708411C97.2048611 166.918411 97 167.548411 97 167.968411 97.2048611 169.018411 97.8194444 169.228411 98.4340278 169.018411zM47.6426864 170.234828L55.2026864 245.970976C55.2026864 246.588391 55.8326864 247 56.4626864 247 57.0926864 247 57.5126864 246.382586 57.3026864 245.765172L57.3026864 245.765172 49.7426864 170.029024C49.7426864 169.411609 49.1126864 169 48.6926864 169 48.0626864 169 47.6426864 169.617414 47.6426864 170.234828z"/>
    <path d="M117.24564,104.309231 L48.309593,169.247692 C47.8968023,169.66 47.8968023,170.278462 48.309593,170.690769 C48.7223837,171.103077 49.3415698,171.103077 49.7543605,170.690769 L118.690407,105.752308 C119.103198,105.34 119.103198,104.721538 118.690407,104.309231 C118.277616,103.896923 117.65843,103.896923 117.24564,104.309231 Z"/>
    <path d="M117.122599,105.644202 L154.02046,151.575205 C154.430436,151.981674 155.0454,152.184909 155.660365,151.77844 C156.070341,151.371971 156.070341,150.762267 155.865353,150.355798 L118.967492,104.424795 C118.557515,104.018326 117.942551,103.815091 117.532575,104.22156 C116.91761,104.628029 116.91761,105.237733 117.122599,105.644202 Z"/>
    <path d="M211.965517 152.71L154.034483 150.19C153.413793 150.19 153 150.82 153 151.24 153 151.87 153.413793 152.29 154.034483 152.29L211.965517 154.81C212.586207 154.81 213 154.39 213 153.76 213 153.13 212.586207 152.71 211.965517 152.71zM23.0516343 69.2335329L47.7711878 170.177645C47.9738071 170.794411 48.581665 171 49.1895228 171 49.7973807 170.794411 50 170.177645 50 169.766467L25.2804465 68.8223553C25.0778272 68.2055888 24.4699693 68 24.0647307 68 23.2542536 68 22.849015 68.6167665 23.0516343 69.2335329zM303.077246 446.512821L343.862874 542.307692C344.068862 542.923077 344.686826 543.128205 345.30479 542.923077 345.922754 542.717949 346.128743 542.102564 345.922754 541.487179L305.137126 445.692308C304.931138 445.076923 304.313174 444.871795 303.69521 445.076923 303.077246 445.282051 302.871257 445.897436 303.077246 446.512821L303.077246 446.512821z"/>
    <path d="M304.649205 446.775791L353.573913 413.869522C353.981619 413.458194 354.185472 412.841201 353.777766 412.429873 353.37006 412.018545 352.758501 411.812881 352.350795 412.224209L352.350795 412.224209 303.426087 445.130478C303.018381 445.541806 302.814528 446.158799 303.222234 446.570127 303.426087 446.981455 304.037646 447.187119 304.649205 446.775791zM212.515 154.490213L225.745 144.410213C226.165 143.990213 226.375 143.360213 225.955 142.730213 225.535 142.310213 224.905 142.100213 224.485 142.520213L224.485 142.520213 211.255 152.600213C210.835 153.020213 210.625 153.650213 211.045 154.070213 211.255 154.700213 211.885 154.910213 212.515 154.490213L212.515 154.490213zM247.023316 273.4L323.772021 279.91C324.38601 279.91 325 279.49 325 278.86 325 278.23 324.590674 277.6 323.976684 277.6L247.227979 271.09C246.61399 271.09 246.204663 271.51 246 272.14 246 272.77 246.61399 273.4 247.023316 273.4z"/>
    <path d="M353.307288 413.920312L434.307906 387.10745C434.923101 386.904323 435.128166 386.294939 434.923101 385.685556 434.718036 385.076173 434.102841 384.873045 433.487647 385.076173L352.692094 412.092162C352.076899 412.29529 351.871834 412.904673 352.076899 413.514057 352.281964 413.920312 352.897159 414.12344 353.307288 413.920312zM213.075 153.760479L212.235 87.0329341C212.235 86.4131737 211.815 86 210.975 86 210.345 86 209.925 86.6197605 209.925 87.239521L210.765 153.967066C210.765 154.586826 211.185 155 211.815 155 212.655 154.793413 213.075 154.38024 213.075 153.760479L213.075 153.760479z"/>
    <path d="M353.788001 412.340407L303.055809 338.491073C302.648322 337.875662 302.03709 337.875662 301.425859 338.285936 301.018372 338.69621 300.814628 339.311621 301.222115 339.721895L351.954307 413.571229C352.361795 413.981503 352.973026 414.18664 353.380513 413.776366 353.991745 413.571229 354.195488 412.955818 353.788001 412.340407zM224.913012 142.591758L154.033233 150.151758C153.413293 150.151758 153 150.781758 153 151.411758 153 152.041758 153.61994 152.461758 154.23988 152.461758L225.119659 144.901758C225.739599 144.901758 226.152892 144.271758 225.946245 143.641758 225.946245 142.801758 225.326305 142.381758 224.913012 142.591758zM447.905 287.026423L432.995 385.768293C432.995 386.384146 433.415 387 433.835 387 434.465 387 435.095 386.589431 435.095 385.973577L450.005 287.231707C450.005 286.615854 449.795 286 449.165 286 448.535 286 448.115 286.410569 447.905 287.026423L447.905 287.026423z"/>
    <path d="M449.692275 286.129321L384.864849 204.430139C384.454549 204.018556 383.839099 203.812765 383.428799 204.224348 383.018498 204.63593 382.813348 205.253305 383.223648 205.870679L448.256224 287.569861C448.666524 287.981444 449.281975 288.187235 449.692275 287.775652 450.102575 287.36407 450.102575 286.746695 449.692275 286.129321zM49.037234 171.285L85.962766 170.025C86.5851064 170.025 87 169.395 87 168.765 87 168.135 86.3776596 167.715 85.962766 167.715L49.037234 169.185C48.4148936 169.185 48 169.815 48 170.445 48 170.865 48.4148936 171.285 49.037234 171.285zM161.341714 292.947205L191.040692 323.692547C191.453178 324.102484 192.071907 324.102484 192.690636 323.692547 193.103121 323.282609 193.103121 322.462733 192.690636 322.052795L162.785415 291.307453C162.372929 290.897516 161.7542 290.897516 161.135472 291.307453 160.929229 291.92236 160.929229 292.537267 161.341714 292.947205z"/>
    <path d="M104.762711 156.675L48.8785018 168.225C48.2598574 168.435 47.8474278 169.065 48.0536426 169.485 48.0536426 170.115 48.672287 170.325 49.2909313 170.325L105.175141 158.775C105.793785 158.565 106 157.935 106 157.305 105.793785 156.885 105.175141 156.675 104.762711 156.675zM449.179207 285.677705L382.489766 265.053649C381.874171 264.847409 381.258576 265.25989 381.053378 265.878611 380.84818 266.497333 381.258576 267.116055 381.874171 267.322295L381.874171 267.322295 448.563612 287.946351C449.179207 288.152591 449.794802 287.74011 450 287.121389 450 286.296426 449.589603 285.883945 449.179207 285.677705z"/>
    <path d="M105.289111 160.147314L155.122737 153.007314C155.740509 152.797314 156.152357 152.377314 155.946433 151.747314 155.946433 151.117314 155.328661 150.697314 154.916813 150.907314L104.877263 158.047314C104.259491 158.257314 103.847643 158.677314 104.053567 159.307314 104.259491 159.727314 104.877263 160.147314 105.289111 160.147314zM304.495 445.971698L302.605 339.028302C302.605 338.411321 301.975 338 301.555 338 300.925 338 300.505 338.616981 300.505 339.028302L300.505 339.028302 302.395 445.971698C302.395 446.588679 302.815 447 303.445 447 304.075 447 304.495 446.588679 304.495 445.971698zM325.142442 279.508927L384.712687 205.864731C385.124937 205.454456 385.124937 204.633908 384.506561 204.223634 383.888185 203.81336 383.269809 204.018497 382.857558 204.428771L323.287313 278.072968C322.875063 278.483242 322.875063 279.30379 323.493439 279.714064 324.111815 280.124338 324.730191 280.124338 325.142442 279.508927zM226.584385 143.557256L212.514385 86.8780393C212.304385 86.2597206 211.674385 85.8475081 211.254385 86.0536143 210.624385 86.2597206 210.204385 86.8780393 210.414385 87.496358L224.484385 144.175575C224.694385 144.793894 225.324385 145 225.954385 145 226.374385 144.587788 226.794385 144.175575 226.584385 143.557256z"/>
    <path d="M303.165971,339.33092 L325.921712,279.510866 C326.13048,278.896276 325.921712,278.281687 325.295407,278.076824 C324.669102,277.871961 324.042797,278.076824 323.834029,278.691413 L323.834029,278.691413 L301.078288,338.511467 C300.86952,339.126056 301.078288,339.740646 301.704593,339.945509 C302.330898,340.150372 302.957203,339.740646 303.165971,339.33092 Z"/>
    <path d="M324.494262 280.165L382.12319 267.145C382.740643 266.935 383.152278 266.305 382.946461 265.675 382.740643 265.045 382.12319 264.625 381.505738 264.835L323.87681 278.065C323.259357 278.275 322.847722 278.905 323.053539 279.325 323.465174 279.955 323.87681 280.375 324.494262 280.165L324.494262 280.165zM104.370772 157.41L85.526441 167.7C84.9185593 167.91 84.9185593 168.75 85.1211865 169.17 85.3238137 169.8 85.9316954 170.01 86.539577 169.59L105.383908 159.3C105.99179 159.09 106.194417 158.25 105.789163 157.83 105.586535 157.2 104.978654 156.99 104.370772 157.41z"/>
    <path d="M382.5,205.065631 L380.61,265.974597 C380.61,266.589839 381.03,267 381.66,267 C382.29,267 382.71,266.589839 382.71,265.974597 L384.39,205.270711 C384.39,204.655469 383.97,204.040227 383.34,204.040227 C382.92,203.835146 382.5,204.450388 382.5,205.065631 L382.5,205.065631 Z"/>
    <path d="M302.942643,339.692113 L382.693267,267.0307 C383.102244,266.620183 383.102244,266.004409 382.693267,265.388634 C382.284289,264.978118 381.670823,264.772859 381.057357,265.388634 L301.306733,338.050047 C300.897756,338.460563 300.897756,339.076338 301.306733,339.692113 C301.715711,340.102629 302.329177,340.102629 302.942643,339.692113 Z"/>
    <path d="M192.025641 323.14974L301.769231 339.94974C302.384615 340.15974 303 339.52974 303 339.10974 303 338.47974 302.589744 337.84974 301.974359 337.84974L301.974359 337.84974 192.230769 321.04974C191.615385 320.83974 191 321.46974 191 322.09974 191 322.51974 191.410256 323.14974 192.025641 323.14974zM224.21405 144.758315L274.819822 222.468691C275.231251 223.082194 275.848394 223.082194 276.465538 222.877693 277.082682 222.468691 277.082682 221.855188 276.876967 221.241685L276.876967 221.241685 226.06548 143.531309C225.859766 142.917806 225.036908 142.917806 224.625479 143.122307 224.008335 143.531309 223.802621 144.144812 224.21405 144.758315zM344.694175 481.029255L304.73301 444.31117C304.325243 443.896277 303.713592 443.896277 303.305825 444.31117 302.898058 444.726064 302.898058 445.348404 303.305825 445.763298L343.063107 482.68883C343.470874 483.103723 344.286408 483.103723 344.694175 482.68883 345.101942 482.066489 345.101942 481.444149 344.694175 481.029255z"/>
    <path d="M324.691022 278.231135L276.078429 221.427087C275.666458 221.018425 274.842516 220.814093 274.430545 221.222756 274.018574 221.631418 273.812588 222.244411 274.224559 222.857405L323.043137 279.661453C323.455108 280.070115 324.073065 280.070115 324.691022 279.865784 325.102993 279.457122 325.102993 278.844129 324.691022 278.231135zM140.284389 13.9558824L210.06174 88.6911765C210.469795 89.1029412 211.081877 89.1029412 211.693959 88.6911765 212.102014 88.2794118 212.102014 87.6617647 211.693959 87.0441176L142.120635 12.3088235C141.71258 11.8970588 140.896471 11.8970588 140.488416 12.3088235 139.876334 12.7205882 139.876334 13.3382353 140.284389 13.9558824zM382.465 205.498735L394.225 251.120566C394.435 251.739867 395.065 252.152734 395.695 251.946301 396.325 251.739867 396.745 251.120566 396.535 250.501265L384.775 204.879434C384.565 204.260133 383.935 203.847266 383.305 204.053699 382.675 204.260133 382.255 204.879434 382.465 205.498735L382.465 205.498735z"/>
    <path d="M274.914613 9.42758113L210.225311 86.1404454C209.811961 86.5495807 210.018636 87.3678512 210.431986 87.7769865 210.845336 88.1861218 211.465361 87.9815541 211.878712 87.5724189L276.774689 10.8595546C277.188039 10.4504193 276.981364 9.63214877 276.568014 9.22301349 275.947989 8.81387821 275.327963 9.01844585 274.914613 9.42758113zM276.537314 222.121664L286.827314 179.237056C286.827314 178.618528 286.617314 178 285.777314 178 285.147314 178 284.727314 178.206176 284.517314 178.824704L274.227314 221.709312C274.017314 222.32784 274.437314 222.946368 275.067314 222.946368 275.697314 223.152544 276.327314 222.740192 276.537314 222.121664zM191.307047 323.738019L250.055369 385.693291C250.464765 386.102236 251.283557 386.102236 251.692953 385.693291 252.102349 385.284345 252.102349 384.466454 251.692953 384.057508L192.944631 322.306709C192.535235 321.897764 191.716443 321.897764 191.307047 322.306709 190.897651 322.511182 190.897651 323.329073 191.307047 323.738019z"/>
    <path d="M395.1038 249.696255L275.49209 221.053221C274.875535 220.848628 274.25898 221.257814 274.053461 221.871593 273.847943 222.485372 274.25898 223.099152 274.875535 223.303745L274.875535 223.303745 394.487245 251.946779C395.1038 252.151372 395.720355 251.742186 395.925874 251.128407 396.131392 250.514628 395.925874 249.900848 395.1038 249.696255L395.1038 249.696255zM384.874272 394.690914L343.076834 481.285509C342.871944 481.899655 343.076834 482.513801 343.691502 482.923232 344.30617 483.127947 344.920838 482.923232 345.125728 482.309086L386.923166 395.714491C387.128056 395.100345 386.923166 394.486199 386.308498 394.076768 385.898719 393.872053 385.284051 394.076768 384.874272 394.690914z"/>
    <path d="M424.510357,463.735 L343.874099,480.955 C343.258555,481.165 342.848192,481.795 343.053374,482.425 C343.258555,483.055 343.874099,483.475 344.489643,483.265 L425.125901,466.045 C425.741445,465.835 426.151808,465.205 425.946626,464.575 C425.741445,463.945 425.125901,463.525 424.510357,463.735 Z"/>
    <path d="M302.288874 425.931653L342.908864 483.50775C343.323354 484.124636 343.945088 484.124636 344.566823 483.713379 344.981313 483.302121 345.188558 482.685234 344.774068 482.068347L304.154077 424.49225C303.739588 423.875364 303.117853 423.875364 302.496119 424.286621 301.874384 424.49225 301.874384 425.314766 302.288874 425.931653zM141.028529 14.02L275.765766 11.5C276.382883 11.5 277 10.87 277 10.24 277 9.61 276.382883 8.98 275.765766 8.98L275.765766 8.98 141.028529 11.5C140.411411 11.5 140 12.13 140 12.76 140 13.6 140.411411 14.02 141.028529 14.02zM251.230539 385.3L385.769461 396.01C386.384731 396.01 387 395.59 387 394.96 387 394.33 386.58982 393.7 385.974551 393.7L385.974551 393.7 251.230539 382.99C250.615269 382.99 250 383.41 250 384.04 250.20509 384.67 250.615269 385.3 251.230539 385.3z"/>
    <path d="M385.080249 395.86914L423.741581 466.371369C423.946139 466.991623 424.764368 467.198374 425.37804 466.784871 425.991712 466.371369 426.196269 465.751114 425.787154 465.13086L387.125822 394.628631C386.921265 394.008377 386.103035 393.801626 385.489363 394.215129 385.080249 394.42188 384.875692 395.248886 385.080249 395.86914L385.080249 395.86914zM250.428664 386.05542L303.135735 425.777927C303.750992 426.185337 304.36625 425.981632 304.776422 425.574222 305.186593 424.963106 304.981507 424.351991 304.571336 423.94458L251.864265 384.222073C251.454094 383.814663 250.63375 384.018368 250.223578 384.425778 249.813407 384.833189 250.018493 385.648009 250.428664 386.05542z"/>
    <path d="M304.430657,425.944959 L386.182482,396.146908 C386.79562,395.939977 387,395.319185 387,394.698392 C386.79562,394.077599 386.182482,393.870668 385.569343,394.077599 L303.817518,423.87565 C303.20438,424.082581 303,424.703374 303,425.324166 C303.20438,425.738028 303.817518,426.15189 304.430657,425.944959 Z"/>
    <path d="M303.87257 425.516156L424.512963 465.946613C425.12743 466.151844 425.741897 465.741383 425.94672 465.12569 426.151542 464.509998 425.741897 463.894306 425.12743 463.689075L304.487037 423.053387C303.87257 422.848156 303.258103 423.258617 303.05328 423.87431 302.848458 424.490002 303.258103 425.310925 303.87257 425.516156zM396.219404 250.971429L401.259404 217.234286C401.469404 216.617143 400.839404 216 400.209404 216 399.579404 216 398.949404 216.411429 398.739404 217.028571L393.699404 250.765714C393.699404 251.382857 394.119404 252 394.749404 252 395.379404 252 396.009404 251.588571 396.219404 250.971429zM385.222565 395.931184L449.940031 483.507869C450.348343 484.124606 450.960811 484.124606 451.573279 483.713448 451.981591 483.30229 452.185747 482.479974 451.777435 482.068816L387.059969 394.492131C386.651657 393.875394 385.835033 393.875394 385.426721 394.286552 385.018409 394.69771 384.814253 395.520026 385.222565 395.931184L385.222565 395.931184z"/>
    <path d="M423.535729,465.625 L450.135824,483.475 C450.754431,483.895 451.373038,483.685 451.785443,483.055 C452.197847,482.425 451.991645,481.795 451.373038,481.375 L424.772943,463.525 C424.154336,463.105 423.535729,463.315 423.123325,463.945 C422.917122,464.575 422.917122,465.415 423.535729,465.625 Z"/>
    <path d="M423.077348,465.727388 L448.653775,524.303888 C448.860037,524.922654 449.685083,525.12891 450.303867,524.922654 C450.922652,524.716399 451.128913,523.891378 450.922652,523.272612 L425.346225,464.696112 C425.139963,464.077346 424.314917,463.87109 423.696133,464.077346 C423.077348,464.489856 422.871087,465.108622 423.077348,465.727388 Z"/>
    <path d="M451.235 523.777251L452.285 483.222749C452.285 482.611374 451.655 482 451.025 482 450.395 482 449.765 482.407583 449.765 483.222749L448.715 523.777251C448.715 524.388626 449.345 525 449.975 525 450.605 525 451.235 524.388626 451.235 523.777251zM399.400047 216.053853L271.691838 263.461884C271.076871 263.668906 270.871882 264.289972 271.076871 265.11806 271.28186 265.739125 271.896827 266.153169 272.511795 265.946147L272.511795 265.946147 400.220004 218.538116C400.834971 218.331094 401.244949 217.503006 400.834971 216.88194 400.629982 216.260875 400.015015 215.846831 399.400047 216.053853zM80.0665422 140.98L177.768463 148.54C178.384232 148.54 179 148.12 179 147.28 179 146.65 178.589488 146.02 177.768463 146.02L80.2717983 138.46C79.6560299 138.46 79.0402615 139.09 79.0402615 139.72 78.8350054 140.35 79.4507738 140.98 80.0665422 140.98z"/>
    <path d="M79.1353404,139.222857 L9.62712465,181.743053 C9.00835715,182.151901 8.80210131,182.765173 9.21461298,183.378445 C9.62712465,183.991717 10.2458921,184.196141 10.8646596,183.787293 L80.3728754,141.267097 C80.9916429,140.858249 81.1978987,140.040553 80.785387,139.427281 C80.5791312,139.018433 79.7541079,138.814009 79.1353404,139.222857 Z"/>
  </g>
</svg>
