<?xml version="1.0" encoding="UTF-8"?>
<svg width="38px" height="28px" viewBox="0 0 38 28" version="1.1" xmlns="http://www.w3.org/2000/svg" xmlns:xlink="http://www.w3.org/1999/xlink">
    <!-- Generator: Sketch 61 (89581) - https://sketch.com -->
    <title>email_icon</title>
    <desc>Created with Sketch.</desc>
    <g id="Page-1" stroke="none" stroke-width="1" fill="none" fill-rule="evenodd">
        <g id="JCTF_LP_1280px_HOME" transform="translate(-336.000000, -1890.000000)" fill="#FFFFFF" fill-rule="nonzero">
            <g id="footer" transform="translate(336.000000, 1886.000000)">
                <path d="M33.8332619,4 L3.50001948,4 C1.56999004,4 -2.13162821e-14,5.56999004 -2.13162821e-14,7.50001948 L-2.13162821e-14,28.4999805 C-2.13162821e-14,30.43001 1.56999004,32 3.50001948,32 L33.8332619,32 C35.7632913,32 37.3332814,30.43001 37.3332814,28.4999805 L37.3332814,7.50001948 C37.3332814,5.56999004 35.7632913,4 33.8332619,4 Z M33.8332619,6.33332034 C33.9917728,6.33332034 34.1425685,6.36620706 34.2804277,6.42364192 L18.6666407,19.9562141 L3.05277572,6.42364192 C3.19063497,6.36628499 3.34143069,6.33332034 3.49994155,6.33332034 L33.8332619,6.33332034 Z M33.8332619,29.6666017 L3.50001948,29.6666017 C2.85631266,29.6666017 2.33332034,29.1436873 2.33332034,28.4999026 L2.33332034,8.88882085 L17.9021414,22.3818043 C18.1220616,22.5720329 18.3943511,22.6666407 18.6666407,22.6666407 C18.9389302,22.6666407 19.2112198,22.5721109 19.43114,22.3818043 L34.999961,8.88882085 L34.999961,28.4999805 C34.999961,29.1436873 34.4769687,29.6666017 33.8332619,29.6666017 L33.8332619,29.6666017 Z" id="email_icon"></path>
            </g>
        </g>
    </g>
</svg>