<?xml version="1.0" encoding="UTF-8"?>
<svg width="31px" height="40px" viewBox="0 0 31 40" version="1.1" xmlns="http://www.w3.org/2000/svg" xmlns:xlink="http://www.w3.org/1999/xlink">
    <!-- Generator: Sketch 61 (89581) - https://sketch.com -->
    <title>first_blood_icon</title>
    <desc>Created with Sketch.</desc>
    <g id="Page-1" stroke="none" stroke-width="1" fill="none" fill-rule="evenodd">
        <g id="JCTF_LP_1280px_CHALLENGES_DETAILS_example" transform="translate(-608.000000, -219.000000)">
            <g id="Group-4" transform="translate(412.000000, 219.000000)">
                <g id="Group-9" transform="translate(196.000000, 0.000000)">
                    <g id="Group-6">
                        <g id="first_blood_icon">
                            <path d="M25.8429839,11.3429038 C25.8449351,12.0843673 26.1140083,12.2769526 26.809618,12.0383185 C28.0314717,11.6195868 28.8123497,10.4761721 28.7813253,9.15090384 C28.7524473,7.91792824 27.8907888,6.80768433 26.6863009,6.45178189 C26.1017156,6.27909897 25.8507888,6.45587945 25.8463009,7.05705019 C25.8408375,7.78758677 25.8449351,8.51812336 25.8449351,9.24865994 C25.8425936,9.94680628 25.8412278,10.6447575 25.8429839,11.3429038 Z M4.38873997,6.95422092 C4.38113021,6.51929409 4.13059363,6.32378189 3.73059363,6.39734287 C2.49898387,6.62368433 1.47849607,7.86017214 1.45430095,9.15558677 C1.4281546,10.5530502 2.36376436,11.8260258 3.61664241,12.0978307 C4.14327656,12.211977 4.38522778,12.0273916 4.3916668,11.4820258 C4.40025217,10.7518795 4.39361802,10.021538 4.39264241,9.29119653 C4.39264241,8.5122697 4.40239851,7.73295263 4.38873997,6.95422092 Z M8.43459363,39.9643673 C7.12044729,39.9075868 6.37156924,39.1327575 6.36669119,37.8236843 C6.36513021,37.3848551 6.36395948,36.9458307 6.3641546,36.5068063 C6.36532534,35.0872941 6.85781314,34.4693429 8.06776436,34.191099 C8.41898387,33.6115868 8.63732534,33.0720746 9.01469119,32.6900258 C9.28083753,32.4205624 9.75400826,32.2734404 10.1510814,32.2326599 C10.947179,32.151099 11.5815205,31.8379282 12.0810327,31.2287575 C13.5368375,29.4533429 13.5481546,26.1616356 12.0966424,24.3936356 C11.5901058,23.7766599 10.96474,23.4100258 10.1253253,23.3977331 C8.93273997,23.3801721 8.08649607,22.2952941 8.34561802,21.1208551 C8.42386192,20.7661234 8.32376436,20.597538 8.07010582,20.3897331 C6.38425217,19.0084648 5.08844729,17.357538 4.57781314,15.1862209 C4.50347168,14.8707087 4.46093509,14.5473916 4.41332534,14.2262209 C4.33800826,13.7177331 4.05449607,13.5208551 3.42873997,13.5565624 C2.95752046,13.5832941 2.9134229,13.9070014 2.91400826,14.2796843 C2.91771558,16.5881721 2.91576436,18.8968551 2.91556924,21.2053429 C2.91556924,21.3354892 2.96259363,21.4958795 2.9036668,21.5891477 C2.78093509,21.7834892 2.60200826,21.9423185 2.44630095,22.1155868 C2.283179,21.949538 2.09683753,21.7994892 1.9676668,21.610416 C1.90678875,21.5214404 1.955179,21.3573429 1.955179,21.2273916 C1.95556924,18.5610502 1.9561546,15.8949038 1.95654485,13.2285624 C1.95654485,13.1310014 1.95576436,13.0334404 1.95459363,12.9358795 C1.95069119,12.6061234 1.7836668,12.3950014 1.45625217,12.3989038 C1.1294229,12.4028063 0.966886312,12.6193916 0.966300946,12.9470014 C0.965130215,13.8248551 0.964935093,14.7029038 0.964544849,15.5807575 C0.964154605,16.3448551 0.959471678,17.1089526 0.966300946,17.8730502 C0.969422898,18.2293429 0.854886312,18.5132453 0.463471678,18.503099 C0.100739971,18.493538 0.00278875123,18.2152941 0.00337411708,17.8812453 C0.00844728781,14.9548063 -0.0141868585,12.0283673 0.0162521659,9.10231848 C0.0375204585,7.05724531 1.56552046,5.35909897 3.67556924,4.9407575 C4.38210582,4.80085506 4.46171558,4.68280628 4.33839851,3.92612336 C4.19127656,3.89568433 4.03576436,3.85997702 3.87888631,3.83168433 C2.6121546,3.60241604 1.65937412,2.6065136 1.48825217,1.33061116 C1.37586192,0.491586772 1.77644729,0.0182209179 2.61937412,0.0172453082 C6.26113021,0.0131477472 9.90288631,0.0129526253 13.5444473,0.0131477472 C18.1942034,0.0131477472 22.8439595,0.0346111618 27.4935205,6.56634583e-05 C28.5173253,-0.00753517962 28.9241546,0.645537991 28.7132278,1.54270872 C28.4279595,2.75558677 27.5553741,3.62017214 26.3415205,3.83714775 C26.1981058,3.86270872 26.0548863,3.89158677 25.8905936,3.92300141 C25.7858131,4.70661116 25.8535205,4.80183067 26.5764473,4.94407458 C28.6476668,5.35187945 30.1263009,7.00261116 30.225618,9.01783067 C30.3276668,11.0880746 29.0254229,12.8960746 27.0088375,13.4845624 C26.9620083,13.4982209 26.91674,13.517538 26.8695205,13.5290502 C25.8472766,13.7752941 25.8441546,13.775099 25.8433741,14.8511965 C25.8418131,17.0785136 25.849618,24.3058307 25.8343985,26.5331477 C25.8330327,26.7536356 25.7350814,26.9977331 25.6094229,27.181538 C25.555179,27.2611477 25.2593741,27.2830014 25.1752766,27.2113916 C25.035179,27.0915868 24.9030814,26.8785136 24.8970327,26.699977 C24.8679595,25.8718795 24.8783009,20.0422209 24.8859107,19.2131477 C24.8892278,18.8459282 24.8583985,18.4750014 24.3996668,18.4656356 C23.9415205,18.4560746 23.8870814,18.8172453 23.8898131,19.1905136 C23.8964473,20.051977 23.8878619,25.9138307 23.89274,26.7752941 C23.8948863,27.1368551 23.8232766,27.4601721 23.3848375,27.4447575 C22.9750814,27.4303185 22.9239595,27.109538 22.9307888,26.7731477 C22.9380083,26.4240746 22.9323497,21.0746112 22.9323497,20.6110014 C22.4498131,21.0513916 21.9682522,21.2648551 21.8572278,21.9101234 C21.7099107,22.767099 21.0285448,23.3407575 20.1385936,23.381538 C18.9703985,23.4351965 18.2189839,24.0623185 17.7300083,25.0236843 C16.7908863,26.8699282 16.7998619,28.7551965 17.7374229,30.5985136 C18.2375205,31.5811477 19.0213253,32.195977 20.2049351,32.2293429 C21.1249351,32.2552941 21.73274,32.9557819 21.9863985,34.1602697 C22.9085448,34.2831965 23.6603497,34.7349038 23.7863985,35.7070014 C23.9042522,36.613538 23.9081546,37.5616356 23.7799595,38.4656356 C23.6422034,39.4357819 22.8377156,39.9594892 21.7844473,39.9620258 C19.0369351,39.9684648 16.2894229,39.9641721 13.5421058,39.9645624 C13.2818131,39.9645624 13.0217156,39.9633916 12.761618,39.9694404" id="Fill-1" fill="#EAEAEA" transform="translate(15.115607, 19.984720) scale(-1, 1) translate(-15.115607, -19.984720) "></path>
                            <text id="1" font-family="Rubik-Medium, Rubik" font-size="18" font-weight="400" fill="#C81B2B">
                                <tspan x="10.5552149" y="18.0001526">1</tspan>
                            </text>
                        </g>
                    </g>
                </g>
            </g>
        </g>
    </g>
</svg>