<svg xmlns="http://www.w3.org/2000/svg" width="385" height="935" viewBox="0 0 385 935">
  <g fill="#3AADD4" opacity=".45" transform="translate(-6 -7)">
    <path d="M234.875,749.125 C233.375,747.125 233.875,744.375 235.875,742.875 C237.875,741.375 240.625,741.875 242.125,743.875 C243.625,745.875 243.125,748.625 241.125,750.125 C238.875,751.625 236.125,751.125 234.875,749.125 Z" transform="matrix(1 0 0 -1 0 1493)"/>
    <path d="M167.75,779.213354 C166.25,777.213354 166.75,774.213354 168.75,772.713354 C170.75,771.213354 173.75,771.713354 175.25,773.713354 C176.75,775.713354 176.25,778.713354 174.25,780.213354 C172,781.713354 169.25,781.463354 167.75,779.213354 Z" transform="matrix(1 0 0 -1 0 1553)"/>
    <path d="M78.75,786.25 C77.25,784.25 77.75,781.25 79.75,779.75 C81.75,778.25 84.75,778.75 86.25,780.75 C87.75,782.75 87.25,785.75 85.25,787.25 C83.25,788.75 80.25,788.25 78.75,786.25 Z" transform="matrix(1 0 0 -1 0 1567)"/>
    <path d="M101.75,794.25 C100.25,792.25 100.75,789.25 102.75,787.75 C104.75,786.25 107.75,786.75 109.25,788.75 C110.75,790.75 110.25,793.75 108.25,795.25 C106,796.75 103,796.25 101.75,794.25 Z" transform="matrix(1 0 0 -1 0 1583)"/>
    <path d="M185.625,729.159919 C184.125,727.159919 184.625,724.159919 186.625,722.659919 C188.875,721.159919 191.625,721.659919 193.375,723.659919 C194.875,725.909919 194.375,728.659919 192.375,730.159919 C190.125,731.909919 187.125,731.409919 185.625,729.159919 Z" transform="matrix(1 0 0 -1 0 1453)"/>
    <path d="M150.625,667.375 C149.125,665.125 149.625,662.375 151.625,660.625 C153.625,659.125 156.625,659.625 158.375,661.625 C159.875,663.875 159.375,666.625 157.375,668.375 C155.125,669.875 152.125,669.375 150.625,667.375 Z" transform="matrix(1 0 0 -1 0 1329)"/>
    <path d="M194.625,569.284919 C193.125,567.284919 193.625,564.034919 195.625,562.534919 C197.875,561.034919 200.625,561.534919 202.375,563.534919 C203.875,565.784919 203.375,568.784919 201.375,570.284919 C199.125,572.034919 196.125,571.534919 194.625,569.284919 Z" transform="matrix(1 0 0 -1 0 1133)"/>
    <path d="M272.625,809.284919 C271.125,807.034919 271.625,804.284919 273.625,802.534919 C275.625,801.034919 278.625,801.534919 280.375,803.534919 C281.875,805.534919 281.375,808.534919 279.375,810.284919 C277.125,812.034919 274.125,811.534919 272.625,809.284919 Z" transform="matrix(1 0 0 -1 0 1613)"/>
    <path d="M265.5,712.409919 C264,710.159919 264.5,706.909919 266.5,705.409919 C268.75,703.909919 271.75,704.409919 273.5,706.409919 C275,708.659919 274.5,711.659919 272.5,713.409919 C270.25,715.159919 267,714.659919 265.5,712.409919 Z" transform="matrix(1 0 0 -1 0 1419)"/>
    <path d="M179.554384,549.464303 C177.804384,547.214303 178.554384,544.214303 180.554384,542.464303 C182.804384,540.714303 186.054384,541.464303 187.554384,543.464303 C189.054384,545.714303 188.554384,548.714303 186.554384,550.464303 C184.304384,552.214303 181.054384,551.714303 179.554384,549.464303 Z" transform="matrix(1 0 0 -1 0 1093)"/>
    <path d="M184.409919,602.5 C182.909919,600.25 183.409919,597.25 185.409919,595.5 C187.659919,593.75 190.659919,594.25 192.409919,596.5 C194.159919,598.75 193.659919,601.75 191.409919,603.5 C189.159919,605.25 186.159919,604.75 184.409919,602.5 Z" transform="matrix(1 0 0 -1 0 1199)"/>
    <path d="M338.535697,786.5 C336.785697,784.25 337.285697,781 339.535697,779.5 C341.785697,777.75 344.785697,778.25 346.535697,780.5 C348.285697,782.75 347.535697,785.75 345.535697,787.5 C343.285697,789.25 340.035697,788.75 338.535697,786.5 Z" transform="matrix(1 0 0 -1 0 1567)"/>
    <path d="M252.241853,300.589307 C250.491853,298.339307 250.991853,295.089307 253.491853,293.339307 C255.741853,291.589307 258.991853,292.089307 260.741853,294.589307 C262.491853,296.839307 261.991853,300.089307 259.741853,301.839307 C256.991853,303.339307 253.741853,302.839307 252.241853,300.589307 Z" transform="matrix(1 0 0 -1 0 595)"/>
    <path d="M136.152545,623.589307 C134.652545,621.339307 135.152545,618.089307 137.402545,616.339307 C139.652545,614.589307 142.902545,615.089307 144.652545,617.589307 C146.402545,619.839307 145.902545,623.089307 143.652545,624.839307 C141.152545,626.339307 137.902545,625.839307 136.152545,623.589307 Z" transform="matrix(1 0 0 -1 0 1241)"/>
    <path d="M93.2845759,766.589307 C91.5345759,764.339307 92.0345759,761.089307 94.5345759,759.339307 C96.7845759,757.589307 100.034576,758.089307 101.784576,760.589307 C103.534576,762.839307 102.784576,766.089307 100.534576,767.839307 C98.2845759,769.339307 95.0345759,768.839307 93.2845759,766.589307 Z" transform="matrix(1 0 0 -1 0 1527)"/>
    <path d="M33.3831473,600.589307 C31.6331473,598.339307 32.1331473,595.089307 34.3831473,593.339307 C36.6331473,591.589307 39.8831473,592.089307 41.6331473,594.589307 C43.3831473,596.839307 42.8831473,600.089307 40.3831473,601.839307 C38.3831473,603.339307 35.1331473,602.839307 33.3831473,600.589307 Z" transform="matrix(1 0 0 -1 0 1195)"/>
    <path d="M263.25,455.589307 C261.5,453.339307 262,450.089307 264.5,448.339307 C266.75,446.589307 270,447.089307 271.75,449.589307 C273.5,451.839307 273,455.089307 270.5,456.839307 C268.25,458.339307 265,457.839307 263.25,455.589307 Z" transform="matrix(1 0 0 -1 0 905)"/>
    <path d="M375.375,179.534576 C373.625,177.284576 374.125,174.034576 376.375,172.284576 C378.875,170.534576 382.125,171.034576 383.625,173.534576 C385.375,175.784576 384.875,179.034576 382.625,180.784576 C380.375,182.534576 377.125,181.784576 375.375,179.534576 Z" transform="matrix(1 0 0 -1 0 353)"/>
    <path d="M198.25,199.589307 C196.5,197.339307 197,194.089307 199.5,192.339307 C201.75,190.589307 205,191.089307 206.75,193.589307 C208.5,195.839307 208,199.089307 205.5,200.839307 C203.25,202.339307 200,201.839307 198.25,199.589307 Z" transform="matrix(1 0 0 -1 0 393)"/>
    <path d="M377.25,606.589307 C375.5,604.339307 376,600.839307 378.5,599.339307 C380.75,597.589307 384,598.089307 385.75,600.589307 C387.5,602.839307 387,606.089307 384.5,607.839307 C382.25,609.339307 379,608.839307 377.25,606.589307 Z" transform="matrix(1 0 0 -1 0 1207)"/>
    <path d="M24.25,769.589307 C22.5,767.339307 23,763.839307 25.5,762.339307 C27.75,760.589307 31,761.089307 32.75,763.589307 C34.5,765.839307 34,769.339307 31.5,770.839307 C29.25,772.339307 26,771.839307 24.25,769.589307 Z" transform="matrix(1 0 0 -1 0 1533)"/>
    <path d="M363.215424,34.7418527 C361.465424,32.4918527 362.215424,29.2418527 364.465424,27.2418527 C366.715424,25.4918527 369.965424,25.9918527 371.715424,28.4918527 C373.465424,30.7418527 372.965424,33.9918527 370.465424,35.7418527 C368.215424,37.4918527 364.965424,36.9918527 363.215424,34.7418527 Z" transform="matrix(1 0 0 -1 0 63)"/>
    <path d="M203.125,415.5 C201.375,413.25 201.875,409.75 204.375,408.25 C206.625,406.5 210.125,407 211.875,409.5 C213.625,411.75 213.125,415.25 210.625,416.75 C208.125,418.5 204.625,418 203.125,415.5 Z" transform="matrix(1 0 0 -1 0 825)"/>
    <path d="M109.125,778.714307 C107.375,776.214307 107.875,772.964307 110.375,771.214307 C112.625,769.464307 116.125,769.964307 117.875,772.464307 C119.625,774.714307 119.125,778.214307 116.625,779.964307 C114.125,781.464307 110.875,780.964307 109.125,778.714307 Z" transform="matrix(1 0 0 -1 0 1551)"/>
    <path d="M322.125,121.625 C320.375,119.375 320.875,115.875 323.375,114.125 C325.875,112.375 329.125,112.875 330.875,115.375 C332.625,117.625 332.125,121.125 329.625,122.875 C327.375,124.625 323.875,124.125 322.125,121.625 Z" transform="matrix(1 0 0 -1 0 237)"/>
    <path d="M330.125,165.714307 C328.375,163.214307 328.875,159.964307 331.375,158.214307 C333.625,156.464307 337.125,156.964307 338.875,159.464307 C340.625,161.964307 340.125,165.214307 337.625,166.964307 C335.375,168.464307 331.875,167.964307 330.125,165.714307 Z" transform="matrix(1 0 0 -1 0 325)"/>
    <path d="M228.125,616.625 C226.375,614.375 226.875,610.875 229.375,609.125 C231.625,607.375 235.125,607.875 236.875,610.375 C238.625,612.875 238.125,616.125 235.625,617.875 C233.125,619.625 229.875,619.125 228.125,616.625 Z" transform="matrix(1 0 0 -1 0 1227)"/>
    <path d="M360.125,487.659576 C358.375,485.159576 358.875,481.909576 361.375,480.159576 C363.875,478.409576 367.125,478.909576 368.875,481.409576 C370.625,483.909576 370.125,487.159576 367.625,488.909576 C365.375,490.659576 361.875,489.909576 360.125,487.659576 Z" transform="matrix(1 0 0 -1 0 969)"/>
    <path d="M299.125,704.625 C297.375,702.125 297.875,698.875 300.375,697.125 C302.875,695.375 306.125,695.875 307.875,698.375 C309.625,700.875 309.125,704.125 306.625,705.875 C304.125,707.625 300.875,707.125 299.125,704.625 Z" transform="matrix(1 0 0 -1 0 1403)"/>
    <path d="M201.125,544.625 C199.375,542.125 199.875,538.875 202.375,537.125 C204.625,535.375 208.125,535.875 209.875,538.375 C211.625,540.875 211.125,544.125 208.625,545.875 C206.125,547.625 202.625,547.125 201.125,544.625 Z" transform="matrix(1 0 0 -1 0 1083)"/>
    <path d="M92.125,845.625 C90.375,843.125 90.875,839.875 93.375,838.125 C95.875,836.375 99.125,836.875 100.875,839.375 C102.625,841.875 102.125,845.125 99.625,846.875 C97.375,848.625 93.875,848.125 92.125,845.625 Z" transform="matrix(1 0 0 -1 0 1685)"/>
    <path d="M297.125,631.625 C295.375,629.125 295.875,625.875 298.375,624.125 C300.875,622.375 304.125,622.875 305.875,625.375 C307.625,627.875 307.125,631.125 304.625,632.875 C302.125,634.625 298.875,634.125 297.125,631.625 Z" transform="matrix(1 0 0 -1 0 1257)"/>
    <path d="M69.125,563.625 C67.375,561.125 67.875,557.875 70.375,556.125 C72.875,554.375 76.375,554.875 77.875,557.375 C79.625,559.875 79.125,563.125 76.625,564.875 C74.375,566.625 70.875,566.125 69.125,563.625 Z" transform="matrix(1 0 0 -1 0 1121)"/>
    <path d="M367,121.75 C365.25,119.25 365.75,115.75 368.25,114 C370.75,112.25 374,112.75 376,115.25 C377.75,117.75 377.25,121 374.75,123 C372,124.75 368.75,124.25 367,121.75 Z" transform="matrix(1 0 0 -1 0 237)"/>
    <path d="M170,684.75 C168.25,682.25 168.75,678.75 171.25,677 C173.75,675.25 177.25,675.75 179,678.25 C180.75,680.75 180.25,684.25 177.75,686 C175.25,687.75 171.75,687.25 170,684.75 Z" transform="matrix(1 0 0 -1 0 1363)"/>
    <path d="M251,372.75 C249.25,370.25 249.75,366.75 252.25,365 C254.75,363.25 258.25,363.75 260,366.25 C261.75,368.75 261.25,372.25 258.75,374 C256.25,375.75 252.75,375.25 251,372.75 Z" transform="matrix(1 0 0 -1 0 739)"/>
    <path d="M196,15.6957624 C194.25,13.1957624 194.75,9.69576243 197.25,7.94576243 C199.75,6.19576243 203.25,6.69576243 205,9.19576243 C206.75,11.6957624 206.25,15.1957624 203.75,16.9457624 C201.5,18.9457624 198,18.1957624 196,15.6957624 Z" transform="matrix(1 0 0 -1 0 25)"/>
    <path d="M182,735.75 C180.25,733.25 180.75,729.75 183.25,728 C185.75,726.25 189.25,726.75 191,729.25 C192.75,731.75 192.25,735.25 189.75,737 C187.5,738.75 183.75,738.25 182,735.75 Z" transform="matrix(1 0 0 -1 0 1465)"/>
    <path d="M256,109.75 C254.25,107.25 254.75,103.75 257.25,102 C259.75,100.25 263.25,100.75 265,103.25 C266.75,105.75 266.25,109.25 263.75,111 C261.25,112.75 257.75,112.25 256,109.75 Z" transform="matrix(1 0 0 -1 0 213)"/>
    <path d="M7.92923757,935.875 C5.92923757,933.375 6.67923757,929.875 9.17923757,927.875 C11.6792376,926.125 15.1792376,926.625 17.1792376,929.125 C18.9292376,931.625 18.4292376,935.125 15.9292376,937.125 C13.1792376,938.875 9.67923757,938.375 7.92923757,935.875 Z" transform="matrix(1 0 0 -1 0 1865)"/>
    <path d="M312.820762,649.820762 C311.070762,647.320762 311.570762,643.820762 314.070762,641.820762 C316.570762,640.070762 320.070762,640.570762 322.070762,643.070762 C324.070762,645.570762 323.320762,649.320762 320.820762,651.070762 C318.070762,653.070762 314.570762,652.320762 312.820762,649.820762 Z" transform="matrix(1 0 0 -1 0 1293)"/>
    <path d="M169.820762,938.875 C168.070762,936.375 168.570762,932.625 171.070762,930.875 C173.570762,929.125 177.320762,929.625 179.070762,932.125 C181.070762,934.625 180.320762,938.375 177.820762,940.125 C175.320762,941.875 171.570762,941.375 169.820762,938.875 Z" transform="matrix(1 0 0 -1 0 1871)"/>
    <path d="M139.875,489.875 C137.875,487.375 138.625,483.625 141.125,481.875 C143.625,480.125 147.375,480.625 149.125,483.125 C151.125,485.625 150.375,489.375 147.875,491.125 C145.375,492.875 141.875,492.375 139.875,489.875 Z" transform="matrix(1 0 0 -1 0 973)"/>
    <path d="M301.875,476.839005 C299.875,474.339005 300.625,470.589005 303.125,468.839005 C305.625,466.839005 309.375,467.589005 311.125,470.089005 C313.125,472.589005 312.375,476.089005 309.875,478.089005 C307.375,480.089005 303.625,479.589005 301.875,476.839005 Z" transform="matrix(1 0 0 -1 0 947)"/>
    <path d="M347.875,392.820762 C345.875,390.320762 346.625,386.570762 349.125,384.820762 C351.625,383.070762 355.375,383.570762 357.125,386.070762 C359.125,388.570762 358.375,392.320762 355.875,394.070762 C353.125,396.070762 349.625,395.320762 347.875,392.820762 Z" transform="matrix(1 0 0 -1 0 779)"/>
    <path d="M202.820762,441.875 C201.070762,439.375 201.570762,435.625 204.070762,433.875 C206.570762,432.125 210.320762,432.625 212.070762,435.125 C214.070762,437.625 213.320762,441.375 210.820762,443.125 C208.320762,444.875 204.570762,444.375 202.820762,441.875 Z" transform="matrix(1 0 0 -1 0 877)"/>
    <path d="M379.804238,372.054238 C377.804238,369.554238 378.554238,365.804238 381.054238,363.804238 C383.554238,361.804238 387.304238,362.554238 389.304238,365.054238 C391.054238,367.554238 390.554238,371.304238 388.054238,373.304238 C385.304238,375.054238 381.554238,374.554238 379.804238,372.054238 Z" transform="matrix(1 0 0 -1 0 737)"/>
    <path d="M318.75,691.054238 C316.75,688.304238 317.5,684.804238 320,682.804238 C322.5,680.804238 326.25,681.554238 328.25,684.054238 C330.25,686.804238 329.5,690.304238 327,692.304238 C324.25,694.054238 320.75,693.554238 318.75,691.054238 Z" transform="matrix(1 0 0 -1 0 1375)"/>
    <path d="M378.75,323 C376.75,320.5 377.5,316.75 380,314.75 C382.75,312.75 386.25,313.5 388.25,316 C390.25,318.75 389.5,322.25 387,324.25 C384.25,326.25 380.5,325.5 378.75,323 Z" transform="matrix(1 0 0 -1 0 639)"/>
    <path d="M51.75,773.964005 C49.75,771.214005 50.5,767.714005 53,765.714005 C55.75,763.714005 59.25,764.464005 61.25,766.964005 C63.25,769.714005 62.5,773.214005 60,775.214005 C57.25,777.214005 53.5,776.714005 51.75,773.964005 Z" transform="matrix(1 0 0 -1 0 1541)"/>
    <path d="M164.75,633.964005 C162.75,631.214005 163.5,627.464005 166,625.714005 C168.75,623.714005 172.5,624.464005 174.25,626.964005 C176.25,629.714005 175.5,633.464005 173,635.214005 C170.5,637.214005 166.75,636.714005 164.75,633.964005 Z" transform="matrix(1 0 0 -1 0 1261)"/>
    <path d="M239.259106,774.665916 L172.578673,745.093191 C171.837779,744.844681 171.34385,745.093191 171.096885,745.838722 C170.849921,746.335743 171.096885,747.081274 171.590815,747.329784 L238.518213,776.902508 C239.012142,777.151018 239.753035,776.902508 240,776.405488 C240,775.411446 239.753035,774.914426 239.259106,774.665916 Z" transform="matrix(1 0 0 -1 0 1522)"/>
    <path d="M172.016216,782 L83.2297297,774.75 C82.7378378,774.75 82,775.25 82,775.75 C82,776.5 82.4918919,777 82.9837838,777 L171.77027,784.25 C172.508108,784.25 173,783.75 173,783.25 C173,782.5 172.754054,782 172.016216,782 L172.016216,782 Z" transform="matrix(1 0 0 -1 0 1559)"/>
    <path d="M105.694773,776.533248 L171.771802,792.783248 C172.263081,792.783248 173,792.533248 173,791.783248 C173,791.283248 172.75436,790.783248 172.263081,790.533248 L106.431692,774.283248 C105.940413,774.033248 105.203494,774.533248 105.203494,775.033248 C104.712215,775.783248 105.203494,776.533248 105.694773,776.533248 Z" transform="matrix(1 0 0 -1 0 1567)"/>
    <path d="M105.429943,782 L82.58759,790.75 C82.0963566,791 81.8507399,791.75 82.0963566,792.25 C82.3419733,792.75 83.0788234,793 83.5700568,793 L106.41241,784.25 C106.903643,784 107.14926,783.25 106.903643,782.75 C106.658027,782.25 105.921177,782 105.429943,782 Z" transform="matrix(1 0 0 -1 0 1575)"/>
    <path d="M170.216752,726.555043 L188.466752,776.189473 C188.716752,776.685817 189.216752,777.182162 189.966752,776.93399 C190.466752,776.685817 190.966752,775.941301 190.716752,775.444957 L172.466752,725.810527 C172.216752,725.314183 171.466752,724.817838 170.966752,725.06601 C170.466752,725.314183 170.216752,726.058699 170.216752,726.555043 Z" transform="matrix(1 0 0 -1 0 1502)"/>
    <path d="M82.5137261,727.08233 L189.183105,783.90266 C189.674669,784.150784 190.412015,783.90266 190.903579,783.406412 C191.149361,782.910165 190.903579,782.165794 190.412015,781.91767 L83.742636,725.09734 C83.251072,724.849216 82.5137261,725.09734 82.2679441,725.593588 C81.7763802,726.089835 82.0221621,726.834206 82.5137261,727.08233 L82.5137261,727.08233 Z" transform="matrix(1 0 0 -1 0 1509)"/>
    <path d="M104.592537,728.118778 L188.997506,792.733179 C189.49255,793.222682 190.235115,792.977931 190.730159,792.488428 C191.225203,791.998925 190.977681,791.26467 190.482637,790.775167 L106.077668,726.160766 C105.582625,725.916015 104.840059,725.916015 104.345015,726.405518 C103.849971,727.139772 103.849971,727.874027 104.592537,728.118778 Z" transform="matrix(1 0 0 -1 0 1519)"/>
    <path d="M188.926271,663.591739 L153.096938,726.418858 C152.849839,726.91356 153.096938,727.655612 153.591136,727.902963 C154.085333,728.150314 154.82663,727.902963 155.073729,727.408261 L190.903062,664.581142 C191.150161,664.08644 190.903062,663.344388 190.408864,663.097037 C189.667568,662.849686 189.17337,663.097037 188.926271,663.591739 Z" transform="matrix(1 0 0 -1 0 1391)"/>
    <path d="M190.101648,807.814898 L277.629121,728.097818 C278.123626,727.604214 278.123626,726.863807 277.629121,726.370203 C277.134615,725.876599 276.392857,725.876599 275.898352,726.370203 L275.898352,726.370203 L188.370879,806.087284 C187.876374,806.580888 187.876374,807.321294 188.370879,807.814898 C188.865385,808.061701 189.607143,808.061701 190.101648,807.814898 Z" transform="matrix(1 0 0 -1 0 1534)"/>
    <path d="M153.097154,566.575295 L197.921653,664.41045 C198.169302,664.903322 198.912249,665.149758 199.407548,664.903322 C199.902846,664.656886 200.150495,663.917577 199.902846,663.424705 L155.078347,565.58955 C154.830698,565.096678 154.087751,564.850242 153.592452,565.096678 C153.097154,565.343114 152.849505,566.082423 153.097154,566.575295 Z" transform="matrix(1 0 0 -1 0 1230)"/>
    <path d="M276.25,709.048458 L268.75,805.769453 C268.75,806.507781 269.25,807 269.75,807 C270.5,807 271,806.507781 271,806.015562 L271,806.015562 L278.25,709.294567 C278.25,708.556239 277.75,708.06402 277.25,708.06402 C276.75,707.817911 276.25,708.31013 276.25,709.048458 Z" transform="matrix(1 0 0 -1 0 1515)"/>
    <path d="M185,567.337037 L200,547.087037 C200.25,546.587037 200.25,545.837037 199.75,545.337037 C199.25,544.837037 198.5,545.087037 198,545.587037 L198,545.587037 L183,565.837037 C182.75,566.337037 182.75,567.087037 183.25,567.587037 C184,568.087037 184.75,568.087037 185,567.337037 Z" transform="matrix(1 0 0 -1 0 1113)"/>
    <path d="M187.24821,566.822976 L197.49821,600.192703 C197.74821,600.687069 198.24821,601.181436 198.99821,600.934253 C199.74821,600.687069 199.99821,600.192703 199.74821,599.451154 L199.74821,599.451154 L189.74821,565.834243 C189.49821,565.092694 188.74821,564.845511 188.24821,565.092694 C187.24821,565.58706 186.99821,566.081426 187.24821,566.822976 Z" transform="matrix(1 0 0 -1 0 1166)"/>
    <path d="M276.835305,784.30591 L342.422202,806.934577 C343.164695,807.180541 343.659691,806.688613 343.907188,806.196686 C344.154686,805.458794 343.907188,804.966867 343.164695,804.720903 L277.577798,782.092236 C277.082803,781.846273 276.340309,782.092236 276.092812,782.830128 C275.845314,783.322055 276.092812,784.059947 276.835305,784.30591 L276.835305,784.30591 Z" transform="matrix(1 0 0 -1 0 1589)"/>
    <path d="M269.547571,718.625 L344.94685,710.625 C345.688482,710.625 346.182904,709.875 345.935693,709.375 C345.935693,708.625 345.194061,708.125 344.699639,708.375 L269.05315,716.375 C268.311518,716.375 267.817096,717.125 268.064307,717.625 C268.311518,718.375 269.05315,718.875 269.547571,718.625 Z" transform="matrix(1 0 0 -1 0 1427)"/>
    <path d="M189.49889,709.591932 L270.730013,599.992534 C271.225325,599.499953 270.977669,598.76108 270.482357,598.268499 C269.987045,597.775917 269.244078,598.022208 268.748766,598.51479 L268.748766,598.51479 L187.269987,708.114187 C186.774675,708.606769 187.022331,709.345641 187.517643,709.838223 C188.508266,710.084514 189.251234,710.084514 189.49889,709.591932 Z" transform="matrix(1 0 0 -1 0 1308)"/>
    <path d="M341.902961,708.286208 L269.370066,782.893159 C268.876645,783.388886 268.876645,784.132477 269.370066,784.628205 C269.863487,785.123932 270.603618,785.123932 271.097039,784.628205 L343.629934,710.021254 C344.123355,709.525526 344.123355,708.781936 343.629934,708.286208 C343.136513,707.790481 342.396382,708.038345 341.902961,708.286208 Z" transform="matrix(1 0 0 -1 0 1493)"/>
    <path d="M187.625,545.99115 L182.875,599.761062 C182.875,600.504425 183.375,601 184.125,601 C184.875,601 185.375,600.504425 185.375,600.00885 L185.375,600.00885 L190.125,546.238938 C190.125,545.495575 189.625,545 189.125,545 C188.375,545 187.875,545.495575 187.625,545.99115 Z" transform="matrix(1 0 0 -1 0 1146)"/>
    <path d="M340.875,717.478571 L343.625,783.767857 C343.625,784.507143 344.125,785 344.875,785 C345.625,785 346.125,784.507143 346.125,783.767857 L346.125,783.767857 L343.375,717.232143 C343.375,716.492857 342.625,716 342.125,716 C341.375,716.246429 340.875,716.739286 340.875,717.478571 Z" transform="matrix(1 0 0 -1 0 1501)"/>
    <path d="M322.138489,297.369863 L255.372302,366.90411 C254.875899,367.39726 254.875899,368.136986 255.372302,368.630137 C255.868705,369.123288 256.613309,369.123288 257.109712,368.630137 L323.627698,299.09589 C324.124101,298.60274 324.124101,297.863014 323.627698,297.369863 C323.627698,296.876712 322.634892,296.876712 322.138489,297.369863 L322.138489,297.369863 Z" transform="matrix(1 0 0 -1 0 666)"/>
    <path d="M139.097669,546.831518 L183.661683,621.407283 C183.910644,621.902803 184.657527,622.150563 185.404409,621.902803 C185.902331,621.655043 186.151292,620.911762 185.902331,620.168482 L141.338317,545.592717 C140.840395,545.097197 140.093512,544.849437 139.595591,545.097197 C139.097669,545.592717 138.848708,546.335998 139.097669,546.831518 Z" transform="matrix(1 0 0 -1 0 1167)"/>
    <path d="M189.255975,619.875 L140.804688,598.625 C140.070578,598.375 139.336467,598.625 139.091764,599.375 C138.84706,600.125 139.091764,600.875 139.825874,601.125 L188.032457,622.375 C188.521864,622.625 189.500678,622.375 189.745382,621.625 C190.234788,620.875 189.990085,620.125 189.255975,619.875 L189.255975,619.875 Z" transform="matrix(1 0 0 -1 0 1221)"/>
    <path d="M140.451632,596.064709 L38.053692,619.447735 C37.311678,619.696491 36.8170019,620.194002 37.0643399,620.940269 C37.311678,621.686536 38.053692,622.184047 38.5483681,621.935291 L38.5483681,621.935291 L140.946308,598.552265 C141.688322,598.552265 142.182998,597.805998 141.93566,597.059731 C141.688322,596.313464 140.946308,595.815953 140.451632,596.064709 Z" transform="matrix(1 0 0 -1 0 1218)"/>
    <path d="M255.701029,195.746786 L202.096025,297.184364 C201.851253,297.921199 202.096025,298.658034 202.585569,298.903645 C203.075112,299.149257 203.809427,298.903645 204.298971,298.412422 L257.903975,196.974844 C258.148747,196.23801 257.903975,195.501175 257.414431,195.255563 C256.680116,194.76434 255.945801,195.009952 255.701029,195.746786 L255.701029,195.746786 Z" transform="matrix(1 0 0 -1 0 494)"/>
    <path d="M97.7758621,764.75 L29.2241379,761.75 C28.4896552,761.75 28,762.5 28,763 C28,763.75 28.4896552,764.25 29.2241379,764.25 L97.7758621,767.25 C98.5103448,767.25 99,766.75 99,766 C99,765.25 98.5103448,764.75 97.7758621,764.75 Z" transform="matrix(1 0 0 -1 0 1529)"/>
    <path d="M207.091617,297.821559 L255.465269,413.166405 C255.709581,413.907378 256.442515,414.154369 257.175449,413.907378 C257.908383,413.660387 258.152695,412.919414 257.908383,412.178441 L209.534731,296.833595 C209.290419,296.092622 208.557485,295.845631 207.824551,296.092622 C207.091617,296.339613 206.847305,297.080586 207.091617,297.821559 L207.091617,297.821559 Z" transform="matrix(1 0 0 -1 0 710)"/>
    <path d="M377.875,31.2333333 L366.375,176.52 C366.375,177.26 366.875,177.753333 367.625,178 C368.375,178 368.875,177.506667 369.125,176.766667 L369.125,176.766667 L380.625,31.48 C380.625,30.74 380.125,30.2466667 379.375,30 C378.625,30 378.125,30.4933333 377.875,31.2333333 Z" transform="matrix(1 0 0 -1 0 208)"/>
    <path d="M208.004916,453.730949 L267.482012,414.243427 C267.977654,413.749833 268.225475,413.009442 267.729833,412.515848 C267.23419,412.022254 266.490727,411.775457 265.995084,412.269051 L265.995084,412.269051 L206.517988,451.756573 C206.022346,452.250167 205.774525,452.990558 206.270167,453.484152 C206.517988,453.977746 207.261452,454.224543 208.004916,453.730949 Z" transform="matrix(1 0 0 -1 0 866)"/>
    <path d="M98.375,776.631206 L114.125,764.631206 C114.625,764.131206 114.875,763.381206 114.375,762.631206 C113.875,762.131206 113.125,761.881206 112.625,762.381206 L112.625,762.381206 L96.875,774.381206 C96.375,774.881206 96.125,775.631206 96.625,776.131206 C96.875,776.881206 97.625,777.131206 98.375,776.631206 L98.375,776.631206 Z" transform="matrix(1 0 0 -1 0 1539)"/>
    <path d="M140.23057,614 L232.523316,621.75 C233.261658,621.75 234,621.25 234,620.5 C234,619.75 233.507772,619 232.76943,619 L140.476684,611.25 C139.738342,611.25 139.246114,611.75 139,612.5 C139,613.25 139.738342,614 140.23057,614 Z" transform="matrix(1 0 0 -1 0 1233)"/>
    <path d="M378.656388,117.526755 L325.370044,175.659895 C324.876652,176.152549 324.876652,177.137856 325.370044,177.63051 C325.863436,178.123163 326.85022,178.123163 327.343612,177.63051 L380.629956,119.49737 C381.123348,119.004716 381.123348,118.265736 380.629956,117.773082 C379.889868,116.787774 379.14978,116.787774 378.656388,117.526755 Z" transform="matrix(1 0 0 -1 0 295)"/>
    <path d="M379.172903,160.985641 L333.836129,175.485641 C333.092903,175.735641 332.845161,176.485641 333.092903,177.235641 C333.340645,177.985641 334.083871,178.235641 334.827097,177.985641 L380.163871,163.485641 C380.907097,163.235641 381.154839,162.485641 380.907097,161.985641 C380.659355,161.235641 379.916129,160.735641 379.172903,160.985641 Z" transform="matrix(1 0 0 -1 0 339)"/>
    <path d="M267.575046,485.903825 L365.166152,453.543475 C365.90735,453.29832 366.154416,452.562858 365.90735,451.827395 C365.660284,451.091933 364.919086,450.846779 364.177888,451.091933 L266.833848,483.697437 C266.09265,483.942591 265.845584,484.678054 266.09265,485.413516 C266.339716,485.903825 267.080914,486.148979 267.575046,485.903825 Z" transform="matrix(1 0 0 -1 0 937)"/>
    <path d="M99.375,842.526946 L98.375,763.227545 C98.375,762.491018 97.875,762 96.875,762 C96.125,762 95.625,762.736527 95.625,763.473054 L96.625,842.772455 C96.625,843.508982 97.125,844 97.875,844 C98.875,843.754491 99.375,843.263473 99.375,842.526946 L99.375,842.526946 Z" transform="matrix(1 0 0 -1 0 1606)"/>
    <path d="M267.744001,540.012855 L206.482486,451.587995 C205.990426,450.851121 205.252335,450.851121 204.514245,451.34237 C204.022185,451.83362 203.776154,452.570494 204.268215,453.061743 L265.529729,541.486603 C266.02179,541.977852 266.75988,542.223477 267.251941,541.732227 C267.990031,541.486603 268.236061,540.749729 267.744001,540.012855 Z" transform="matrix(1 0 0 -1 0 993)"/>
    <path d="M113.704549,764.656854 L29.2313872,773.656854 C28.4925549,773.656854 28,774.406854 28,775.156854 C28,775.906854 28.7388323,776.406854 29.4776646,776.406854 L113.950826,767.406854 C114.689659,767.406854 115.182213,766.656854 114.935936,765.906854 C114.935936,764.906854 114.197104,764.406854 113.704549,764.656854 Z" transform="matrix(1 0 0 -1 0 1541)"/>
    <path d="M368.904221,118.017847 L327.399562,30.7495504 C327.155417,30.0099886 326.178837,29.763468 325.690546,30.2565092 C325.202256,30.5030298 324.713966,31.2425917 325.202256,31.9821535 L366.706915,119.25045 C366.95106,119.990011 367.683495,120.236532 368.415931,119.743491 C368.904221,119.49697 369.148366,118.757408 368.904221,118.017847 Z" transform="matrix(1 0 0 -1 0 150)"/>
    <path d="M380.125,485.229675 L362.375,603.52439 C362.375,604.262195 362.875,605 363.375,605 C364.125,605 364.875,604.50813 364.875,603.770325 L382.625,485.47561 C382.625,484.737805 382.375,484 381.625,484 C380.875,484 380.375,484.49187 380.125,485.229675 L380.125,485.229675 Z" transform="matrix(1 0 0 -1 0 1089)"/>
    <path d="M382.632567,700.750732 L305.226685,602.517191 C304.736775,602.022312 304.001909,601.774872 303.511998,602.269751 C303.022088,602.764631 302.777132,603.50695 303.267043,604.249268 L380.91788,702.482809 C381.40779,702.977688 382.142656,703.225128 382.632567,702.730249 C383.122478,702.235369 383.122478,701.49305 382.632567,700.750732 Z" transform="matrix(1 0 0 -1 0 1305)"/>
    <path d="M368.913239,162.206782 L334.803504,31.0522323 C334.554528,30.3112462 333.807599,29.8172554 333.060671,30.0642508 C332.313742,30.3112462 331.81579,30.805237 332.064766,31.7932185 L366.174502,162.947768 C366.423478,163.688754 366.92143,164.182745 367.668359,163.935749 C368.913239,163.688754 369.162216,162.947768 368.913239,162.206782 L368.913239,162.206782 Z" transform="matrix(1 0 0 -1 0 194)"/>
    <path d="M37.4057859,561.360248 L72.6733223,598.627329 C73.1631491,599.124224 73.8978895,599.124224 74.6326298,598.627329 C75.1224567,598.130435 75.1224567,597.136646 74.6326298,596.639752 L39.12018,559.372671 C38.6303531,558.875776 37.8956128,558.875776 37.1608724,559.372671 C36.915959,560.118012 36.915959,560.863354 37.4057859,561.360248 Z" transform="matrix(1 0 0 -1 0 1158)"/>
    <path d="M382.012669,626.273827 L301.792037,602.06298 C301.051539,601.820871 300.311041,602.305088 300.064208,603.031413 C299.817376,603.757739 300.311041,604.484064 301.051539,604.726173 L301.051539,604.726173 L381.272171,628.93702 C382.012669,629.179129 382.753167,628.694912 383,627.968587 C383,627.000153 382.506335,626.515936 382.012669,626.273827 Z" transform="matrix(1 0 0 -1 0 1231)"/>
    <path d="M208.875,540.764151 L206.625,412.235849 C206.625,411.49434 205.875,411 205.375,411 C204.625,411 204.125,411.741509 204.125,412.235849 L204.125,412.235849 L206.375,540.764151 C206.375,541.50566 206.875,542 207.625,542 C208.375,542 208.875,541.50566 208.875,540.764151 Z" transform="matrix(1 0 0 -1 0 953)"/>
    <path d="M378.5,118.239837 L370,176.512195 C370,177.256098 370.5,178 371.25,178 C372,178 372.75,177.504065 372.75,176.760163 L381,118.487805 C381,117.743902 380.5,117.247967 380,117 C379,117 378.5,117.743902 378.5,118.239837 Z" transform="matrix(1 0 0 -1 0 295)"/>
    <path d="M327.592484,161.776596 L335.842484,118.468085 C336.092484,117.734043 335.592484,117 334.842484,117 C334.092484,117 333.592484,117.244681 333.342484,117.978723 L325.092484,161.531915 C325.092484,162.265957 325.342484,163 326.092484,163 C326.842484,163 327.342484,162.510638 327.592484,161.776596 Z" transform="matrix(1 0 0 -1 0 280)"/>
    <path d="M233.557108,702.412005 L304.657077,614.232769 C305.149119,613.74152 305.149119,612.759022 304.411057,612.267773 C303.672995,611.776523 302.934933,612.022148 302.442892,612.513397 L231.342923,700.692633 C230.850881,701.183882 230.850881,702.16638 231.588943,702.65763 C232.327005,703.148879 233.065067,703.148879 233.557108,702.412005 Z" transform="matrix(1 0 0 -1 0 1315)"/>
    <path d="M115.124268,842.263817 L98.3742679,774.056624 C98.1242679,773.312545 97.3742679,772.816493 96.8742679,773.064519 C96.1242679,773.312545 95.6242679,774.056624 95.8742679,774.800702 L112.624268,843.007895 C112.874268,843.751974 113.624268,844 114.374268,844 C114.874268,843.503948 115.374268,843.007895 115.124268,842.263817 Z" transform="matrix(1 0 0 -1 0 1617)"/>
    <path d="M369.25,118.962443 L372.5,31.4827074 C372.5,30.7413537 372,30 371.25,30 C370.5,30 369.75,30.4942358 369.75,31.2355895 L366.5,118.715326 C366.5,119.456679 367,119.950915 367.75,119.950915 C368.5,120.198033 369,119.456679 369.25,118.962443 Z" transform="matrix(1 0 0 -1 0 150)"/>
    <path d="M206.599165,613.190629 L233.906054,540.827661 C234.156576,540.084205 233.906054,539.34075 233.154489,539.092932 C232.402923,538.845114 231.651357,539.092932 231.400835,539.836387 L231.400835,539.836387 L204.093946,612.199355 C203.843424,612.94281 204.093946,613.686265 204.845511,613.934084 C205.597077,614.181902 206.348643,613.686265 206.599165,613.190629 Z" transform="matrix(1 0 0 -1 0 1153)"/>
    <path d="M232.793115,629.625 L301.947828,614.125 C302.688772,613.875 303.182734,613.125 302.935753,612.375 C302.688772,611.625 301.947828,611.125 301.206885,611.375 L232.052172,627.125 C231.311228,627.375 230.817266,628.125 231.064247,628.625 C231.558209,629.375 232.052172,629.875 232.793115,629.625 L232.793115,629.625 Z" transform="matrix(1 0 0 -1 0 1241)"/>
    <path d="M302.5,628.285523 L300.25,701.763005 C300.25,702.505202 300.75,703 301.5,703 C302.25,703 302.75,702.505202 302.75,701.763005 L304.75,628.532921 C304.75,627.790725 304.25,627.048528 303.5,627.048528 C303,626.801129 302.5,627.543326 302.5,628.285523 L302.5,628.285523 Z" transform="matrix(1 0 0 -1 0 1330)"/>
    <path d="M326.284347,119.875 L371.516963,119.875 C372.258482,119.875 373,119.125 373,118.375 C373,117.625 372.258482,117.125 371.516963,117.125 L326.284347,117.375 C325.542829,117.375 325.048484,117.875 325.048484,118.625 C324.801311,119.375 325.542829,119.875 326.284347,119.875 L326.284347,119.875 Z" transform="matrix(1 0 0 -1 0 237)"/>
    <path d="M206.345387,629.630535 L302.629676,542.43684 C303.123441,541.94422 303.123441,541.205291 302.629676,540.466361 C302.13591,539.973741 301.395262,539.727431 300.654613,540.466361 L204.370324,627.660056 C203.876559,628.152676 203.876559,628.891606 204.370324,629.630535 C204.86409,630.123155 205.604738,630.123155 206.345387,629.630535 Z" transform="matrix(1 0 0 -1 0 1170)"/>
    <path d="M73.2362637,541.74969 L205.516484,561.74969 C206.258242,561.99969 207,561.24969 207,560.74969 C207,559.99969 206.505495,559.24969 205.763736,559.24969 L205.763736,559.24969 L73.4835165,539.24969 C72.7417582,538.99969 72,539.74969 72,540.49969 C72,540.99969 72.4945055,541.74969 73.2362637,541.74969 Z" transform="matrix(1 0 0 -1 0 1101)"/>
    <path d="M371.718972,160.77095 L335.212343,117.367823 C334.725588,116.877392 333.995455,116.877392 333.5087,117.367823 C333.021945,117.858254 332.778568,118.5939 333.265323,119.084331 L369.771952,162.487458 C370.258707,162.977889 370.988839,163.223104 371.718972,162.732674 C371.962349,161.997027 372.205727,161.261381 371.718972,160.77095 Z" transform="matrix(1 0 0 -1 0 280)"/>
    <path d="M112.254436,682.109978 L172.408467,775.362429 C172.897525,776.098633 173.63111,776.098633 174.364696,775.853231 C175.098282,775.362429 175.098282,774.626225 174.853753,773.890022 L174.853753,773.890022 L114.455194,680.637571 C114.210665,679.901367 113.232551,679.901367 112.743494,680.146769 C112.009908,680.637571 111.765379,681.373775 112.254436,682.109978 Z" transform="matrix(1 0 0 -1 0 1456)"/>
    <path d="M256.628641,411.675532 L208.104369,368.367021 C207.609223,367.87766 206.866505,367.87766 206.371359,368.367021 C205.876214,368.856383 205.876214,369.590426 206.371359,370.079787 L254.648058,413.632979 C255.143204,414.12234 256.133495,414.12234 256.628641,413.632979 C257.123786,412.898936 257.123786,412.164894 256.628641,411.675532 Z" transform="matrix(1 0 0 -1 0 782)"/>
    <path d="M233.630438,680.871366 L175.485964,612.513952 C174.993215,612.022172 174.007715,611.776282 173.514965,612.268062 C173.022216,612.759842 172.775841,613.497512 173.26859,614.235182 L231.659439,682.592596 C232.152188,683.084376 232.891313,683.084376 233.630438,682.838486 C234.123187,682.346706 234.123187,681.609036 233.630438,680.871366 Z" transform="matrix(1 0 0 -1 0 1295)"/>
    <path d="M333.757889,105.282293 L259.515545,160.533224 C259.022241,161.022171 258.775588,161.75559 259.268893,162.48901 C259.762198,162.977956 260.502154,163.222429 261.242111,162.733483 L261.242111,162.733483 L335.484455,107.238078 C335.977759,106.749132 336.224412,106.015713 335.731107,105.282293 C335.237802,105.03782 334.497846,104.793347 333.757889,105.282293 Z" transform="matrix(1 0 0 -1 0 268)"/>
    <path d="M11.3436367,844.336898 L95.6579361,933.631016 C96.1510022,934.122995 96.8906013,934.122995 97.6302004,933.631016 C98.1232665,933.139037 98.1232665,932.40107 97.6302004,931.663102 L13.5624341,842.368984 C13.069368,841.877005 12.0832358,841.877005 11.5901698,842.368984 C10.8505706,842.860963 10.8505706,843.59893 11.3436367,844.336898 Z" transform="matrix(1 0 0 -1 0 1776)"/>
    <path d="M302.125,647.779748 L316.125,701.955672 C316.375,702.691092 317.125,703.181372 317.875,702.936232 C318.625,702.691092 319.125,701.955672 318.875,701.220252 L304.875,647.044328 C304.625,646.308908 303.875,645.818628 303.125,646.063768 C302.375,646.308908 301.875,647.044328 302.125,647.779748 L302.125,647.779748 Z" transform="matrix(1 0 0 -1 0 1349)"/>
    <path d="M371.519481,105 L260.233766,117.25 C259.493506,117.25 259,118 259,118.75 C259,119.5 259.74026,120 260.480519,120 L371.766234,107.75 C372.506494,107.75 373,107 373,106.25 C372.753247,105.5 372.25974,105 371.519481,105 Z" transform="matrix(1 0 0 -1 0 225)"/>
    <path d="M173.509986,842.51418 L96.269028,934.763827 C95.7754756,935.255825 96.0222518,936.239821 96.5158042,936.731819 C97.0093567,937.223817 97.7496854,936.977818 98.2432378,936.48582 L175.730972,844.236173 C176.224524,843.744175 175.977748,842.760179 175.484196,842.268181 C174.743867,841.776183 174.003538,842.022182 173.509986,842.51418 Z" transform="matrix(1 0 0 -1 0 1779)"/>
    <path d="M175.782516,732.945996 L188.032516,681.484467 C188.032516,680.742234 187.782516,680 186.782516,680 C186.032516,680 185.532516,680.247411 185.282516,680.989645 L173.032516,732.451174 C172.782516,733.193407 173.282516,733.935641 174.032516,733.935641 C174.782516,734.183052 175.532516,733.68823 175.782516,732.945996 Z" transform="matrix(1 0 0 -1 0 1414)"/>
    <path d="M73.3674497,487.091054 L143.672819,561.63099 C144.162752,562.123003 145.142617,562.123003 145.63255,561.63099 C146.122483,561.138978 146.122483,560.154952 145.63255,559.662939 L75.3271812,485.36901 C74.8372483,484.876997 73.8573826,484.876997 73.3674497,485.36901 C72.8775168,485.615016 72.8775168,486.599042 73.3674497,487.091054 Z" transform="matrix(1 0 0 -1 0 1047)"/>
    <path d="M201.715445,107.172073 L260.744082,13.2177437 C261.235987,12.481809 260.990034,11.7458743 260.252176,11.2552512 C259.514318,10.7646281 258.776461,11.0099396 258.284555,11.7458743 L199.255918,105.945516 C198.764013,106.436139 199.009966,107.417385 199.747824,107.908008 C200.485682,108.15332 201.469492,107.908008 201.715445,107.172073 Z" transform="matrix(1 0 0 -1 0 119)"/>
    <path d="M317.927498,680.250369 L174.785616,646.063522 C174.047771,645.81933 173.309927,646.307713 173.063978,647.040289 C172.81803,647.772864 173.309927,648.505439 174.047771,648.749631 L174.047771,648.749631 L317.189654,682.936478 C317.927498,683.18067 318.665343,682.692287 318.911291,681.959711 C319.15724,681.227136 318.911291,680.494561 317.927498,680.250369 L317.927498,680.250369 Z" transform="matrix(1 0 0 -1 0 1329)"/>
    <path d="M305.439464,368.83065 L255.092549,472.938758 C254.845751,473.677113 255.092549,474.415469 255.832945,474.907706 C256.573341,475.153824 257.313737,474.907706 257.560536,474.16935 L307.907451,370.061242 C308.154249,369.322887 307.907451,368.584531 307.167055,368.092294 C306.673458,367.846176 305.933062,368.092294 305.439464,368.83065 Z" transform="matrix(1 0 0 -1 0 843)"/>
    <path d="M352.205249,367.875 L255.053131,388.375 C254.311512,388.625 253.817099,389.375 254.064306,390.125 C254.311512,390.875 255.053131,391.375 255.794751,391.125 L352.946869,370.625 C353.688488,370.375 354.182901,369.625 353.935694,368.875 C353.688488,368.125 352.946869,367.625 352.205249,367.875 Z" transform="matrix(1 0 0 -1 0 759)"/>
    <path d="M206.342618,370.317983 L254.519816,439.4093 C255.01142,440.149564 255.748826,440.149564 256.486232,439.656054 C256.977836,439.162545 257.223638,438.422281 256.732034,437.682017 L208.554836,368.5907 C208.063232,367.850436 207.325826,367.850436 206.58842,368.343946 C205.851014,368.5907 205.851014,369.577719 206.342618,370.317983 Z" transform="matrix(1 0 0 -1 0 808)"/>
    <path d="M13.2312312,936.5 L174.522523,933.5 C175.261261,933.5 176,932.75 176,932 C176,931.25 175.261261,930.5 174.522523,930.5 L174.522523,930.5 L13.2312312,933.5 C12.4924925,933.5 12,934.25 12,935 C12,936 12.4924925,936.5 13.2312312,936.5 Z" transform="matrix(1 0 0 -1 0 1867)"/>
    <path d="M144.482036,474.5 L306.517964,487.25 C307.258982,487.25 308,486.75 308,486 C308,485.25 307.505988,484.5 306.76497,484.5 L306.76497,484.5 L144.482036,471.75 C143.741018,471.75 143,472.25 143,473 C143.247006,473.75 143.741018,474.5 144.482036,474.5 Z" transform="matrix(1 0 0 -1 0 959)"/>
    <path d="M305.095907,390.227605 L351.300914,474.250809 C351.545385,474.990016 352.523269,475.236419 353.256682,474.743614 C353.990094,474.250809 354.234565,473.511602 353.745624,472.772395 L307.540616,388.749191 C307.296146,388.009984 306.318262,387.763581 305.584849,388.256386 C305.095907,388.502789 304.851436,389.488398 305.095907,390.227605 L305.095907,390.227605 Z" transform="matrix(1 0 0 -1 0 863)"/>
    <path d="M143.514397,439.495867 L206.762881,487.73034 C207.501191,488.225052 208.2395,487.977696 208.731706,487.482983 C209.223912,486.740915 208.977809,485.998846 208.485603,485.504133 L145.237119,437.26966 C144.744912,436.774948 143.7605,437.022304 143.268294,437.517017 C142.776088,438.011729 143.022191,439.001154 143.514397,439.495867 Z" transform="matrix(1 0 0 -1 0 925)"/>
    <path d="M208.720195,474.934639 L307.017032,439.549453 C307.754258,439.303723 308,438.566532 308,437.82934 C307.754258,437.092149 307.017032,436.846418 306.279805,437.092149 L207.982968,472.477335 C207.245742,472.723065 207,473.460256 207,474.197448 C207.245742,474.688909 207.982968,475.18037 208.720195,474.934639 Z" transform="matrix(1 0 0 -1 0 912)"/>
    <path d="M207.049922,391.042793 L352.21072,439.935439 C352.950078,440.183625 353.689437,439.687253 353.93589,438.942695 C354.182343,438.198137 353.689437,437.453579 352.950078,437.205393 L207.78928,388.064561 C207.049922,387.816375 206.310563,388.312747 206.06411,389.057305 C205.817657,389.801863 206.310563,390.794607 207.049922,391.042793 Z" transform="matrix(1 0 0 -1 0 828)"/>
    <path d="M318.975481,686.771429 L324.975481,646.474286 C325.225481,645.737143 324.475481,645 323.725481,645 C322.975481,645 322.225481,645.491429 321.975481,646.228571 L315.975481,686.525714 C315.975481,687.262857 316.475481,688 317.225481,688 C317.975481,688 318.725481,687.508571 318.975481,686.771429 Z" transform="matrix(1 0 0 -1 0 1333)"/>
    <path d="M305.269071,369.317421 L383.509589,474.409443 C384.003221,475.149527 384.743667,475.149527 385.484114,474.656138 C385.977745,474.162748 386.22456,473.175968 385.730929,472.682579 L307.490411,367.590557 C306.996779,366.850473 306.009517,366.850473 305.515886,367.343862 C305.022255,367.837252 304.77544,368.824032 305.269071,369.317421 L305.269071,369.317421 Z" transform="matrix(1 0 0 -1 0 842)"/>
    <path d="M351.64657,370.125 L383.750133,391.375 C384.496727,391.875 385.243322,391.625 385.741052,390.875 C386.238781,390.125 385.989916,389.375 385.243322,388.875 L353.139759,367.625 C352.393164,367.125 351.64657,367.375 351.14884,368.125 C350.899975,368.875 350.899975,369.875 351.64657,370.125 Z" transform="matrix(1 0 0 -1 0 759)"/>
    <path d="M352.09116,320.067202 L382.234807,390.166948 C382.477901,390.907439 383.450276,391.154269 384.179558,390.907439 C384.90884,390.660609 385.151934,389.673288 384.90884,388.932798 L354.765193,318.833052 C354.522099,318.092561 353.549724,317.845731 352.820442,318.092561 C352.09116,318.586221 351.848066,319.326712 352.09116,320.067202 Z" transform="matrix(1 0 0 -1 0 709)"/>
    <path d="M384.375,368.521327 L385.625,319.478673 C385.625,318.739336 384.875,318 384.125,318 C383.375,318 382.625,318.492891 382.625,319.478673 L381.375,368.521327 C381.375,369.260664 382.125,370 382.875,370 C383.625,370 384.375,369.260664 384.375,368.521327 Z" transform="matrix(1 0 0 -1 0 688)"/>
    <path d="M323.080057,629.064623 L169.830206,685.954261 C169.092245,686.202687 168.846258,686.947966 169.092245,687.941671 C169.338232,688.686951 170.076193,689.183803 170.814154,688.935377 L170.814154,688.935377 L324.064005,632.045739 C324.801965,631.797313 325.293939,630.803608 324.801965,630.058329 C324.555978,629.313049 323.818018,628.816197 323.080057,629.064623 Z" transform="matrix(1 0 0 -1 0 1318)"/>
  </g>
</svg>
