<svg xmlns="http://www.w3.org/2000/svg" width="445" height="903" viewBox="0 0 445 903">
  <g fill="#3AADD4" opacity=".45" transform="translate(-6 -7)">
    <path d="M176.875,773.125 C176.625,775.625 174.375,777.125 171.875,776.875 C169.375,776.375 167.875,774.375 168.125,771.875 C168.625,769.375 170.875,767.875 173.125,768.125 C175.625,768.625 177.125,770.875 176.875,773.125 Z" transform="matrix(1 0 0 -1 0 1545)"/>
    <path d="M195.845581,807.125 C195.595581,809.625 193.095581,811.125 190.845581,810.875 C188.345581,810.625 186.845581,808.125 187.095581,805.875 C187.595581,803.375 189.845581,801.875 192.345581,802.125 C194.595581,802.375 196.345581,804.875 195.845581,807.125 Z" transform="matrix(1 0 0 -1 0 1613)"/>
    <path d="M139.001657,645.25 C138.501657,647.75 136.251657,649.25 133.751657,649 C131.251657,648.5 129.751657,646.25 130.001657,643.75 C130.501657,641.25 132.751657,639.75 135.001657,640 C137.501657,640.5 139.251657,642.75 139.001657,645.25 Z" transform="matrix(1 0 0 -1 0 1289)"/>
    <path d="M153.21931,354.223311 C152.71931,356.723311 150.46931,358.723311 147.71931,358.223311 C145.21931,357.723311 143.46931,355.473311 143.71931,352.723311 C144.21931,350.223311 146.46931,348.473311 149.21931,348.723311 C151.96931,349.223311 153.71931,351.473311 153.21931,354.223311 Z" transform="matrix(1 0 0 -1 0 707)"/>
    <path d="M191.25,455.25 C190.75,457.75 188.5,459.75 185.75,459.25 C183.25,458.75 181.5,456.5 181.75,453.75 C182.25,451.25 184.5,449.25 187.25,449.75 C189.75,450.25 191.5,452.5 191.25,455.25 Z" transform="matrix(1 0 0 -1 0 909)"/>
    <path d="M316.375,132.155723 C315.875,134.905723 313.375,136.655723 310.625,136.405723 C307.875,135.905723 306.125,133.405723 306.625,130.655723 C307.125,127.905723 309.625,126.155723 312.375,126.655723 C315.125,126.905723 316.875,129.405723 316.375,132.155723 Z" transform="matrix(1 0 0 -1 0 263)"/>
    <path d="M244.40569,684.375 C243.90569,687.125 241.40569,688.875 238.65569,688.375 C235.90569,687.875 234.15569,685.375 234.65569,682.625 C235.15569,679.875 237.65569,678.125 240.40569,678.625 C242.90569,679.125 244.65569,681.625 244.40569,684.375 Z" transform="matrix(1 0 0 -1 0 1367)"/>
    <path d="M216.375,459.25 C215.875,462 213.375,463.75 210.625,463.5 C207.875,463 206.125,460.5 206.625,457.75 C207.125,455 209.625,453.25 212.375,453.5 C215.125,454 216.875,456.5 216.375,459.25 Z" transform="matrix(1 0 0 -1 0 917)"/>
    <path d="M175.526581,424.375 C175.026581,427.125 172.526581,428.875 169.776581,428.625 C167.026581,427.875 165.026581,425.375 165.526581,422.625 C166.026581,419.875 168.526581,418.125 171.276581,418.375 C174.026581,418.875 175.776581,421.625 175.526581,424.375 Z" transform="matrix(1 0 0 -1 0 847)"/>
    <path d="M402.469465,147.155723 C401.969465,149.905723 399.469465,151.655723 396.719465,151.405723 C393.969465,150.905723 392.219465,148.405723 392.469465,145.655723 C392.969465,142.905723 395.469465,141.155723 398.219465,141.655723 C401.219465,141.905723 402.969465,144.405723 402.469465,147.155723 Z" transform="matrix(1 0 0 -1 0 293)"/>
    <path d="M232.5,159.25 C232,162 229.5,164 226.75,163.5 C224,163 222,160.5 222.5,157.75 C223,155 225.5,153 228.25,153.5 C231,153.75 233,156.5 232.5,159.25 Z" transform="matrix(1 0 0 -1 0 317)"/>
    <path d="M333.625,190.25 C333.125,193 330.625,195 327.625,194.5 C324.875,194 322.875,191.5 323.375,188.75 C323.875,186 326.375,184 329.375,184.5 C332.125,184.75 334.125,187.25 333.625,190.25 Z" transform="matrix(1 0 0 -1 0 379)"/>
    <path d="M162.625,123.375 C162.125,126.125 159.625,128.125 156.625,127.625 C153.875,127.125 151.875,124.625 152.375,121.625 C152.875,118.875 155.375,116.875 158.375,117.375 C161.125,117.875 163.125,120.375 162.625,123.375 Z" transform="matrix(1 0 0 -1 0 245)"/>
    <path d="M340.625,686.375 C340.125,689.125 337.625,691.125 334.625,690.625 C331.875,690.125 329.875,687.625 330.375,684.625 C330.875,681.875 333.375,679.875 336.375,680.375 C339.125,680.875 341.125,683.375 340.625,686.375 Z" transform="matrix(1 0 0 -1 0 1371)"/>
    <path d="M194.625,375.375 C194.125,378.125 191.625,380.125 188.625,379.625 C185.875,379.125 183.875,376.625 184.375,373.625 C184.875,370.875 187.375,368.875 190.375,369.375 C193.125,370.125 195.125,372.625 194.625,375.375 Z" transform="matrix(1 0 0 -1 0 749)"/>
    <path d="M283.625,319.375 C283.125,322.125 280.625,324.125 277.625,323.625 C274.875,323.125 272.875,320.625 273.375,317.625 C273.875,314.875 276.375,312.875 279.375,313.375 C282.125,313.875 284.125,316.375 283.625,319.375 Z" transform="matrix(1 0 0 -1 0 637)"/>
    <path d="M224.651581,584.375 C224.151581,587.125 221.401581,589.125 218.651581,588.625 C215.901581,588.125 213.901581,585.625 214.401581,582.625 C214.901581,579.875 217.651581,577.875 220.401581,578.375 C223.151581,578.875 224.901581,581.625 224.651581,584.375 Z" transform="matrix(1 0 0 -1 0 1167)"/>
    <path d="M210.625,13.3710452 C210.125,16.3710452 207.625,18.1210452 204.625,17.6210452 C201.875,17.1210452 199.875,14.3710452 200.375,11.6210452 C200.875,8.87104517 203.625,6.87104517 206.375,7.37104517 C209.125,7.87104517 211.125,10.6210452 210.625,13.3710452 Z" transform="matrix(1 0 0 -1 0 25)"/>
    <path d="M275.625,810.375 C275.125,813.125 272.375,815.125 269.625,814.625 C266.875,814.125 264.875,811.625 265.375,808.625 C265.875,805.875 268.375,803.875 271.375,804.375 C274.125,804.875 276.125,807.625 275.625,810.375 Z" transform="matrix(1 0 0 -1 0 1619)"/>
    <path d="M450.625,720.375 C450.125,723.125 447.375,725.125 444.625,724.625 C441.875,724.125 439.875,721.375 440.375,718.625 C440.875,715.875 443.375,713.875 446.375,714.375 C449.125,714.875 451.125,717.625 450.625,720.375 Z" transform="matrix(1 0 0 -1 0 1439)"/>
    <path d="M275.625,120.371045 C275.125,123.371045 272.375,125.121045 269.625,124.621045 C266.875,124.121045 264.875,121.371045 265.375,118.621045 C265.875,115.871045 268.375,113.871045 271.375,114.371045 C274.125,114.871045 276.125,117.371045 275.625,120.371045 Z" transform="matrix(1 0 0 -1 0 239)"/>
    <path d="M35.6515807,558.375 C35.1515807,561.125 32.4015807,563.125 29.6515807,562.625 C26.9015807,562.125 24.9015807,559.375 25.4015807,556.625 C25.9015807,553.875 28.6515807,551.875 31.4015807,552.375 C34.1515807,552.875 35.9015807,555.625 35.6515807,558.375 Z" transform="matrix(1 0 0 -1 0 1115)"/>
    <path d="M170.722263,194.469433 C170.222263,197.469433 167.472263,199.219433 164.722263,198.719433 C161.972263,198.219433 159.972263,195.469433 160.222263,192.719433 C160.722263,189.719433 163.472263,187.969433 166.222263,188.219433 C169.222263,188.969433 171.222263,191.469433 170.722263,194.469433 Z" transform="matrix(1 0 0 -1 0 387)"/>
    <path d="M386.625,905.472125 C386.125,908.222125 383.375,910.222125 380.625,909.722125 C377.875,909.222125 375.875,906.472125 376.375,903.722125 C376.875,900.972125 379.625,898.972125 382.375,899.222125 C385.125,899.972125 387.125,902.722125 386.625,905.472125 Z" transform="matrix(1 0 0 -1 0 1809)"/>
    <path d="M293.722263,570.251263 C293.222263,573.001263 290.472263,575.001263 287.722263,574.751263 C284.972263,574.251263 282.972263,571.501263 283.222263,568.751263 C283.722263,565.751263 286.472263,564.001263 289.222263,564.251263 C292.222263,564.751263 294.222263,567.251263 293.722263,570.251263 Z" transform="matrix(1 0 0 -1 0 1139)"/>
    <path d="M104.75,247.25 C104.25,250.25 101.5,252.25 98.75,251.75 C95.75,251.25 93.75,248.5 94.25,245.75 C94.75,242.75 97.5,240.75 100.25,241.25 C103.25,241.5 105.25,244.25 104.75,247.25 Z" transform="matrix(1 0 0 -1 0 493)"/>
    <path d="M353.875,814.25 C353.375,817.25 350.625,819.25 347.625,818.75 C344.625,818.25 342.625,815.5 343.125,812.75 C343.625,809.75 346.375,807.75 349.375,808.25 C352.375,808.75 354.375,811.5 353.875,814.25 Z" transform="matrix(1 0 0 -1 0 1627)"/>
    <path d="M317.875,789.375 C317.375,792.375 314.625,794.375 311.625,793.875 C308.625,793.375 306.625,790.625 307.125,787.625 C307.625,784.625 310.375,782.625 313.375,783.125 C316.375,783.875 318.375,786.625 317.875,789.375 Z" transform="matrix(1 0 0 -1 0 1577)"/>
    <path d="M134.875,446.25 C134.375,449.25 131.625,451.25 128.625,450.75 C125.625,450.25 123.625,447.5 124.125,444.75 C124.625,441.75 127.375,439.75 130.375,440.25 C133.375,440.5 135.375,443.25 134.875,446.25 Z" transform="matrix(1 0 0 -1 0 891)"/>
    <path d="M132.902737,630.375 C132.402737,633.375 129.652737,635.375 126.652737,634.875 C123.652737,634.375 121.652737,631.625 122.152737,628.625 C122.652737,625.625 125.402737,623.625 128.402737,624.125 C131.152737,624.625 133.152737,627.375 132.902737,630.375 Z" transform="matrix(1 0 0 -1 0 1259)"/>
    <path d="M21.875,434.375 C21.375,437.375 18.625,439.375 15.625,438.875 C12.625,438.375 10.625,435.625 11.125,432.625 C11.625,429.625 14.375,427.625 17.375,428.125 C20.375,428.625 22.375,431.375 21.875,434.375 Z" transform="matrix(1 0 0 -1 0 867)"/>
    <path d="M243.875,150.375 C243.375,153.375 240.625,155.375 237.625,154.875 C234.625,154.375 232.625,151.625 233.125,148.625 C233.625,145.625 236.375,143.625 239.375,144.125 C242.375,144.625 244.375,147.375 243.875,150.375 Z" transform="matrix(1 0 0 -1 0 299)"/>
    <path d="M204.875,478.375 C204.375,481.375 201.625,483.375 198.625,482.875 C195.625,482.375 193.625,479.625 194.125,476.625 C194.625,473.625 197.375,471.625 200.375,472.125 C203.375,472.625 205.375,475.375 204.875,478.375 Z" transform="matrix(1 0 0 -1 0 955)"/>
    <path d="M68.875,188.375 C68.375,191.375 65.625,193.375 62.625,192.875 C59.625,192.375 57.625,189.625 58.125,186.625 C58.625,183.625 61.375,181.625 64.375,182.125 C67.375,182.625 69.375,185.375 68.875,188.375 Z" transform="matrix(1 0 0 -1 0 375)"/>
    <path d="M218.875,158.375 C218.375,161.375 215.625,163.375 212.625,162.875 C209.625,162.375 207.625,159.625 208.125,156.625 C208.625,153.625 211.375,151.625 214.375,152.125 C217.375,152.625 219.375,155.375 218.875,158.375 Z" transform="matrix(1 0 0 -1 0 315)"/>
    <path d="M74.875,484.375 C74.375,487.375 71.625,489.375 68.625,488.875 C65.625,488.375 63.625,485.625 64.125,482.625 C64.625,479.625 67.375,477.625 70.375,478.125 C73.375,478.625 75.375,481.375 74.875,484.375 Z" transform="matrix(1 0 0 -1 0 967)"/>
    <path d="M283.875,371.375 C283.375,374.375 280.625,376.375 277.625,375.875 C274.625,375.375 272.625,372.625 273.125,369.625 C273.625,366.625 276.375,364.625 279.375,365.125 C282.375,365.625 284.375,368.375 283.875,371.375 Z" transform="matrix(1 0 0 -1 0 741)"/>
    <path d="M322.875,846.375 C322.375,849.375 319.625,851.375 316.625,850.875 C313.625,850.375 311.625,847.625 312.125,844.625 C312.625,841.625 315.375,839.625 318.375,840.125 C321.375,840.625 323.375,843.625 322.875,846.375 Z" transform="matrix(1 0 0 -1 0 1691)"/>
    <path d="M127.902737,356.375 C127.402737,359.375 124.652737,361.375 121.652737,360.875 C118.652737,360.375 116.652737,357.625 117.152737,354.625 C117.652737,351.625 120.402737,349.625 123.402737,350.125 C126.152737,350.625 128.152737,353.375 127.902737,356.375 Z" transform="matrix(1 0 0 -1 0 711)"/>
    <path d="M114.97224,754.462202 C114.47224,757.462202 111.72224,759.712202 108.72224,758.962202 C105.72224,758.462202 103.72224,755.712202 103.97224,752.712202 C104.47224,749.712202 107.22224,747.462202 110.47224,747.962202 C113.47224,748.712202 115.47224,751.462202 114.97224,754.462202 Z" transform="matrix(1 0 0 -1 0 1507)"/>
    <path d="M291.121732,635.496596 C290.621732,638.496596 287.871732,640.496596 284.621732,639.996596 C281.621732,639.496596 279.371732,636.746596 279.871732,633.746596 C280.371732,630.746596 283.121732,628.496596 286.371732,628.996596 C289.621732,629.496596 291.621732,632.246596 291.121732,635.496596 Z" transform="matrix(1 0 0 -1 0 1269)"/>
    <path d="M83.1217325,329.375 C82.6217325,332.375 79.8717325,334.625 76.6217325,334.125 C73.6217325,333.625 71.3717325,330.875 71.8717325,327.625 C72.3717325,324.625 75.1217325,322.375 78.3717325,322.875 C81.6217325,323.375 83.6217325,326.375 83.1217325,329.375 Z" transform="matrix(1 0 0 -1 0 657)"/>
    <path d="M410.121732,776.375 C409.621732,779.375 406.621732,781.625 403.621732,781.125 C400.621732,780.625 398.371732,777.875 398.871732,774.625 C399.371732,771.625 402.121732,769.375 405.371732,769.875 C408.621732,770.625 410.621732,773.375 410.121732,776.375 Z" transform="matrix(1 0 0 -1 0 1551)"/>
    <path d="M65.125,65.375 C64.625,68.375 61.875,70.625 58.625,70.125 C55.625,69.625 53.375,66.625 53.875,63.625 C54.375,60.625 57.375,58.375 60.375,58.875 C63.375,59.625 65.625,62.375 65.125,65.375 Z" transform="matrix(1 0 0 -1 0 129)"/>
    <path d="M51.125,482.375 C50.625,485.375 47.625,487.625 44.625,487.125 C41.625,486.625 39.375,483.625 39.875,480.625 C40.375,477.625 43.375,475.375 46.375,475.875 C49.375,476.375 51.625,479.375 51.125,482.375 Z" transform="matrix(1 0 0 -1 0 963)"/>
    <path d="M287.121732,473.378268 C286.621732,476.378268 283.621732,478.628268 280.621732,478.128268 C277.621732,477.628268 275.371732,474.628268 275.871732,471.628268 C276.371732,468.378268 279.371732,466.378268 282.371732,466.878268 C285.621732,467.378268 287.621732,470.378268 287.121732,473.378268 Z" transform="matrix(1 0 0 -1 0 945)"/>
    <path d="M182.125,597.5 C181.625,600.75 178.625,602.75 175.625,602.25 C172.375,601.75 170.375,598.75 170.875,595.5 C171.375,592.25 174.375,590.25 177.375,590.75 C180.625,591.25 182.625,594.25 182.125,597.5 Z" transform="matrix(1 0 0 -1 0 1193)"/>
    <path d="M208.128268,689.378268 C207.628268,692.378268 204.628268,694.628268 201.628268,694.128268 C198.378268,693.628268 196.378268,690.628268 196.878268,687.628268 C197.378268,684.378268 200.378268,682.378268 203.378268,682.878268 C206.378268,683.378268 208.628268,686.378268 208.128268,689.378268 Z" transform="matrix(1 0 0 -1 0 1377)"/>
    <path d="M276.253371,552.375 C275.753371,555.375 272.753371,557.625 269.503371,557.125 C266.253371,556.625 264.253371,553.625 264.753371,550.625 C265.253371,547.625 268.253371,545.375 271.253371,545.875 C274.503371,546.125 276.753371,549.125 276.253371,552.375 Z" transform="matrix(1 0 0 -1 0 1103)"/>
    <path d="M201.253268,726.534249 C200.753268,729.784249 197.753268,731.784249 194.503268,731.284249 C191.253268,730.784249 189.253268,727.784249 189.753268,724.534249 C190.253268,721.284249 193.253268,719.034249 196.503268,719.784249 C199.503268,720.284249 201.753268,723.284249 201.253268,726.534249 Z" transform="matrix(1 0 0 -1 0 1451)"/>
    <path d="M18.2532675,458.58738 C17.7532675,461.83738 14.7532675,464.08738 11.5032675,463.33738 C8.25326753,462.83738 6.25326753,459.83738 6.75326753,456.58738 C7.25326753,453.33738 10.2532675,451.08738 13.5032675,451.58738 C16.5032675,452.33738 18.7532675,455.33738 18.2532675,458.58738 Z" transform="matrix(1 0 0 -1 0 915)"/>
    <path d="M236.287517,760.375 C235.787517,763.625 232.787517,765.875 229.537517,765.375 C226.287517,764.875 224.037517,761.875 224.787517,758.625 C225.287517,755.375 228.287517,753.125 231.537517,753.625 C234.537517,754.125 236.787517,757.125 236.287517,760.375 Z" transform="matrix(1 0 0 -1 0 1519)"/>
    <path d="M148.371763,210.375 C147.871763,213.625 144.871763,215.875 141.621763,215.375 C138.371763,214.875 136.121763,211.875 136.621763,208.625 C137.121763,205.375 140.121763,203.125 143.371763,203.625 C146.871763,204.125 148.871763,207.125 148.371763,210.375 Z" transform="matrix(1 0 0 -1 0 419)"/>
    <path d="M320.375,98.375 C319.875,101.625 316.875,103.875 313.625,103.375 C310.375,102.875 308.125,99.875 308.625,96.625 C309.125,93.375 312.125,91.125 315.375,91.625 C318.625,92.125 320.875,95.125 320.375,98.375 Z" transform="matrix(1 0 0 -1 0 195)"/>
    <path d="M167.375,389.375 C166.875,392.625 163.875,394.875 160.625,394.375 C157.375,393.875 155.125,390.875 155.625,387.625 C156.125,384.375 159.125,382.125 162.375,382.625 C165.625,383.125 167.875,386.125 167.375,389.375 Z" transform="matrix(1 0 0 -1 0 777)"/>
    <path d="M185.375,875.375 C184.875,878.625 181.875,880.875 178.625,880.375 C175.375,879.875 173.125,876.875 173.625,873.625 C174.125,870.375 177.125,868.125 180.375,868.625 C183.625,869.125 185.875,872.125 185.375,875.375 Z" transform="matrix(1 0 0 -1 0 1749)"/>
    <path d="M225.532186,121.5 C225.032186,124.75 221.782186,127.25 218.532186,126.5 C215.282186,126 212.782186,122.75 213.532186,119.5 C214.032186,116.25 217.282186,113.75 220.532186,114.5 C223.782186,115 226.032186,118 225.532186,121.5 Z" transform="matrix(1 0 0 -1 0 241)"/>
    <path d="M189.875,772.58276 L171.125,806.442849 C170.875,806.930044 171.125,807.660838 171.625,807.904435 C172.125,808.148033 172.875,807.904435 173.125,807.41724 L191.875,773.557151 C192.125,773.069956 191.875,772.339162 191.375,772.095565 C190.875,771.851967 190.375,772.095565 189.875,772.58276 Z" transform="matrix(1 0 0 -1 0 1580)"/>
    <path d="M56.1613141,219.864526 L113.873999,287.593417 C114.365171,288.084206 114.856342,288.084206 115.5931,287.838812 C116.084272,287.348022 116.084272,286.857233 115.838686,286.366444 L58.1260013,218.637554 C57.6348295,217.90137 56.8980718,217.90137 56.4069,218.146765 C55.9157282,218.637554 55.9157282,219.373737 56.1613141,219.864526 L56.1613141,219.864526 Z" transform="matrix(1 0 0 -1 0 506)"/>
    <path d="M93.9025961,286.26142 L58.1493778,228.637074 C57.6528053,227.901444 56.9079466,227.901444 56.4113741,228.146654 C55.9148016,228.391864 55.9148016,229.127494 56.1630879,229.617914 L91.9163062,287.487469 C92.1645924,287.977889 92.9094512,288.223099 93.4060236,287.732679 C93.9025961,287.487469 94.1508823,286.75184 93.9025961,286.26142 Z" transform="matrix(1 0 0 -1 0 516)"/>
    <path d="M58.25,335.407213 L80.75,287.583943 C81,287.088365 80.75,286.344998 80.25,286.097209 C79.75,285.84942 79,286.097209 78.75,286.592787 L56.25,334.416057 C56,334.911635 56.25,335.655002 56.75,335.902791 C57.25,336.15058 58,335.902791 58.25,335.407213 Z" transform="matrix(1 0 0 -1 0 622)"/>
    <path d="M116,334.674894 L80.28247,218.805168 C80.0361422,218.312105 79.5434866,217.819043 78.8045032,218.065574 C78.3118476,218.312105 77.819192,218.805168 78.0655198,219.544762 L113.78305,335.167957 C114.029378,335.907551 114.522033,336.154082 115.261017,335.907551 C115.753672,335.661019 116,335.167957 116,334.674894 L116,334.674894 Z" transform="matrix(1 0 0 -1 0 554)"/>
    <path d="M94.3417517,334.764302 L80.8417517,228.988558 C80.8417517,228.24714 80.0917517,228 79.5917517,228 C78.8417517,228 78.5917517,228.741419 78.5917517,229.235698 L92.3417517,335.011442 C92.3417517,335.505721 93.0917517,336 93.5917517,336 C94.0917517,335.75286 94.5917517,335.258581 94.3417517,334.764302 Z" transform="matrix(1 0 0 -1 0 564)"/>
    <path d="M79.5738529,355.236373 L149.193697,335.986373 C149.687455,335.736373 150.181212,335.236373 149.934334,334.486373 C149.687455,333.986373 149.193697,333.486373 148.45306,333.736373 L78.8332162,352.986373 C78.0925796,353.236373 77.8457007,353.736373 78.0925796,354.486373 C78.5863373,355.236373 79.0800951,355.486373 79.5738529,355.236373 Z" transform="matrix(1 0 0 -1 0 689)"/>
    <path d="M150.318393,455.169851 L187.907264,354.56806 C188.15456,354.076119 187.907264,353.338209 187.165379,353.092239 C186.670788,352.846269 185.928903,353.092239 185.681607,353.830149 L148.092736,454.43194 C147.84544,454.923881 148.092736,455.661791 148.834621,455.907761 C149.329212,456.153731 150.071097,455.907761 150.318393,455.169851 Z" transform="matrix(1 0 0 -1 0 809)"/>
    <path d="M211.5173,453.533248 L187.052749,457.283248 C186.311399,457.283248 185.817166,458.033248 186.064282,458.533248 C186.064282,459.283248 186.805632,459.533248 187.299866,459.533248 L187.299866,459.533248 L212.011533,455.783248 C212.752883,455.783248 213,455.033248 213,454.283248 C212.752883,453.783248 212.25865,453.283248 211.5173,453.533248 Z" transform="matrix(1 0 0 -1 0 913)"/>
    <path d="M171.099279,455.409902 L187.849279,424.576759 C188.099279,424.083429 188.099279,423.343433 187.349279,423.096768 C186.849279,422.850103 186.099279,423.096768 185.849279,423.590098 L185.849279,423.590098 L169.099279,454.176576 C168.849279,454.916571 169.099279,455.409902 169.599279,455.903232 C170.099279,456.149897 170.849279,455.903232 171.099279,455.409902 Z" transform="matrix(1 0 0 -1 0 879)"/>
    <path d="M311.235219,148.657516 L397.947562,132.907516 C398.688693,132.657516 399.18278,132.157516 398.935737,131.407516 C398.688693,130.657516 398.194605,130.157516 397.453474,130.407516 L397.453474,130.407516 L310.988175,146.157516 C310.247044,146.157516 310,146.907516 310,147.657516 C310,148.157516 310.494087,148.657516 311.235219,148.657516 Z" transform="matrix(1 0 0 -1 0 279)"/>
    <path d="M170.830755,459.656293 L211.595561,425.134635 C212.083762,424.641469 212.083762,423.901719 211.839661,423.408553 C211.35146,422.915386 210.619158,422.915386 210.130957,423.161969 L210.130957,423.161969 L169.366151,457.683627 C168.87795,458.176794 168.87795,458.916543 169.366151,459.40971 C169.610252,460.14946 170.342553,460.14946 170.830755,459.656293 Z" transform="matrix(1 0 0 -1 0 883)"/>
    <path d="M312,190.013185 L329.25,131.544397 C329.5,130.804286 329,130.064175 328.25,130.064175 C327.5,129.817471 327,130.310879 326.75,131.05099 L309.75,189.519778 C309.5,190.259889 310,190.753296 310.75,191 C311,191 311.75,190.753296 312,190.013185 Z" transform="matrix(1 0 0 -1 0 321)"/>
    <path d="M239.2375,686.875 L335.7625,684.625 C336.505,684.625 337,684.125 337,683.375 C337,682.625 336.505,682.125 335.7625,682.125 L239.2375,684.625 C238.495,684.625 238,685.125 238,685.875 C238,686.375 238.7425,686.875 239.2375,686.875 L239.2375,686.875 Z" transform="matrix(1 0 0 -1 0 1369)"/>
    <path d="M190.842484,459.062554 L212.592484,375.54374 C212.842484,374.804635 212.342484,374.311899 211.592484,374.065531 C210.842484,373.819162 210.342484,374.311899 210.092484,374.804635 L188.342484,458.323449 C188.342484,459.062554 188.592484,459.801658 189.342484,459.801658 C190.092484,460.294395 190.842484,459.801658 190.842484,459.062554 Z" transform="matrix(1 0 0 -1 0 834)"/>
    <path d="M398.360776,188.893641 L328.978267,146.26707 C328.486193,145.77711 327.502044,146.02209 327.256006,146.51205 C326.763932,147.246991 327.009969,147.981932 327.748081,148.226912 L327.748081,148.226912 L397.13059,190.853483 C397.622665,191.098463 398.360776,191.098463 398.852851,190.363523 C399.098888,189.873562 399.098888,189.138621 398.360776,188.893641 L398.360776,188.893641 Z" transform="matrix(1 0 0 -1 0 337)"/>
    <path d="M168.377163,374.819692 L188.127163,424.16726 C188.377163,424.907473 189.127163,425.154211 189.877163,424.907473 C190.627163,424.660735 190.877163,423.920522 190.627163,423.180308 L170.627163,373.83274 C170.377163,373.092527 169.627163,372.845789 168.877163,373.092527 C168.377163,373.586002 168.127163,374.326216 168.377163,374.819692 L168.377163,374.819692 Z" transform="matrix(1 0 0 -1 0 798)"/>
    <path d="M227.809708,190.912069 L328.171828,160.437931 C328.907981,160.194138 329.153365,159.462759 328.907981,158.975172 C328.662597,158.243793 327.926444,158 327.190292,158 L327.190292,158 L226.828172,188.474138 C226.092019,188.717931 225.846635,189.44931 226.092019,189.936896 C226.582787,190.912069 227.31894,191.155862 227.809708,190.912069 L227.809708,190.912069 Z" transform="matrix(1 0 0 -1 0 349)"/>
    <path d="M157.9329,159.903033 L228.301639,123.321518 C228.795455,123.074346 229.289271,122.332829 228.795455,121.591312 C228.548547,121.096967 227.560916,120.849795 227.0671,121.096967 L156.698361,157.678482 C156.204545,157.925654 155.710729,158.667171 156.204545,159.408688 C156.451453,159.903033 157.439084,160.150205 157.9329,159.903033 Z" transform="matrix(1 0 0 -1 0 281)"/>
    <path d="M206.875,159.194673 L228.625,12.4794809 C228.625,11.7397405 228.125,11.2465802 227.625,11 C226.875,11 226.375,11.2465802 226.125,11.9863206 L204.375,158.454932 C204.375,159.194673 204.875,159.934413 205.375,159.934413 C206.125,160.180993 206.625,159.687833 206.875,159.194673 Z" transform="matrix(1 0 0 -1 0 171)"/>
    <path d="M277.065986,189.576581 L327.426173,319.16534 C327.674252,319.90726 328.418492,320.154567 329.162731,319.90726 C329.90697,319.659953 330.15505,318.918033 329.90697,318.423419 L279.546783,188.83466 C279.298703,188.09274 278.554464,187.845433 277.810225,188.09274 C277.314066,188.340047 276.817906,189.081967 277.065986,189.576581 Z" transform="matrix(1 0 0 -1 0 508)"/>
    <path d="M226.346785,120.087719 L269.636482,159.631579 C270.134065,160.122807 270.880439,160.122807 271.626813,159.631579 C272.124396,159.140351 272.124396,158.403509 271.626813,157.912281 L228.337115,118.368421 C227.839533,117.877193 227.093159,117.877193 226.595576,118.368421 C225.849202,118.859649 225.849202,119.596491 226.346785,120.087719 Z" transform="matrix(1 0 0 -1 0 278)"/>
    <path d="M156.091617,13.0689613 L204.465269,123.24887 C204.709581,123.98999 205.442515,124.23703 206.175449,123.74295 C206.908383,123.49591 207.152695,122.75479 206.908383,122.013669 L158.534731,11.8337605 C158.290419,11.0926401 157.557485,10.8455999 156.824551,11.0926401 C156.091617,11.5867204 155.847305,12.3278408 156.091617,13.0689613 Z" transform="matrix(1 0 0 -1 0 135)"/>
    <path d="M188.639611,320.227529 L277.020534,375.853443 C277.759093,376.098491 278.497652,376.098491 278.743839,375.363346 C279.236211,374.87325 278.990025,373.893058 278.251466,373.64801 L278.251466,373.64801 L189.870543,318.267144 C189.37817,317.777048 188.639611,318.022096 188.147238,318.512192 C187.901052,319.247336 187.901052,319.982481 188.639611,320.227529 Z" transform="matrix(1 0 0 -1 0 694)"/>
    <path d="M335.82059,719.91211 L446.166849,686.528164 C446.907428,686.284485 447.154287,685.55345 446.907428,684.822415 C446.660568,684.091379 445.919989,683.847701 445.17941,684.091379 L334.833151,717.475326 C334.092572,717.719004 333.845713,718.450039 334.092572,718.937396 C334.586292,719.91211 335.326871,720.155789 335.82059,719.91211 L335.82059,719.91211 Z" transform="matrix(1 0 0 -1 0 1404)"/>
    <path d="M228.246917,192.664306 L165.830944,158.097559 C165.335579,157.848877 164.344849,158.097559 164.097167,158.594922 C163.849485,159.340967 164.097167,160.087012 164.592532,160.335694 L227.008505,194.902441 C227.50387,195.151123 228.246917,194.902441 228.742282,194.405078 C229.237647,193.659033 228.989964,192.912988 228.246917,192.664306 Z" transform="matrix(1 0 0 -1 0 353)"/>
    <path d="M271.296005,190.591454 L328.733546,120.069757 C329.222376,119.576598 328.977961,118.83686 328.489131,118.343701 C328.000301,117.850543 327.267056,117.850543 326.778225,118.590281 L326.778225,118.590281 L269.340685,189.111978 C268.851854,189.605136 268.851854,190.591454 269.5851,190.838033 C269.829515,191.084613 270.807175,191.084613 271.296005,190.591454 Z" transform="matrix(1 0 0 -1 0 309)"/>
    <path d="M157.236674,120.125 L270.763326,123.375 C271.50533,123.375 272,122.625 272,122.125 C272,121.375 271.50533,120.875 270.763326,120.875 L157.236674,117.625 C156.49467,117.625 156,118.125 156,118.875 C156,119.375 156.49467,119.875 157.236674,120.125 Z" transform="matrix(1 0 0 -1 0 241)"/>
    <path d="M158.75,192.775168 L167,122.469799 C167,121.734899 166.5,121.244966 165.75,121 C165,121 164.5,121.489933 164.25,122.224832 L156,192.530201 C156,193.265101 156.5,194 157.25,194 C158,194 158.75,193.510067 158.75,192.775168 Z" transform="matrix(1 0 0 -1 0 315)"/>
    <path d="M117.3675,194.085648 L163.6725,244.631944 C164.1625,245.122685 164.8975,245.122685 165.6325,244.631944 C166.1225,244.141204 166.1225,243.405093 165.6325,242.914352 L119.0825,192.368056 C118.5925,191.877315 117.8575,191.877315 117.3675,192.368056 C116.8775,192.858796 116.8775,193.594907 117.3675,194.085648 Z" transform="matrix(1 0 0 -1 0 437)"/>
    <path d="M207.37304,119.252958 L271.903006,12.866813 C272.150247,12.3754221 271.903006,11.3926401 271.408524,11.1469446 C270.6668,10.9012491 269.925076,10.9012491 269.677835,11.6383356 L205.147869,118.024481 C204.900628,118.515872 204.900628,119.498654 205.642352,119.744349 C206.384075,120.23574 207.125799,119.990045 207.37304,119.252958 Z" transform="matrix(1 0 0 -1 0 131)"/>
    <path d="M289.571252,685.198182 L336.907063,569.810603 C337.154895,569.074087 336.907063,568.33757 336.163569,568.092065 C335.420074,567.846559 334.67658,568.092065 334.428748,568.828581 L287.092937,684.21616 C286.845105,684.952677 287.092937,685.689193 287.836431,685.934699 C288.579926,686.180204 289.32342,685.689193 289.571252,685.198182 L289.571252,685.198182 Z" transform="matrix(1 0 0 -1 0 1254)"/>
    <path d="M270.881958,905.731435 L381.486263,811.132625 C381.977837,810.639923 382.223625,809.90087 381.73205,809.408168 C381.240475,808.915466 380.503113,808.915466 379.765751,809.161817 L379.765751,809.161817 L269.407234,903.760627 C268.915659,904.253329 268.915659,904.992382 269.161446,905.485084 C269.653021,905.977787 270.390383,906.224138 270.881958,905.731435 Z" transform="matrix(1 0 0 -1 0 1715)"/>
    <path d="M288.954998,582.375 L219.535599,568.125 C218.799704,567.875 218.063809,568.375 218.063809,569.125 C217.818511,569.875 218.309108,570.625 219.045002,570.625 L219.045002,570.625 L288.464401,584.875 C289.200296,585.125 289.936191,584.625 289.936191,583.875 C290.181489,583.125 289.690892,582.375 288.954998,582.375 Z" transform="matrix(1 0 0 -1 0 1153)"/>
    <path d="M190.65907,445.122734 L131.223377,374.512457 C130.734194,374.022107 130.00042,373.776933 129.511237,374.267282 C129.022055,374.757631 128.777463,375.493155 129.266646,376.228679 L188.702339,446.593781 C189.191522,447.084131 189.925296,447.084131 190.414478,446.838956 C191.148252,446.348607 191.148252,445.613083 190.65907,445.122734 Z" transform="matrix(1 0 0 -1 0 821)"/>
    <path d="M270.472727,814.625 L348.772727,811.125 C349.509091,811.125 350,810.375 350,809.625 C350,808.875 349.263636,808.375 348.527273,808.375 L270.227273,811.875 C269.490909,811.875 269,812.625 269,813.125 C269.245455,814.125 269.736364,814.625 270.472727,814.625 Z" transform="matrix(1 0 0 -1 0 1623)"/>
    <path d="M269.595481,788.625 L312.159944,810.625 C312.906689,810.875 313.653434,810.625 313.902349,810.125 C314.151264,809.375 313.902349,808.625 313.404519,808.375 L270.840056,786.375 C270.093311,786.125 269.346566,786.375 269.097651,786.875 C268.848736,787.375 269.097651,788.125 269.595481,788.625 Z" transform="matrix(1 0 0 -1 0 1597)"/>
    <path d="M219.254605,628.935999 L127.812251,583.096683 C127.07679,582.850235 126.341329,583.096683 126.096175,583.589579 C125.851021,584.328922 126.096175,585.068266 126.586483,585.314714 L218.028837,630.907582 C218.764298,631.15403 219.499759,630.907582 219.744913,630.168238 C220.235221,630.168238 219.990067,629.428894 219.254605,628.935999 Z" transform="matrix(1 0 0 -1 0 1214)"/>
    <path d="M117.911017,185.345741 L62.3686441,242.643595 C61.8771186,243.13968 61.8771186,244.131851 62.3686441,244.627936 C62.8601695,245.124021 63.5974576,245.124021 64.3347458,244.627936 L119.631356,187.330082 C120.122881,186.833997 120.122881,186.089869 119.631356,185.593784 C119.385593,184.849656 118.402542,184.849656 117.911017,185.345741 L117.911017,185.345741 Z" transform="matrix(1 0 0 -1 0 430)"/>
    <path d="M218.282516,476.981238 L198.532516,582.464331 C198.282516,583.200259 198.782516,583.936188 199.532516,583.936188 C200.282516,584.181497 201.032516,583.690878 201.032516,582.95495 L220.532516,477.471857 C220.532516,476.735929 220.282516,476 219.532516,476 C219.032516,476 218.282516,476.24531 218.282516,476.981238 Z" transform="matrix(1 0 0 -1 0 1060)"/>
    <path d="M98.4682856,194.245011 L164.751761,247.837776 C165.49374,248.084747 166.235719,248.084747 166.730372,247.590805 C167.225025,247.096862 166.977699,246.108977 166.483046,245.862006 L100.19957,192.269241 C99.7049176,191.775298 98.715612,192.022269 98.4682856,192.516212 C97.7263064,193.010154 97.9736328,193.751068 98.4682856,194.245011 Z" transform="matrix(1 0 0 -1 0 440)"/>
    <path d="M380.443219,812.833463 L348.066245,904.205651 C347.817191,904.946507 348.315299,905.687362 348.813406,905.934314 C349.560567,906.181266 350.307728,905.687362 350.556781,905.193459 L382.933755,813.82127 C383.182809,813.080414 382.684701,812.339559 382.186594,812.092607 C381.439433,811.845655 380.692272,812.092607 380.443219,812.833463 Z" transform="matrix(1 0 0 -1 0 1718)"/>
    <path d="M31.7540263,629.715406 L128.482916,558.240413 C128.977693,557.747482 129.225081,557.008086 128.730305,556.515155 C128.235528,556.022224 127.493362,555.775758 126.998585,556.268689 L30.5170839,627.990148 C30.022307,628.483079 29.7749185,629.222475 30.2696955,629.715406 C30.2696955,629.961872 31.2592493,630.208337 31.7540263,629.715406 L31.7540263,629.715406 Z" transform="matrix(1 0 0 -1 0 1186)"/>
    <path d="M29.25,433.23301 L15,557.520388 C15,558.260194 15.5,559 16.25,559 C17,559 17.5,558.506796 17.75,557.76699 L32,433.479612 C32,432.739806 31.5,432 30.75,432 C30,432.246602 29.25,432.739806 29.25,433.23301 Z" transform="matrix(1 0 0 -1 0 991)"/>
    <path d="M271.62766,148.031051 L239.358156,118.339236 C238.861702,117.852484 237.868794,117.852484 237.37234,118.582611 C236.875887,119.069362 236.875887,119.799489 237.37234,120.28624 L269.641844,149.734679 C270.138298,150.22143 271.131206,149.978055 271.62766,149.491304 C272.124113,149.247928 272.124113,148.517802 271.62766,148.031051 Z" transform="matrix(1 0 0 -1 0 268)"/>
    <path d="M379.643594,787.590101 L311.146833,904.016674 C310.901324,904.756673 310.901324,905.496673 311.637849,905.743339 C312.128865,906.236672 313.110897,905.990005 313.356406,905.250006 L381.853167,788.823434 C382.098676,788.083434 382.098676,787.343435 381.362151,787.096768 C380.625627,786.850102 379.889103,787.096768 379.643594,787.590101 L379.643594,787.590101 Z" transform="matrix(1 0 0 -1 0 1693)"/>
    <path d="M279.25,370.960919 L280.25,319.484886 C280.25,318.742443 279.75,318 279,318 C278.25,318 277.5,318.494962 277.5,319.237405 L276.75,370.713438 C276.75,371.455881 277.25,371.950843 278,371.950843 C278.75,372.198324 279.25,371.455881 279.25,370.960919 Z" transform="matrix(1 0 0 -1 0 690)"/>
    <path d="M212.512239,120.352525 L269.123531,157.853409 C269.613672,158.098513 270.593954,158.098513 270.839024,157.363202 C271.084095,156.872994 271.084095,156.137683 270.593954,155.647475 L213.982662,118.146591 C213.247451,117.901487 212.512239,117.901487 212.267169,118.636798 C211.777027,119.127006 212.022098,119.862317 212.512239,120.352525 Z" transform="matrix(1 0 0 -1 0 276)"/>
    <path d="M29.0929667,483.932828 L68.5108433,558.2493 C68.7587545,558.989996 69.7503992,559.236895 70.2462215,558.743097 C70.989955,558.496199 71.2378662,557.508605 70.7420439,557.014807 L70.7420439,557.014807 L31.5720784,482.698335 C31.3241673,482.204537 30.3325226,481.71074 29.8367002,482.204537 C29.0929667,482.451436 28.8450555,483.192132 29.0929667,483.932828 Z" transform="matrix(1 0 0 -1 0 1041)"/>
    <path d="M214.443879,192.515962 L165.999604,156.147965 C165.505275,155.900564 164.516616,155.900564 164.269451,156.642768 C163.775122,157.13757 164.022287,157.879774 164.516616,158.374577 L212.713727,194.742574 C213.455221,195.237377 214.196715,194.989976 214.443879,194.247772 C215.185374,193.752969 215.185374,193.010765 214.443879,192.515962 Z" transform="matrix(1 0 0 -1 0 351)"/>
    <path d="M287.650538,476.371094 L198.370968,568.897135 C197.876344,569.391927 197.876344,570.134115 198.370968,570.628906 C198.865591,571.123698 199.854839,571.123698 200.349462,570.628906 L200.349462,570.628906 L289.629032,478.102865 C290.123656,477.608073 290.123656,476.865885 289.629032,476.371094 C289.134409,475.876302 288.145161,475.876302 287.650538,476.371094 Z" transform="matrix(1 0 0 -1 0 1047)"/>
    <path d="M270.980306,845.743466 L317.48837,810.487671 C317.977928,809.994583 318.222708,809.254951 317.733149,808.515319 C317.24359,808.022231 316.509253,807.775687 316.019694,808.268775 L269.51163,843.52457 C269.022072,844.017658 268.777292,844.75729 269.266851,845.250378 C269.51163,845.99001 270.490747,846.236554 270.980306,845.743466 Z" transform="matrix(1 0 0 -1 0 1654)"/>
    <path d="M348.017867,787.148606 L311.512102,812.492864 C311.022092,812.98981 310.777087,813.73523 311.267097,814.480649 C311.757107,814.977595 312.492123,815.226068 312.982133,814.729122 L349.487898,789.384864 C349.977908,788.887918 350.222913,788.142498 349.732903,787.645552 C349.487898,786.900133 348.752882,786.900133 348.017867,787.148606 Z" transform="matrix(1 0 0 -1 0 1602)"/>
    <path d="M129.515991,431.875 L16.2366738,444.375 C15.4946695,444.375 15,445.125 15,445.875 C15,446.625 15.7420043,447.125 16.4840085,447.125 L129.763326,434.625 C130.50533,434.625 131,433.875 131,433.125 C131,432.375 130.257996,431.875 129.515991,431.875 Z" transform="matrix(1 0 0 -1 0 879)"/>
    <path d="M98.5229147,186.637593 L62.2567051,246.026778 C61.7632873,246.763007 62.0099962,247.499237 62.750123,247.744647 C63.4902497,248.235466 64.2303764,247.990056 64.4770853,247.253827 L100.743295,187.864643 C101.236713,187.128413 100.990004,186.392184 100.249877,186.146774 C99.5097503,185.901364 98.7696236,185.901364 98.5229147,186.637593 Z" transform="matrix(1 0 0 -1 0 434)"/>
    <path d="M380.890741,844.369048 L316.372222,903.662698 C315.875926,904.154762 315.875926,905.138889 316.372222,905.630952 C316.868519,906.123016 317.612963,906.123016 318.357407,905.630952 L382.627778,846.337302 C383.124074,845.845238 383.124074,845.107143 382.627778,844.369048 C382.131481,843.876984 381.387037,843.876984 380.890741,844.369048 Z" transform="matrix(1 0 0 -1 0 1750)"/>
    <path d="M199.173452,444.201007 L128.835878,476.409582 C128.092875,476.659261 127.845208,477.408297 128.092875,478.157334 C128.340543,478.90637 129.083545,479.156049 129.826548,478.90637 L129.826548,478.90637 L200.164122,446.697796 C200.907125,446.448117 201.154792,445.69908 200.907125,444.950043 C200.659457,444.201007 199.916455,443.701649 199.173452,444.201007 Z" transform="matrix(1 0 0 -1 0 923)"/>
    <path d="M130.26494,482.506308 L70.9700882,444.258426 C70.4800481,443.7617 69.4999679,444.010063 69.2549479,444.755152 C68.7649078,445.251878 69.0099278,446.245329 69.744988,446.493692 L129.03984,484.741574 C129.7749,485.2383 130.50996,484.989937 131,484.244848 C131,483.748122 130.75498,483.003034 130.26494,482.506308 L130.26494,482.506308 Z" transform="matrix(1 0 0 -1 0 929)"/>
    <path d="M212.797793,151.125 L237.225114,158.875 C237.957934,159.125 238.690753,158.625 238.935027,157.875 C239.1793,157.125 238.690753,156.625 238.202207,156.125 L213.774886,148.125 C213.042066,147.875 212.309247,148.375 212.064973,149.125 C211.8207,150.125 212.309247,150.875 212.797793,151.125 Z" transform="matrix(1 0 0 -1 0 307)"/>
    <path d="M17.3436123,484.589958 L70.6299559,434.35108 C71.123348,433.856116 71.123348,432.866188 70.6299559,432.371223 C70.1365639,431.876259 69.3964758,431.876259 68.6563877,432.371223 L15.3700441,482.857583 C14.876652,483.352547 14.876652,484.094994 15.3700441,484.83744 C15.8634361,485.084922 16.6035242,485.084922 17.3436123,484.589958 L17.3436123,484.589958 Z" transform="matrix(1 0 0 -1 0 917)"/>
    <path d="M350.58625,843.692857 L318.372342,812.364286 C317.872902,811.878571 316.874021,811.878571 316.37458,812.364286 C315.87514,812.85 315.87514,813.821429 316.37458,814.307143 L348.838208,845.635714 C349.337649,846.121429 350.33653,846.121429 350.83597,845.635714 C351.08569,845.15 351.08569,844.178571 350.58625,843.692857 L350.58625,843.692857 Z" transform="matrix(1 0 0 -1 0 1658)"/>
    <path d="M199.77095,482.25 L70.4748603,476 C69.7374302,476 69,476.5 69,477.25 C69,478 69.4916201,478.75 70.2290503,478.75 L199.52514,485 C200.26257,485 200.75419,484.5 201,483.75 C201,483 200.50838,482.25 199.77095,482.25 Z" transform="matrix(1 0 0 -1 0 961)"/>
    <path d="M279.630175,476.758936 L200.241178,369.515304 C199.748079,369.02223 199.00843,368.775693 198.515331,369.268767 C198.022231,369.761841 197.775682,370.501453 198.268781,371.241064 L198.268781,371.241064 L277.657778,478.484696 C278.150877,478.97777 278.890526,479.224307 279.630175,478.731233 C280.123275,478.238159 280.123275,477.498547 279.630175,476.758936 Z" transform="matrix(1 0 0 -1 0 848)"/>
    <path d="M315.5,787.287259 L310.75,844.513601 C310.75,845.256801 311.25,845.752267 312,846 C312.75,846 313.25,845.504534 313.5,844.761335 L318.25,787.534992 C318.25,786.791793 317.75,786.048593 317,786.048593 C316.25,785.80086 315.5,786.54406 315.5,787.287259 Z" transform="matrix(1 0 0 -1 0 1632)"/>
    <path d="M100.528077,357.013781 L123.935905,247.79002 C124.182303,247.050355 123.689506,246.310691 122.950312,246.064136 C122.211117,245.817581 121.471923,246.310691 121.225525,247.050355 L121.225525,247.050355 L98.0640955,356.274117 C97.8176973,357.013781 98.3104936,357.753445 99.0496882,357.753445 C99.5424845,358.246555 100.281679,358 100.528077,357.013781 Z" transform="matrix(1 0 0 -1 0 604)"/>
    <path d="M284.625,569.240876 L287.875,634.759124 C287.875,635.50365 288.625,636 289.125,636 C289.875,636 290.375,635.50365 290.375,634.759124 L287.375,569.240876 C287.375,568.49635 286.625,568 285.875,568 C285.125,568 284.625,568.49635 284.625,569.240876 Z" transform="matrix(1 0 0 -1 0 1204)"/>
    <path d="M128.75,356.226667 L121.5,445.528 C121.5,446.264 122,447 122.75,447 C123.5,447 124.25,446.509333 124.25,445.773333 L131.5,356.472 C131.5,355.736 131,355.245333 130.25,355 C129.5,355 128.75,355.490667 128.75,356.226667 Z" transform="matrix(1 0 0 -1 0 802)"/>
    <path d="M107,629.479612 L125.25,753.76699 C125.5,754.506796 126,755 126.75,755 C127.5,755 128,754.260194 128,753.520388 L109.75,629.23301 C109.5,628.493204 109,628 108.25,628 C107.5,628.246602 107,628.739806 107,629.479612 Z" transform="matrix(1 0 0 -1 0 1383)"/>
    <path d="M312.236979,776.149519 L404.515625,789.399519 C405.257813,789.399519 406,788.899519 406,788.149519 C406,787.399519 405.505208,786.649519 404.763021,786.649519 L404.763021,786.649519 L312.484375,773.649519 C311.742187,773.399519 311,774.149519 311,774.899519 C311,775.399519 311.742188,776.149519 312.236979,776.149519 Z" transform="matrix(1 0 0 -1 0 1563)"/>
    <path d="M61,187.517647 L64.75,64.4823529 C64.75,63.7411765 64.25,63.2470588 63.5,63 C62.75,63 62,63.4941176 62,64.2352941 L58.25,187.517647 C58.25,188.258824 58.75,189 59.5,189 C60.25,188.752941 61,188.258824 61,187.517647 Z" transform="matrix(1 0 0 -1 0 252)"/>
    <path d="M17.5085414,482.361863 L46.740035,434.220524 C47.2397186,433.483667 46.9898768,432.746809 46.2403513,432.255571 C45.4908259,431.764333 44.7413004,432.009952 44.2416167,432.746809 L15.259965,481.133768 C14.7602814,481.870625 15.0101232,482.607482 15.7596487,482.853101 C16.5091741,483.09872 17.2586996,483.09872 17.5085414,482.361863 L17.5085414,482.361863 Z" transform="matrix(1 0 0 -1 0 915)"/>
    <path d="M316.514702,776.567831 L403.686769,846.730671 C404.425516,847.224776 405.164262,846.977723 405.65676,846.483619 C406.149257,845.989514 406.149257,845.001305 405.410511,844.507201 L318.238443,774.34436 C317.745946,773.850256 316.760951,773.850256 316.268453,774.591413 C315.775955,775.332569 316.022204,776.073726 316.514702,776.567831 Z" transform="matrix(1 0 0 -1 0 1621)"/>
    <path d="M122.185535,327.160144 L77.5130391,354.466304 C77.0221325,354.953914 76.7766792,355.685329 77.2675858,356.416744 C77.7584923,356.904354 78.4948521,357.148159 78.9857587,356.904354 L123.412801,329.354389 C123.903707,328.866779 124.149161,328.135364 123.903707,327.403949 C123.658254,326.916339 122.676441,326.916339 122.185535,327.160144 Z" transform="matrix(1 0 0 -1 0 684)"/>
    <path d="M280.5,472.953065 L283.25,370.474512 C283.25,369.737256 282.5,369 281.75,369 C281,369 280.25,369.491504 280.25,370.22876 L277.75,472.707313 C277.75,473.444569 278.25,473.936073 279,473.936073 C280,474.181825 280.5,473.690321 280.5,472.953065 Z" transform="matrix(1 0 0 -1 0 843)"/>
    <path d="M44.2573686,357.111592 L121.429499,482.361941 C121.924192,483.098708 122.666232,483.098708 123.408272,482.853119 C123.902965,482.361941 124.150311,481.625175 123.902965,480.888408 L123.902965,480.888408 L46.7308344,355.638059 C46.2361412,354.901292 45.4941015,354.901292 44.7520618,355.146881 C44.0100221,355.638059 43.7626755,356.620414 44.2573686,357.111592 L44.2573686,357.111592 Z" transform="matrix(1 0 0 -1 0 838)"/>
    <path d="M176.920486,635.90724 L286.169559,597.566365 C286.907729,597.319005 287.153785,596.576923 286.907729,595.834842 C286.661672,595.09276 285.923503,594.8454 285.185334,595.09276 L175.93626,633.433635 C175.198091,633.680995 174.705978,634.423077 175.198091,635.165158 C175.444147,635.90724 176.182316,636.1546 176.920486,635.90724 Z" transform="matrix(1 0 0 -1 0 1231)"/>
    <path d="M201.642721,635.711594 L284.763526,689.744445 C285.505676,690.235652 286.247826,689.990049 286.742593,689.253237 C287.23736,688.516425 286.989976,687.779614 286.247826,687.288406 L203.127021,633.255555 C202.384871,632.764348 201.642721,633.009951 201.147954,633.746763 C200.900571,634.483575 200.900571,635.220386 201.642721,635.711594 Z" transform="matrix(1 0 0 -1 0 1323)"/>
    <path d="M271.625,634.71292 L286.375,551.486192 C286.375,550.743096 285.875,550 285.125,550 C284.375,550 283.625,550.495397 283.625,550.990794 L268.625,634.217523 C268.625,634.960619 269.125,635.703715 269.875,635.951413 C270.875,636.199112 271.625,635.456016 271.625,634.71292 Z" transform="matrix(1 0 0 -1 0 1186)"/>
    <path d="M282.657465,596.005867 L177.479586,472.515203 C176.9881,472.022226 176.005129,471.775737 175.513644,472.268714 C175.022159,472.761691 174.776416,473.747644 175.267901,474.240621 L175.267901,474.240621 L280.445781,597.484797 C280.937266,597.977774 281.920237,598.224263 282.411722,597.731286 C283.14895,597.484797 283.14895,596.498844 282.657465,596.005867 Z" transform="matrix(1 0 0 -1 0 1070)"/>
    <path d="M177.974757,689.016207 L203.936883,596.785616 C204.17952,596.047771 203.694246,595.309927 202.966336,595.063978 C202.238426,594.81803 201.510516,595.309927 201.267879,596.047771 L175.063117,688.278362 C174.82048,689.016207 175.305754,689.754052 176.033664,690 C177.00421,690 177.732121,689.754052 177.974757,689.016207 L177.974757,689.016207 Z" transform="matrix(1 0 0 -1 0 1285)"/>
    <path d="M283.350481,551.527273 L272.350481,473.227273 C272.350481,472.490909 271.600481,472 270.850481,472 C270.100481,472.245455 269.600481,472.736364 269.600481,473.472727 L280.600481,551.772727 C280.600481,552.509091 281.350481,553 282.100481,553 C282.850481,553 283.600481,552.263636 283.350481,551.527273 Z" transform="matrix(1 0 0 -1 0 1025)"/>
    <path d="M271.164245,594.226329 L176.07391,550.09144 C175.331017,549.847601 174.588124,550.09144 174.092862,550.822957 C173.845231,551.554475 174.092862,552.285992 174.835755,552.773671 L269.92609,596.90856 C270.668983,597.152399 271.411876,596.90856 271.907138,596.177043 C272.154769,595.445525 271.907138,594.470169 271.164245,594.226329 Z" transform="matrix(1 0 0 -1 0 1147)"/>
    <path d="M271.907792,688.016141 L203.79697,550.832723 C203.551082,550.092525 202.567532,549.845792 201.82987,550.092525 C201.092208,550.58599 200.84632,551.326189 201.092208,552.066387 L269.20303,689.249804 C269.448918,689.990003 270.432468,690.236736 271.17013,689.74327 C271.907792,689.496537 272.15368,688.756339 271.907792,688.016141 Z" transform="matrix(1 0 0 -1 0 1240)"/>
    <path d="M44.6643082,456.339701 L11.5952131,480.466916 C10.8492937,480.954335 10.8492937,481.929172 11.3465733,482.41659 C11.8438529,483.147718 12.5897724,483.147718 13.3356918,482.660299 L46.4047869,458.533084 C47.1507063,458.045665 47.1507063,457.070828 46.6534267,456.58341 C46.1561471,455.852282 45.4102276,455.852282 44.6643082,456.339701 Z" transform="matrix(1 0 0 -1 0 939)"/>
    <path d="M177.25,725.953324 L196.5,596.719837 C196.5,595.982764 196,595.245691 195.25,595 C194.5,595 193.75,595.491382 193.5,596.228455 L174.5,725.461942 C174.5,726.199015 175,726.936088 175.75,726.936088 C176.5,727.18178 177.25,726.690397 177.25,725.953324 L177.25,725.953324 Z" transform="matrix(1 0 0 -1 0 1322)"/>
    <path d="M204.657516,725.213114 L197.157516,688.048517 C196.907516,687.310147 196.157516,686.817901 195.407516,687.064024 C194.657516,687.310147 194.157516,688.048517 194.407516,688.786886 L202.157516,725.951483 C202.407516,726.689853 203.157516,727.182099 203.907516,726.935976 C204.157516,726.689853 204.657516,725.951483 204.657516,725.213114 Z" transform="matrix(1 0 0 -1 0 1414)"/>
    <path d="M203.578156,760.193425 L231.906814,689.068309 C232.155311,688.327422 231.906814,687.339573 231.161323,687.092611 C230.415832,686.845649 229.670341,687.092611 229.173347,687.833497 L201.093186,759.205576 C200.844689,759.946463 201.093186,760.687349 201.838677,760.934311 C202.335671,761.181274 203.081162,760.687349 203.578156,760.193425 Z" transform="matrix(1 0 0 -1 0 1448)"/>
    <path d="M229.670968,724.528756 L194.367742,758.651005 C193.877419,759.14553 193.877419,760.134581 194.367742,760.629106 C194.858065,761.123631 195.83871,761.123631 196.329032,760.629106 L231.632258,726.75412 C232.122581,726.259595 232.122581,725.270544 231.632258,724.776019 C231.141935,723.786968 230.16129,723.786968 229.670968,724.528756 Z" transform="matrix(1 0 0 -1 0 1485)"/>
    <path d="M196.75,873.474681 L181.25,725.279147 C181.25,724.540631 180.5,723.802115 179.5,724.048287 C178.75,724.048287 178,724.786803 178.25,725.525319 L193.75,873.720853 C194,874.459369 194.5,875.197885 195.5,874.951713 C196.25,874.951713 197,874.213197 196.75,873.474681 Z" transform="matrix(1 0 0 -1 0 1599)"/>
    <path d="M11.8303462,389.787317 L159.939511,457.90811 C160.677597,458.153149 161.661711,457.90811 161.907739,457.172994 C162.153768,456.437877 161.907739,455.457722 161.169654,455.212683 L161.169654,455.212683 L13.0604888,387.09189 C12.3224033,386.846851 11.5843177,387.09189 11.0922607,387.827006 C10.8462322,388.562123 11.0922607,389.297239 11.8303462,389.787317 Z" transform="matrix(1 0 0 -1 0 845)"/>
    <path d="M231.907003,873.944678 L180.820896,759.828264 C180.572905,759.092029 179.580941,758.846618 178.836969,759.092029 C178.092997,759.337441 177.845006,760.319088 178.092997,761.055322 L229.179104,875.171736 C229.427095,875.907971 230.419059,876.153382 231.163031,875.907971 C231.907003,875.662559 232.154994,874.680912 231.907003,873.944678 Z" transform="matrix(1 0 0 -1 0 1635)"/>
    <path d="M220.838872,208.72243 L144.549649,119.589429 C144.059043,118.850758 143.077831,118.850758 142.587225,119.343206 C141.851316,119.835653 141.851316,120.820548 142.341922,121.312996 L218.385842,210.445997 C218.876448,211.184668 219.85766,211.184668 220.593569,210.445997 C221.084175,210.199773 221.084175,209.214878 220.838872,208.72243 Z" transform="matrix(1 0 0 -1 0 330)"/>
    <path d="M219.050243,99.7446808 L314.210172,121.936563 C314.949757,122.18043 315.689342,121.692696 315.935871,120.961096 C316.182399,120.229495 315.689342,119.254028 314.949757,119.254028 L219.789828,97.0621456 C219.050243,96.8182787 218.064129,97.3060124 218.064129,98.2814797 C217.817601,98.7692134 218.310658,99.5008139 219.050243,99.7446808 Z" transform="matrix(1 0 0 -1 0 219)"/>
  </g>
</svg>
