<?xml version="1.0" encoding="UTF-8"?>
<svg width="58px" height="33px" viewBox="0 0 58 33" version="1.1" xmlns="http://www.w3.org/2000/svg" xmlns:xlink="http://www.w3.org/1999/xlink">
    <!-- Generator: Sketch 61 (89581) - https://sketch.com -->
    <title>logo_JCTF</title>
    <desc>Created with Sketch.</desc>
    <defs>
        <polygon id="path-1" points="0.0409696602 0.00943644784 27.9564682 0.00943644784 27.9564682 19.7819991 0.0409696602 19.7819991"></polygon>
        <polygon id="path-3" points="0 0.0979397957 7.61019807 0.0979397957 7.61019807 9.88612337 0 9.88612337"></polygon>
        <polygon id="path-5" points="0.0987965957 0.0609839973 2.2315985 0.0609839973 2.2315985 4.33247201 0.0987965957 4.33247201"></polygon>
        <polygon id="path-7" points="0.00782459966 0.0609839973 2.14075251 0.0609839973 2.14075251 4.33248461 0.00782459966 4.33248461"></polygon>
    </defs>
    <g id="Page-1" stroke="none" stroke-width="1" fill="none" fill-rule="evenodd">
        <g id="JCTF_LP_1280px_HOME" transform="translate(-93.000000, -16.000000)">
            <g id="HEADER">
                <g id="logo_JCTF" transform="translate(93.000000, 16.000000)">
                    <path d="M25.8122707,16.0752809 L24.5016187,14.312919 C24.6622687,13.723995 25.0362367,12.2012851 25.1331307,10.9707691 C25.9101727,11.3636371 26.6586126,11.7263911 27.3267906,12.0111511 C28.9761305,12.713475 29.4697985,8.58357323 33.3875163,7.39375528 C34.1556123,7.16052929 34.3633863,7.98116725 33.9519963,8.41561523 C32.7189604,9.71795118 32.3500324,10.7502691 32.3733424,12.5596291 C32.4115204,15.5312129 32.8555444,16.7366549 34.0380543,17.9713288 C34.5595683,18.5161528 34.2736743,19.1446408 33.0946924,18.9392608 C30.4049705,18.4705408 29.4948725,16.7240549 27.5945406,15.5420489 C27.2799186,15.3463709 26.6387046,15.5915669 25.8122707,16.0752809" id="Fill-1" fill="#2194BB"></path>
                    <g id="Group-5" transform="translate(5.796000, 12.917015)">
                        <mask id="mask-2" fill="white">
                            <use xlink:href="#path-1"></use>
                        </mask>
                        <g id="Clip-4"></g>
                        <path d="M15.5259839,14.0686554 C16.4432639,12.6187735 16.8371399,11.1755695 16.6911059,9.59061558 C16.3766099,6.17727573 13.396584,3.64177784 9.86845817,3.81099583 C6.53538032,3.97088983 3.80937043,6.8842617 3.82726243,10.2673616 C3.84540643,13.6776774 6.55415431,15.8324033 9.90562817,15.8891033 C15.9483359,15.9915413 17.8469038,15.9533633 23.8904936,16.0105673 C24.4920175,16.0162373 25.1052595,16.0389173 25.6919155,16.1583653 C27.4084134,16.5077633 28.2901614,18.0099352 27.8397114,19.7783451 C26.2664755,19.7783451 24.6850495,19.7876691 23.1038756,19.7767071 C17.3876338,19.7371431 15.8165399,19.7741871 10.1011802,19.6795611 C4.36175441,19.5844311 -0.0525293977,15.7220273 0.0424745982,9.99091757 C0.127020594,4.88627979 4.26095441,0.45775798 9.32703619,0.044855998 C14.579346,-0.383291983 19.2932578,3.11371186 20.3027697,8.17122564 C20.6659017,9.99066557 20.5603137,11.7721795 19.9872657,13.5329034 C19.8780237,13.8686934 19.7502597,14.0904534 19.3192138,14.0794914 C18.1118818,14.0484954 16.9032899,14.0686554 15.5259839,14.0686554" id="Fill-3" fill="#FEFEFE" mask="url(#mask-2)"></path>
                    </g>
                    <path d="M23.11514,12.9604098 C21.97043,12.4055059 20.8935081,11.8833619 19.7296461,11.3191339 C20.0241081,9.82956197 19.7498061,8.40362003 18.4716622,7.31762608 C17.6898322,6.65322811 16.7639843,6.35322212 15.7402343,6.45099812 C13.2924324,6.68510611 12.0277705,8.56616003 12.3736405,11.3968759 C11.1215785,11.9758459 10.2258446,12.3645559 9.03564861,13.0855278 C8.44382663,11.7499279 8.33949864,10.32827 8.57360663,8.86818201 C8.91531861,6.73764811 9.2630786,3.98858023 9.62066658,1.86069232 C9.67421658,1.54166033 9.76027458,1.21834435 9.89194457,0.92426036 C10.2349166,0.158180393 10.8524425,0.0310463986 11.4394765,0.639626372 C11.9270965,1.14501235 12.3187045,2.3617943 12.8010324,2.87297627 C12.9412704,3.02153027 13.2826044,3.12170026 13.4722344,3.06033827 C15.1835663,2.50593829 16.8773843,2.50077229 18.5909842,3.05403827 C18.7927102,3.11918026 19.1543302,2.99355827 19.3125862,2.83076628 C19.7495541,2.3815763 20.0974401,1.22792035 20.5177761,0.760838367 C21.2240061,-0.023763599 21.983534,0.0998423957 22.25771,1.11061435 C22.519412,2.07489231 22.60043,3.70722224 22.76801,4.6975822 C23.03576,6.27976413 23.327702,7.85804006 23.574788,9.44337199 C23.764544,10.6602799 23.52779,11.8274179 23.11514,12.9604098" id="Fill-6" fill="#FEFEFE"></path>
                    <g id="Group-10" transform="translate(0.000000, 10.397016)">
                        <mask id="mask-4" fill="white">
                            <use xlink:href="#path-3"></use>
                        </mask>
                        <g id="Clip-9"></g>
                        <path d="M3.33615225,3.58284764 C3.37470825,3.09787367 3.79907623,2.73587568 4.28405021,2.77430568 C4.76902419,2.81286168 5.13102218,3.23722966 5.09246618,3.72220364 C5.05403618,4.20730362 4.6296682,4.5691756 4.14469422,4.5306196 C3.65959424,4.4921896 3.29772226,4.06782162 3.33615225,3.58284764 M-2.49552048e-05,4.79080959 C-0.0172115993,6.7905555 2.93534627,8.77719742 4.6333222,9.88612337 C5.27957617,6.8148735 7.61019807,4.08382362 7.61019807,4.08382362 C7.05252209,2.48072569 6.8534421,1.91422972 6.9038421,0.0979397957 C2.76650628,1.15747375 0.0158003993,2.96708567 -2.49552048e-05,4.79080959" id="Fill-8" fill="#2194BB" mask="url(#mask-4)"></path>
                    </g>
                    <path d="M40.4087652,3.29398006 C40.3185492,3.29398006 40.2411852,3.26815006 40.1766733,3.20376406 C40.1121613,3.13925206 40.0864573,3.06188807 40.0864573,2.97167207 L40.0864573,2.06913411 C40.0864573,1.97891811 40.0477753,1.90155412 39.9832633,1.83704212 C39.9187513,1.77265612 39.8415133,1.73397412 39.7511713,1.73397412 L37.9203913,1.73397412 C38.0879713,1.74682612 38.2298473,1.81121212 38.3329153,1.92725812 C38.4489613,2.04330411 38.5134733,2.1851801 38.5134733,2.3527601 L38.5134733,7.69049787 C38.5134733,7.78071386 38.5393033,7.85807786 38.6038153,7.92258986 C38.6683273,7.98710185 38.7455653,8.02565785 38.8359073,8.02565785 L39.7511713,8.02565785 C39.8415133,8.02565785 39.9187513,7.98710185 39.9832633,7.92258986 C40.0477753,7.85807786 40.0864573,7.78071386 40.0864573,7.69049787 L40.0864573,6.77510791 C40.0864573,6.68489191 40.1121613,6.60752791 40.1766733,6.54301592 C40.2411852,6.47850392 40.3185492,6.45279992 40.4087652,6.45279992 L41.3499852,6.45279992 C41.4403272,6.45279992 41.5175652,6.47850392 41.5820772,6.54301592 C41.6464632,6.60752791 41.6851452,6.68489191 41.6851452,6.77510791 L41.6851452,8.99270781 C41.6851452,9.03138981 41.6722932,9.0829238 41.6594412,9.1474358 C41.5820772,9.41808379 41.4015192,9.57293778 41.1307452,9.59864178 L37.2500714,9.59864178 C37.1467514,9.59864178 37.0695134,9.55995978 37.0179794,9.49557379 C36.9534674,9.44391379 36.9147854,9.36654979 36.9147854,9.2633558 L36.9147854,0.483298179 C36.9147854,0.380104183 36.9534674,0.302740187 37.0179794,0.251206189 C37.0695134,0.186694192 37.1467514,0.148138194 37.2500714,0.148138194 L41.0920632,0.148138194 C41.2339392,0.160990193 41.3499852,0.212524191 41.4530532,0.289888187 C41.5433952,0.354400185 41.6207592,0.47044618 41.6594412,0.612196173 C41.6722932,0.676708171 41.6851452,0.728242168 41.6851452,0.766924167 L41.6851452,2.97167207 C41.6851452,3.06188807 41.6464632,3.13925206 41.5820772,3.20376406 C41.5175652,3.26815006 41.4403272,3.29398006 41.3499852,3.29398006 L40.4087652,3.29398006 Z" id="Fill-11" fill="#2194BB"></path>
                    <path d="M45.8752498,2.06917191 C45.8752498,1.97895591 45.8365678,1.90146592 45.7592038,1.83707992 C45.7076698,1.77256792 45.6303058,1.73388592 45.5271118,1.73388592 L43.6963319,1.73388592 C43.8639119,1.74673792 44.0057879,1.81124992 44.1218339,1.94027392 C44.2378799,2.05619391 44.2894139,2.1980699 44.2894139,2.3656499 L44.2894139,4.5575458 C44.2894139,4.6347838 44.3152439,4.71227379 44.3797559,4.78951179 C44.4442679,4.85402379 44.5343579,4.87985379 44.6245739,4.87985379 L45.5271118,4.87985379 C45.6303058,4.87985379 45.7076698,4.85402379 45.7592038,4.78951179 C45.8365678,4.72512579 45.8752498,4.6477618 45.8752498,4.5575458 L45.8752498,2.06917191 Z M46.8293218,0.148049994 L46.8551518,0.148049994 C47.0227318,0.160901993 47.1517557,0.22541399 47.2548237,0.341459985 C47.3708697,0.45750598 47.4353817,0.599255974 47.4353817,0.779813966 L47.4353817,9.2376896 C47.4353817,9.34075759 47.4095517,9.43109959 47.3450397,9.49548559 C47.2805277,9.55999758 47.2032897,9.59867958 47.1129477,9.59867958 L46.2105358,9.59867958 C46.1073418,9.59867958 46.0301038,9.55999758 45.9655918,9.49548559 C45.9010798,9.43109959 45.8752498,9.35360959 45.8752498,9.2633936 L45.8752498,6.7879977 C45.8752498,6.68480371 45.8365678,6.60756571 45.7592038,6.55590571 C45.7076698,6.47854172 45.6303058,6.43985972 45.5271118,6.43985972 L44.2894139,6.43985972 L44.2894139,9.2633936 C44.2894139,9.35360959 44.2637099,9.43109959 44.1991979,9.49548559 C44.1348119,9.55999758 44.0444699,9.59867958 43.9542539,9.59867958 L43.0517159,9.59867958 C42.9614999,9.59867958 42.8841359,9.55999758 42.8196239,9.49548559 C42.7551119,9.43109959 42.7165559,9.34075759 42.7165559,9.2376896 L42.7165559,0.779813966 C42.7165559,0.599255974 42.7680899,0.45750598 42.8841359,0.341459985 C43.0001819,0.22541399 43.1420579,0.160901993 43.3096379,0.148049994 L43.3224899,0.148049994 L46.8293218,0.148049994 Z" id="Fill-13" fill="#FEFEFE"></path>
                    <path d="M52.6183411,0.148100394 C52.7085571,0.160952393 52.7730691,0.186782392 52.8374551,0.251168389 C52.8889891,0.315680386 52.9148191,0.393044383 52.9148191,0.483260379 L52.9148191,1.39865034 C52.9148191,1.48899234 52.8889891,1.55337833 52.8374551,1.61789033 C52.7730691,1.68240233 52.7085571,1.72095833 52.6183411,1.72095833 L50.7230492,1.72095833 L50.7487532,1.72095833 C50.9163332,1.73393632 51.0582092,1.79844832 51.1742552,1.91449432 C51.2903012,2.03041431 51.3418352,2.17229031 51.3418352,2.3398703 L51.3418352,9.263444 C51.3418352,9.35365999 51.3161312,9.43102399 51.2516192,9.49553599 C51.1872332,9.55992198 51.1097432,9.59860398 51.0196532,9.59860398 L50.1041372,9.59860398 C50.0139212,9.59860398 49.9365572,9.55992198 49.8720452,9.49553599 C49.8075332,9.43102399 49.7689772,9.35365999 49.7689772,9.263444 L49.7689772,1.72095833 L48.5053233,1.72095833 C48.4152333,1.72095833 48.3507213,1.68240233 48.2862093,1.61789033 C48.2216973,1.55337833 48.1959933,1.48899234 48.1959933,1.39865034 L48.1959933,0.483260379 C48.1959933,0.393044383 48.2216973,0.315680386 48.2862093,0.251168389 C48.3377433,0.186782392 48.4022553,0.160952393 48.4796193,0.148100394 L52.6183411,0.148100394 Z" id="Fill-15" fill="#FEFEFE"></path>
                    <path d="M41.3527824,11.6597497 C41.4429984,11.6726017 41.5075104,11.6984317 41.5718964,11.7628177 C41.6234304,11.8273297 41.6493864,11.9046937 41.6493864,11.9949097 L41.6493864,12.9102996 C41.6493864,13.0006416 41.6234304,13.0650276 41.5718964,13.1295396 C41.5075104,13.1940516 41.4429984,13.2326076 41.3527824,13.2326076 L39.4574905,13.2326076 L39.4831945,13.2326076 C39.6507745,13.2455856 39.7926505,13.3100976 39.9086965,13.4261436 C40.0247425,13.5420636 40.0762765,13.6839396 40.0762765,13.8515196 L40.0762765,20.7750933 C40.0762765,20.8653093 40.0505725,20.9426733 39.9860605,21.0071853 C39.9216745,21.0716973 39.8441845,21.1102533 39.7540945,21.1102533 L38.8385785,21.1102533 C38.7483625,21.1102533 38.6709985,21.0716973 38.6064865,21.0071853 C38.5419745,20.9426733 38.5034185,20.8653093 38.5034185,20.7750933 L38.5034185,13.2326076 L37.2397646,13.2326076 C37.1496746,13.2326076 37.0851626,13.1940516 37.0206506,13.1295396 C36.9561386,13.0650276 36.9304346,13.0006416 36.9304346,12.9102996 L36.9304346,11.9949097 C36.9304346,11.9046937 36.9561386,11.8273297 37.0206506,11.7628177 C37.0721846,11.6984317 37.1366966,11.6726017 37.2140606,11.6597497 L41.3527824,11.6597497 Z" id="Fill-17" fill="#2194BB"></path>
                    <path d="M46.9351744,11.6597497 C47.0255164,11.6597497 47.1028804,11.6984317 47.1672663,11.7628177 C47.2317783,11.8273297 47.2704603,11.9046937 47.2704603,11.9949097 L47.2704603,20.7750933 C47.2704603,20.8653093 47.2317783,20.9426733 47.1672663,21.0071853 C47.1028804,21.0716973 47.0255164,21.1102533 46.9351744,21.1102533 L46.0197844,21.1102533 C45.9296944,21.1102533 45.8522044,21.0716973 45.7878184,21.0071853 C45.7233064,20.9426733 45.6974764,20.8653093 45.6974764,20.7750933 L45.6974764,18.2867194 C45.6974764,18.1965034 45.6587944,18.1191394 45.5942824,18.0546274 C45.5298964,17.9902414 45.4525324,17.9644114 45.3623164,17.9644114 L43.5314105,17.9644114 C43.6862645,17.9772634 43.8150365,18.0289234 43.9310825,18.1319914 C44.0471285,18.2351854 44.1116405,18.3640834 44.1244925,18.5188114 L44.1244925,20.8266273 C44.1116405,20.9168433 44.0729585,20.9813553 44.0084465,21.0328893 C43.9440605,21.0844233 43.8795485,21.1102533 43.8023105,21.1102533 L42.8867945,21.1102533 C42.7965785,21.1102533 42.7192145,21.0716973 42.6547025,21.0071853 C42.5903165,20.9426733 42.5516345,20.8653093 42.5516345,20.7750933 L42.5516345,11.9949097 C42.5516345,11.9046937 42.5903165,11.8273297 42.6547025,11.7628177 C42.7192145,11.6984317 42.7965785,11.6597497 42.8867945,11.6597497 L43.8023105,11.6597497 C43.8925265,11.6597497 43.9569125,11.6984317 44.0214245,11.7628177 C44.0859365,11.8273297 44.1244925,11.9046937 44.1244925,11.9949097 L44.1244925,16.0562675 C44.1244925,16.1464835 44.1503225,16.2238475 44.2148345,16.2883595 C44.2793465,16.3527455 44.3565845,16.3785755 44.4469265,16.3914275 C44.7562565,16.4044055 45.0657124,16.4044055 45.3751684,16.3914275 C45.4653844,16.3785755 45.5427484,16.3527455 45.6072604,16.2883595 C45.6717724,16.2238475 45.6974764,16.1464835 45.6974764,16.0562675 L45.6974764,11.9949097 C45.6974764,11.9046937 45.7233064,11.8273297 45.7878184,11.7628177 C45.8522044,11.6984317 45.9296944,11.6597497 46.0197844,11.6597497 L46.9351744,11.6597497 Z" id="Fill-19" fill="#FEFEFE"></path>
                    <path d="M49.2042831,13.232658 L49.2299871,13.232658 C49.3976931,13.245636 49.539443,13.29717 49.655489,13.413216 C49.771535,13.542114 49.823069,13.68399 49.823069,13.85157 L49.823069,16.0563179 C49.823069,16.1464079 49.848899,16.2238979 49.913411,16.2882839 C49.977923,16.3527959 50.055161,16.3786259 50.158355,16.3786259 L51.8602369,16.3786259 C51.9504529,16.3786259 52.0149649,16.4043299 52.0793509,16.4688419 C52.1438629,16.5332279 52.1825449,16.6235699 52.1825449,16.7137859 L52.1825449,17.6291758 C52.1825449,17.7193918 52.1438629,17.7967558 52.0793509,17.8612678 C52.0149649,17.9257798 51.9504529,17.9514838 51.8602369,17.9514838 L50.171207,17.9514838 C50.068013,17.9514838 49.977923,17.9773138 49.913411,18.0416998 C49.848899,18.1062118 49.823069,18.1964278 49.823069,18.2996218 L49.823069,19.1893078 C49.823069,19.2923758 49.848899,19.3825918 49.913411,19.4471038 C49.977923,19.5116158 50.068013,19.5374457 50.171207,19.5374457 L52.6466029,19.5374457 C52.7369449,19.5374457 52.8271609,19.5760017 52.8916729,19.6405137 C52.9560589,19.6920477 52.9818889,19.7694117 52.9818889,19.8596277 L52.9818889,20.7878697 C52.9818889,20.8782117 52.9560589,20.9555757 52.8916729,21.0072357 C52.8271609,21.0716217 52.7369449,21.1103037 52.6466029,21.1103037 L48.5725191,21.1103037 C48.4823031,21.1103037 48.4048131,21.0716217 48.3532791,21.0072357 C48.2887671,20.9555757 48.2502111,20.8782117 48.2502111,20.7878697 L48.2502111,11.9821081 C48.2502111,11.8917661 48.2887671,11.8144021 48.3532791,11.7628681 C48.4048131,11.6983561 48.4823031,11.6598001 48.5725191,11.6598001 L52.6466029,11.6598001 C52.7369449,11.6598001 52.8271609,11.6983561 52.8916729,11.7628681 C52.9560589,11.8144021 52.9818889,11.8917661 52.9818889,11.9821081 L52.9818889,12.91035 C52.9818889,12.987714 52.9560589,13.0521 52.9045249,13.116612 C52.8400129,13.181124 52.7626489,13.219806 52.6724329,13.232658 L49.2042831,13.232658 Z" id="Fill-21" fill="#FEFEFE"></path>
                    <path d="M42.236622,24.2746927 C42.236622,24.3650347 42.210792,24.4423987 42.159258,24.5067847 C42.094746,24.5712967 42.030234,24.5971267 41.940018,24.6099787 L38.4847201,24.6099787 L38.5105501,24.6099787 C38.6651521,24.6228307 38.8070281,24.6872167 38.9230741,24.8162407 C39.0391201,24.9193087 39.0906541,25.0611847 39.0906541,25.2287647 L39.0906541,27.7686726 L41.140674,27.7686726 C41.218038,27.7686726 41.295402,27.7946286 41.359914,27.8590146 C41.424426,27.9234006 41.45013,28.0007646 41.45013,28.0911066 L41.45013,29.0064965 C41.45013,29.0968385 41.424426,29.1740765 41.359914,29.2256105 C41.295402,29.2901225 41.218038,29.3288045 41.140674,29.3288045 L39.0906541,29.3288045 L39.0906541,32.1651904 C39.0906541,32.2425544 39.0520981,32.3200444 38.9875861,32.3844304 C38.9230741,32.4489424 38.8457101,32.4876244 38.7554941,32.4876244 L37.8399782,32.4876244 C37.7627402,32.4876244 37.6853762,32.4489424 37.6208642,32.3844304 C37.5563522,32.3200444 37.5177962,32.2425544 37.5177962,32.1651904 L37.5177962,23.0369948 L41.914188,23.0369948 C42.00453,23.0369948 42.081768,23.0756768 42.14628,23.1401888 C42.210792,23.2045748 42.236622,23.2819388 42.236622,23.3593028 L42.236622,24.2746927 Z" id="Fill-23" fill="#2194BB"></path>
                    <path d="M45.189016,32.1524014 C45.189016,32.2426174 45.150208,32.3199814 45.085822,32.3844934 C45.02131,32.4490054 44.956798,32.4875614 44.866582,32.4875614 L43.9513181,32.4875614 C43.8609761,32.4875614 43.7836121,32.4490054 43.7192261,32.3844934 C43.6547141,32.3199814 43.6160321,32.2426174 43.6160321,32.1524014 L43.6160321,23.3722178 C43.6160321,23.2820018 43.6547141,23.2045118 43.7192261,23.1402518 C43.7836121,23.0757398 43.8609761,23.0369318 43.9513181,23.0369318 L44.866582,23.0369318 C44.956798,23.0369318 45.02131,23.0757398 45.085822,23.1402518 C45.150208,23.2045118 45.189016,23.2820018 45.189016,23.3722178 L45.189016,32.1524014 Z" id="Fill-25" fill="#FEFEFE"></path>
                    <path d="M49.9461332,25.2417175 C49.9461332,25.0741375 49.8945992,24.9192835 49.7785532,24.8033635 C49.6625072,24.6873175 49.5207572,24.6356575 49.3530513,24.6228055 L47.8060233,24.6228055 C47.9606253,24.6356575 48.0896493,24.7001695 48.2056953,24.8162155 C48.3216153,24.9322615 48.3732753,25.0741375 48.3732753,25.2417175 L48.3732753,27.1885434 C48.3861273,27.3432714 48.4376613,27.4721694 48.5537073,27.5882154 C48.6697533,27.7042614 48.7987773,27.7557954 48.9663573,27.7687734 L50.2814192,27.7687734 L50.3071232,27.7687734 C50.6552612,27.7816254 50.9390132,27.9106494 51.1711052,28.1554674 C51.4030712,28.4004114 51.5191172,28.6970154 51.5191172,29.0451533 L51.5191172,31.2112192 C51.5191172,31.3142872 51.5062652,31.4174812 51.4932872,31.5076972 C51.4289012,31.7784712 51.2871512,32.0105632 51.0677852,32.1909952 C50.8486712,32.3715532 50.5908752,32.4746212 50.3071232,32.4875992 L49.1597673,32.4875992 L47.9993073,32.4875992 L47.7801933,32.4489172 C47.5481013,32.3973832 47.3418393,32.2812112 47.1741333,32.1136312 C47.0065534,31.9460512 46.8905074,31.7397892 46.8389734,31.5076972 C46.8132694,31.4174812 46.8002914,31.3142872 46.8002914,31.2112192 L46.8002914,30.4632833 C46.8002914,30.3731933 46.8389734,30.2828513 46.9034854,30.2184653 C46.9678714,30.1539533 47.0453614,30.1281233 47.1354513,30.1281233 L48.0509673,30.1281233 C48.1411833,30.1281233 48.2056953,30.1539533 48.2700813,30.2184653 C48.3345933,30.2828513 48.3732753,30.3731933 48.3732753,30.4632833 L48.3732753,30.5793293 C48.3732753,30.6696713 48.4118313,30.7470353 48.4763433,30.8114213 C48.5408553,30.8759333 48.6182193,30.9146153 48.7084353,30.9146153 L49.6238252,30.9146153 C49.7140412,30.9146153 49.7914052,30.8759333 49.8559172,30.8114213 C49.9204292,30.7470353 49.9461332,30.6696713 49.9461332,30.5793293 L49.9461332,29.6640653 C49.9461332,29.5737233 49.9204292,29.4964853 49.8559172,29.4319733 C49.7914052,29.3674613 49.7140412,29.3416313 49.6238252,29.3416313 L47.9993073,29.3416313 L47.7801933,29.3029493 C47.5481013,29.2514153 47.3418393,29.1353693 47.1741333,28.9677893 C47.0065534,28.8002093 46.8905074,28.5938214 46.8389734,28.3618554 C46.8132694,28.2716394 46.8002914,28.1684454 46.8002914,28.0652514 L46.8002914,24.3262015 C46.8002914,24.2101555 46.8132694,24.1070876 46.8389734,24.0168716 C46.8905074,23.7847796 47.0065534,23.5913696 47.1741333,23.4237896 C47.3418393,23.2562096 47.5481013,23.1401636 47.7801933,23.0757776 L47.9993073,23.0369696 L48.0379893,23.0369696 L49.1726193,23.0369696 L50.3071232,23.0369696 C50.6552612,23.0627996 50.9390132,23.1916976 51.1711052,23.4367676 C51.4030712,23.6815856 51.5191172,23.9781896 51.5191172,24.3262015 L51.5191172,25.8605035 C51.5191172,25.9508455 51.4932872,26.0282095 51.4289012,26.0927215 C51.3643892,26.1571075 51.2998772,26.1829375 51.2096612,26.1957895 L50.2685672,26.1957895 C50.1782252,26.1829375 50.1009872,26.1571075 50.0364752,26.0927215 C49.9719632,26.0282095 49.9461332,25.9508455 49.9461332,25.8605035 L49.9461332,25.2417175 Z" id="Fill-27" fill="#FEFEFE"></path>
                    <path d="M57.3078971,23.0369696 C57.3982391,23.0369696 57.4756031,23.0757776 57.5401151,23.1401636 C57.6045011,23.2045496 57.6431831,23.2819136 57.6431831,23.3722556 L57.6431831,32.1524392 C57.6431831,32.2426552 57.6045011,32.3200192 57.5401151,32.3845312 C57.4756031,32.4489172 57.3982391,32.4875992 57.3078971,32.4875992 L56.3925071,32.4875992 C56.3022911,32.4875992 56.2249272,32.4489172 56.1605412,32.3845312 C56.0960292,32.3200192 56.0701992,32.2426552 56.0701992,32.1524392 L56.0701992,29.6640653 C56.0701992,29.5737233 56.0315172,29.4964853 55.9670052,29.4319733 C55.9026192,29.3674613 55.8252552,29.3416313 55.7350392,29.3416313 L53.9041333,29.3416313 C54.0589872,29.3546093 54.1877592,29.4061433 54.3038052,29.5093373 C54.4198512,29.6125313 54.4843632,29.7414293 54.4972152,29.8961573 L54.4972152,32.2039732 C54.4843632,32.2941892 54.4456812,32.3585752 54.3811692,32.4102352 C54.3167832,32.4617692 54.2522712,32.4875992 54.1750332,32.4875992 L53.2595173,32.4875992 C53.1693013,32.4875992 53.0919373,32.4489172 53.0274253,32.3845312 C52.9630393,32.3200192 52.9243573,32.2426552 52.9243573,32.1524392 L52.9243573,23.3722556 C52.9243573,23.2819136 52.9630393,23.2045496 53.0274253,23.1401636 C53.0919373,23.0757776 53.1693013,23.0369696 53.2595173,23.0369696 L54.1750332,23.0369696 C54.2652492,23.0369696 54.3296352,23.0757776 54.3941472,23.1401636 C54.4586592,23.2045496 54.4972152,23.2819136 54.4972152,23.3722556 L54.4972152,27.4336134 C54.4972152,27.5237034 54.5230452,27.6011934 54.5875572,27.6655794 C54.6519432,27.7300914 54.7293072,27.7557954 54.8196492,27.7687734 C55.1289792,27.7816254 55.4384352,27.7816254 55.7478912,27.7687734 C55.8381072,27.7557954 55.9154712,27.7300914 55.9799832,27.6655794 C56.0444952,27.6011934 56.0701992,27.5237034 56.0701992,27.4336134 L56.0701992,23.3722556 C56.0701992,23.2819136 56.0960292,23.2045496 56.1605412,23.1401636 C56.2249272,23.0757776 56.3022911,23.0369696 56.3925071,23.0369696 L57.3078971,23.0369696 Z" id="Fill-29" fill="#FEFEFE"></path>
                    <path d="M27.007053,4.39752581 L25.1538451,4.39752581 L25.1364571,4.39752581 C25.0665271,4.39172981 25.0023931,4.36262381 24.9499771,4.31008181 C24.8974351,4.25766581 24.8742511,4.19353182 24.8742511,4.11780582 L24.8742511,3.12139786 C24.8742511,3.08057387 24.8916391,3.04554587 24.9207451,3.01643987 C24.9499771,2.98733387 24.9848791,2.97561587 25.0257031,2.97561587 L25.4394871,2.97561587 C25.4801851,2.97561587 25.5094171,2.98733387 25.5385231,3.01643987 C25.5676291,3.04554587 25.5851431,3.08057387 25.5851431,3.12139786 L25.5851431,3.53505585 C25.5851431,3.57587984 25.6026571,3.61078184 25.6317631,3.64001384 C25.6608691,3.66911984 25.6958971,3.68650784 25.7365951,3.68650784 L26.2960351,3.68650784 L26.2960351,0.277577988 C26.2960351,0.23675399 26.3135491,0.201851991 26.3427811,0.172619992 C26.3717611,0.143513994 26.4067891,0.125999995 26.447613,0.125999995 L26.861397,0.125999995 C26.902095,0.125999995 26.937123,0.143513994 26.966229,0.172619992 C26.995335,0.201851991 27.007053,0.23675399 27.007053,0.277577988 L27.007053,4.39752581 Z" id="Fill-31" fill="#FEFEFE"></path>
                    <g id="Group-35" transform="translate(27.467999, 0.065016)">
                        <mask id="mask-6" fill="white">
                            <use xlink:href="#path-5"></use>
                        </mask>
                        <g id="Clip-34"></g>
                        <path d="M0.0987965957,0.212524191 C0.0987965957,0.171700193 0.116310595,0.136798194 0.145416594,0.107566195 C0.174648592,0.0784601966 0.209550591,0.0609461973 0.250374589,0.0609461973 L0.664032571,0.0609461973 C0.704856569,0.0609461973 0.739758568,0.0784601966 0.768990567,0.107566195 C0.792300566,0.136798194 0.803892565,0.171700193 0.803892565,0.212524191 L0.803892565,3.47012805 C0.803892565,3.51082605 0.821406564,3.54585405 0.856434563,3.57496004 C0.885540561,3.60986204 0.92044256,3.62737604 0.961266558,3.62737604 L1.52650253,3.62737604 L1.52650253,0.212524191 C1.52650253,0.171700193 1.53822053,0.136798194 1.56153053,0.107566195 C1.59643253,0.0784601966 1.63146053,0.0609461973 1.66636253,0.0609461973 L2.08014651,0.0609461973 C2.12676651,0.0609461973 2.16179451,0.0784601966 2.1849785,0.107566195 C2.2142105,0.136798194 2.2315985,0.171700193 2.2315985,0.212524191 L2.2315985,4.33247201 L0.646644572,4.33247201 C0.489270579,4.32667601 0.355206585,4.26254201 0.256170589,4.15191402 C0.151338593,4.04116002 0.0987965957,3.91289203 0.0987965957,3.76144004 L0.0987965957,0.212524191 Z" id="Fill-33" fill="#FEFEFE" mask="url(#mask-6)"></path>
                    </g>
                    <g id="Group-38" transform="translate(30.239999, 0.065016)">
                        <mask id="mask-8" fill="white">
                            <use xlink:href="#path-7"></use>
                        </mask>
                        <g id="Clip-37"></g>
                        <path d="M1.42973454,1.05749275 C1.42973454,0.981766757 1.40629854,0.91183676 1.35388254,0.859420763 C1.30146654,0.806878765 1.23745855,0.783568766 1.16160655,0.777772766 L0.46230658,0.777772766 C0.532236577,0.783568766 0.590574574,0.812800765 0.642990572,0.865216762 C0.69540657,0.91763276 0.718716569,0.981766757 0.718716569,1.05749275 L0.718716569,1.93747672 C0.724512568,2.00740671 0.747948567,2.06561871 0.800364565,2.11803471 C0.852780563,2.17045071 0.91111856,2.1938867 0.986718557,2.1996827 L1.58118653,2.1996827 L1.59290453,2.1996827 C1.75027852,2.2054787 1.87842052,2.2638167 1.98337851,2.3745707 C2.08821051,2.48519869 2.14075251,2.61926269 2.14075251,2.77663668 L2.14075251,3.75565664 C2.14075251,3.80227663 2.13483051,3.84877063 2.12903451,3.88959463 C2.09980251,4.01194063 2.03579451,4.11689862 1.93663252,4.19842062 C1.83759652,4.28006861 1.72117253,4.32668861 1.59290453,4.33248461 L1.07428855,4.33248461 L0.549876576,4.33248461 L0.45058858,4.31509661 C0.345756585,4.29166061 0.252516589,4.23924462 0.176916592,4.16351862 C0.101064596,4.08779262 0.0486485979,3.99455263 0.0253385989,3.88959463 C0.0136205994,3.84877063 0.00782459966,3.80227663 0.00782459966,3.75565664 L0.00782459966,3.41759865 C0.00782459966,3.37677465 0.0253385989,3.33595065 0.0544445976,3.30684466 C0.0835505964,3.27773866 0.118578595,3.26602066 0.159276593,3.26602066 L0.573060575,3.26602066 C0.613758573,3.26602066 0.642990572,3.27773866 0.672096571,3.30684466 C0.701328569,3.33595065 0.718716569,3.37677465 0.718716569,3.41759865 L0.718716569,3.47001465 C0.718716569,3.51083865 0.736230568,3.54586665 0.765462567,3.57497264 C0.794568565,3.60407864 0.829470564,3.62159264 0.870294562,3.62159264 L1.28407854,3.62159264 C1.32477654,3.62159264 1.35967854,3.60407864 1.38891054,3.57497264 C1.41801654,3.54586665 1.42973454,3.51083865 1.42973454,3.47001465 L1.42973454,3.05635667 C1.42973454,3.01553267 1.41801654,2.98050467 1.38891054,2.95139867 C1.35967854,2.92229267 1.32477654,2.91070067 1.28407854,2.91070067 L0.549876576,2.91070067 L0.45058858,2.89306067 C0.345756585,2.86987668 0.252516589,2.81733468 0.176916592,2.74160868 C0.101064596,2.66588268 0.0486485979,2.57264269 0.0253385989,2.46768469 C0.0136205994,2.42698669 0.00782459966,2.3803667 0.00782459966,2.3336207 L0.00782459966,0.643708772 C0.00782459966,0.591292774 0.0136205994,0.544672776 0.0253385989,0.503848778 C0.0486485979,0.399016783 0.101064596,0.311572786 0.176916592,0.23584679 C0.252516589,0.159994793 0.345756585,0.107578795 0.45058858,0.0784727966 L0.549876576,0.0609587973 L0.567264575,0.0609587973 L1.08008455,0.0609587973 L1.59290453,0.0609587973 C1.75027852,0.0726767968 1.87842052,0.130888794 1.98337851,0.241642789 C2.08821051,0.352396785 2.14075251,0.486460779 2.14075251,0.643708772 L2.14075251,1.33721274 C2.14075251,1.37803674 2.12903451,1.41293874 2.09980251,1.44204474 C2.07069651,1.47127674 2.04159051,1.48286874 2.00076651,1.48866474 L1.57539053,1.48866474 C1.53456653,1.48286874 1.49966453,1.47127674 1.47043254,1.44204474 C1.44132654,1.41293874 1.42973454,1.37803674 1.42973454,1.33721274 L1.42973454,1.05749275 Z" id="Fill-36" fill="#FEFEFE" mask="url(#mask-8)"></path>
                    </g>
                    <path d="M34.7935251,0.126012595 C34.8343491,0.131808594 34.8635811,0.143526594 34.8926871,0.172632592 C34.9159971,0.201864591 34.9275891,0.23676659 34.9275891,0.277590588 L34.9275891,0.69124857 C34.9275891,0.732072568 34.9159971,0.761178567 34.8926871,0.790284566 C34.8635811,0.819516564 34.8343491,0.837030564 34.7935251,0.837030564 L33.9369771,0.837030564 L33.9485691,0.837030564 C34.0244211,0.842826563 34.0884291,0.871932562 34.1408451,0.92434856 C34.1932611,0.976764557 34.2166971,1.04089855 34.2166971,1.11662455 L34.2166971,4.24596042 C34.2166971,4.28678441 34.2049791,4.32181241 34.1758731,4.35091841 C34.1467671,4.38002441 34.1117391,4.39753841 34.0710411,4.39753841 L33.6571311,4.39753841 C33.6164331,4.39753841 33.5815311,4.38002441 33.5522991,4.35091841 C33.5231931,4.32181241 33.5056791,4.28678441 33.5056791,4.24596042 L33.5056791,0.837030564 L32.9346472,0.837030564 C32.8938232,0.837030564 32.8647172,0.819516564 32.8356112,0.790284566 C32.8063792,0.761178567 32.7947872,0.732072568 32.7947872,0.69124857 L32.7947872,0.277590588 C32.7947872,0.23676659 32.8063792,0.201864591 32.8356112,0.172632592 C32.8589212,0.143526594 32.8880272,0.131808594 32.9229292,0.126012595 L34.7935251,0.126012595 Z" id="Fill-39" fill="#FEFEFE"></path>
                </g>
            </g>
        </g>
    </g>
</svg>