<?xml version="1.0" encoding="UTF-8"?>
<svg width="33px" height="58px" viewBox="0 0 33 58" version="1.1" xmlns="http://www.w3.org/2000/svg" xmlns:xlink="http://www.w3.org/1999/xlink">
    <!-- Generator: Sketch 61 (89581) - https://sketch.com -->
    <title>medal_icon</title>
    <desc>Created with Sketch.</desc>
    <g id="Page-1" stroke="none" stroke-width="1" fill="none" fill-rule="evenodd">
        <g id="JCTF_LP_1280px_HOME" transform="translate(-818.000000, -1483.000000)" fill-rule="nonzero">
            <g id="4" transform="translate(258.000000, 1406.000000)">
                <g id="Group-4" transform="translate(560.000000, 77.000000)">
                    <g id="medal_icon">
                        <path d="M16.3797762,28.3231392 C9.14921003,28.3231392 3.26950923,34.20284 3.26950923,41.4334062 C3.26950923,48.6639723 9.14921003,54.5626579 16.3797762,54.5626579 C23.6103424,54.5626579 29.4900432,48.6735383 29.4900432,41.4429721 C29.4900432,34.212406 23.6103424,28.3231392 16.3797762,28.3231392 Z" id="SVGCleanerId_0" fill="#FFFFFF"></path>
                        <path d="M16.3797762,28.3231392 C9.14921003,28.3231392 3.26950923,34.20284 3.26950923,41.4334062 C3.26950923,48.6639723 9.14921003,54.5626579 16.3797762,54.5626579 C23.6103424,54.5626579 29.4900432,48.6735383 29.4900432,41.4429721 C29.4900432,34.212406 23.6103424,28.3231392 16.3797762,28.3231392 Z" id="SVGCleanerId_0_1_" fill="#212D43"></path>
                        <path d="M16.3797762,51.3468654 C10.9187716,51.3468654 6.47573574,46.9038296 6.47573574,41.442825 C6.47573574,35.9818203 10.9187716,31.5387845 16.3797762,31.5387845 C21.8407808,31.5387845 26.2838167,35.9818203 26.2838167,41.442825 C26.2838167,46.9038296 21.8407808,51.3468654 16.3797762,51.3468654 Z" id="Path" fill="#FFFFFF"></path>
                        <path d="M22.8777345,26.477344 L29.4327944,19.9222842 C29.7277213,19.6273572 29.8990262,19.2182271 29.8990262,18.7805461 L29.8990262,5.61317751 C29.8991733,2.52115424 27.3778719,0 24.2858486,0 L8.48312258,0 C5.39109931,0 2.86994506,2.52115424 2.86994506,5.61317751 L2.86994506,18.7805461 C2.86994506,19.1990951 3.04124992,19.6082252 3.33617684,19.9222842 C3.33617684,19.9222842 7.80776347,24.3938708 9.89123674,26.477344 C4.11632036,28.9890795 0.0538638989,34.7544299 0.0538638989,41.452391 C0.0538638989,50.4620847 7.37964849,57.7783033 16.3797762,57.7783033 C25.3799039,57.7783033 32.7056885,50.4525187 32.7056885,41.452391 C32.7056885,34.754577 28.652798,28.9890795 22.8777345,26.477344 Z M21.9549841,3.20622651 L24.2764298,3.20622651 C25.6084575,3.20622651 26.683528,4.29086294 26.683528,5.61332468 L26.683528,18.1241718 L21.9551312,22.8525686 L21.9549841,3.20622651 L21.9549841,3.20622651 Z M14.0107948,3.20622651 L18.7391916,3.20622651 L18.7391916,25.3166212 C17.968614,25.2024179 17.1789045,25.1263315 16.3702102,25.1263315 C15.5615159,25.1263315 14.7813724,25.2024179 14.0012288,25.3166212 L14.0012288,3.20622651 L14.0107948,3.20622651 Z M6.07617157,18.1241718 L6.07617157,5.61332468 C6.07617157,4.28129695 7.16080801,3.20622651 8.48326974,3.20622651 L10.8047155,3.20622651 L10.8047155,22.8430026 C8.5402242,20.5977904 6.07617157,18.1241718 6.07617157,18.1241718 Z M16.3797762,54.5625108 C9.14921003,54.5625108 3.26950923,48.68281 3.26950923,41.4522438 C3.26950923,34.2216776 9.14921003,28.322992 16.3797762,28.322992 C23.6103424,28.322992 29.4900432,34.2026928 29.4900432,41.4426778 C29.4900432,48.6826628 23.6103424,54.5625108 16.3797762,54.5625108 Z" id="Shape" fill="#FFFFFF"></path>
                        <path d="M10.8045683,3.20622651 L8.48312258,3.20622651 C7.15109485,3.20622651 6.0760244,4.29086294 6.0760244,5.61332468 L6.0760244,18.1241718 C6.0760244,18.1241718 8.54007703,20.5882244 10.8044211,22.8525686 L10.8044211,3.20622651 L10.8045683,3.20622651 Z" id="Path" fill="#212D43"></path>
                        <path d="M18.7487576,25.3166212 L18.7487576,3.20622651 L14.0203608,3.20622651 L14.0203608,25.3166212 C14.7909383,25.2024179 15.5806479,25.1263315 16.3893422,25.1263315 C17.1884705,25.1169127 17.968614,25.2024179 18.7487576,25.3166212 Z" id="Path" fill="#212D43"></path>
                        <path d="M26.6833808,5.61317751 C26.6833808,4.28114978 25.5987444,3.20607934 24.2762826,3.20607934 L21.9548369,3.20607934 L21.9548369,22.8524214 L26.6832337,18.1240246 L26.6832337,5.61317751 L26.6833808,5.61317751 Z" id="Path" fill="#212D43"></path>
                    </g>
                </g>
            </g>
        </g>
    </g>
</svg>