<?xml version="1.0" encoding="UTF-8"?>
<svg width="15px" height="14px" viewBox="0 0 15 14" version="1.1" xmlns="http://www.w3.org/2000/svg" xmlns:xlink="http://www.w3.org/1999/xlink">
    <!-- Generator: Sketch 61 (89581) - https://sketch.com -->
    <title>star_icon</title>
    <desc>Created with Sketch.</desc>
    <g id="Page-1" stroke="none" stroke-width="1" fill="none" fill-rule="evenodd">
        <g id="JCTF_LP_1280px_CHALLENGES_tag_active" transform="translate(-93.000000, -286.000000)" fill="#2194BB" fill-rule="nonzero">
            <g id="Group-Copy-14" transform="translate(73.000000, 234.000000)">
                <g id="news_box">
                    <g id="Group-3">
                        <path d="M34.4890048,56.5419348 C34.0959315,56.1615686 33.6635509,55.9713856 33.1525557,55.9713856 L30.0865842,55.9713856 L29.1432084,53.1947126 L29.1432084,53.156676 C29.0645937,52.8904197 28.9073644,52.6622 28.7108278,52.4720169 C28.5535985,52.3198704 28.3177545,52.167724 28.0819106,52.0916507 C28.0426032,52.0536141 27.9639886,52.0536141 27.9246813,52.0536141 C27.4923007,51.9395043 27.0206128,52.0155775 26.6668468,52.2057606 C26.2737736,52.3959437 25.959315,52.7002366 25.8020856,53.1186394 C25.7627783,53.156676 25.7627783,53.1947126 25.7627783,53.2707858 L24.8587098,56.0474588 L21.9106603,56.0474588 C21.5962017,56.0094222 21.3210505,56.0854954 21.0458992,56.1996052 C20.7707479,56.3137151 20.5349039,56.5038982 20.3383673,56.7321179 C20.063216,57.112484 19.945294,57.5689234 20.0239087,58.0253628 C20.1025233,58.4818022 20.3383673,58.8621683 20.7314406,59.1664613 L23.2078021,60.9161456 L22.2644263,63.7308552 C22.2644263,63.7688918 22.2644263,63.7688918 22.2644263,63.8069284 C22.1858116,64.0351481 22.1858116,64.3014044 22.225119,64.5296241 C22.2644263,64.7958804 22.3823483,65.0621367 22.5395776,65.2903564 C22.8147289,65.6707226 23.2471094,65.8989423 23.7187974,65.9750155 C24.1511779,66.0510887 24.6621732,65.9369789 25.0552464,65.6707226 L27.531608,63.9210382 L29.8900476,65.5946493 C30.1258915,65.7848324 30.4010428,65.8989423 30.7155014,65.9750155 C30.9906527,66.0130521 31.3051113,66.0130521 31.6195699,65.9369789 C32.0912579,65.7848324 32.4450238,65.4805395 32.6415604,65.0621367 C32.8380971,64.6817706 32.9167117,64.1872945 32.7594824,63.7308552 L31.8161066,60.9161456 L34.2924681,59.1664613 C34.4890048,59.0143148 34.6855414,58.8241317 34.8034634,58.5578754 C34.9213853,58.3296557 35,58.0633994 35,57.7591065 C35,57.2646305 34.8034634,56.8462277 34.4890048,56.5419348 Z M33.2704776,57.7591065 L33.2311703,57.7971431 L33.191863,57.8351797 L30.2831208,59.889157 C29.9686622,60.1173767 29.8507403,60.4977428 30.0079696,60.8020357 L31.147882,64.1492579 C31.147882,64.1872945 31.147882,64.2253312 31.147882,64.2633678 C31.147882,64.3014044 31.1085747,64.3014044 31.0692674,64.339441 C31.02996,64.339441 31.02996,64.339441 30.9906527,64.339441 C30.9513454,64.339441 30.9513454,64.339441 30.9120381,64.3014044 C30.8727307,64.2633678 30.8334234,64.2633678 30.8334234,64.2253312 L27.9639886,62.2093905 C27.64953,61.9811708 27.2564567,62.0192075 26.9813054,62.2093905 L24.033256,64.3014044 C23.9939486,64.339441 23.9546413,64.339441 23.915334,64.339441 C23.8760267,64.339441 23.8367193,64.3014044 23.8367193,64.3014044 L23.797412,64.2633678 C23.797412,64.2253312 23.797412,64.2253312 23.797412,64.1872945 L23.797412,64.1492579 L24.9373245,60.8020357 C25.0552464,60.4597062 24.9373245,60.1173767 24.6228659,59.9271936 L21.6355091,57.8351797 C21.5962017,57.7971431 21.5962017,57.7971431 21.5962017,57.7591065 C21.5962017,57.7210699 21.5962017,57.6830333 21.6355091,57.6449966 C21.6355091,57.60696 21.6748164,57.60696 21.6748164,57.60696 C21.7141237,57.60696 21.7141237,57.60696 21.753431,57.60696 C21.7927384,57.60696 21.8320457,57.60696 21.871353,57.60696 L25.4090124,57.60696 C25.7627783,57.60696 26.0772369,57.3787403 26.1951589,57.0364108 L27.3350714,53.651152 C27.3350714,53.6131154 27.3743787,53.5750788 27.413686,53.5750788 C27.4529934,53.5750788 27.4923007,53.5370421 27.531608,53.5750788 C27.5709153,53.5750788 27.5709153,53.5750788 27.5709153,53.6131154 L27.6102227,53.651152 L27.6102227,53.6891886 L28.7108278,57.0364108 C28.8287498,57.3787403 29.1825157,57.60696 29.5362816,57.60696 L33.1525557,57.60696 C33.191863,57.60696 33.2311703,57.60696 33.2311703,57.6449966 C33.2704776,57.6830333 33.2704776,57.6830333 33.2704776,57.7210699 C33.309785,57.7210699 33.309785,57.7591065 33.2704776,57.7591065 Z" id="star_icon"></path>
                    </g>
                </g>
            </g>
        </g>
    </g>
</svg>