<?xml version="1.0" encoding="UTF-8"?>
<svg width="34px" height="28px" viewBox="0 0 34 28" version="1.1" xmlns="http://www.w3.org/2000/svg" xmlns:xlink="http://www.w3.org/1999/xlink">
    <!-- Generator: Sketch 61 (89581) - https://sketch.com -->
    <title>twitter_icon</title>
    <desc>Created with Sketch.</desc>
    <g id="Page-1" stroke="none" stroke-width="1" fill="none" fill-rule="evenodd">
        <g id="JCTF_LP_1280px_HOME" transform="translate(-717.000000, -1890.000000)" fill="#FFFFFF" fill-rule="nonzero">
            <g id="footer" transform="translate(336.000000, 1886.000000)">
                <path d="M414.939394,7.31476923 C413.677273,7.87692308 412.332424,8.24953846 410.930303,8.43046154 C412.372727,7.556 413.473636,6.18184615 413.991212,4.52553846 C412.646364,5.33969231 411.161515,5.91476923 409.579091,6.23569231 C408.302121,4.85507692 406.482121,4 404.496667,4 C400.644545,4 397.543333,7.17476923 397.543333,11.0667692 C397.543333,11.6267692 397.59,12.1652308 397.704545,12.6778462 C391.92,12.3913846 386.801515,9.57630769 383.36303,5.288 C382.762727,6.34553846 382.410606,7.556 382.410606,8.85907692 C382.410606,11.3058462 383.651515,13.4747692 385.501212,14.7304615 C384.383333,14.7089231 383.286667,14.3793846 382.357576,13.8603077 C382.357576,13.8818462 382.357576,13.9098462 382.357576,13.9378462 C382.357576,17.3710769 384.769394,20.2227692 387.932121,20.8796923 C387.365758,21.0369231 386.748485,21.1123077 386.107879,21.1123077 C385.662424,21.1123077 385.212727,21.0864615 384.790606,20.9916923 C385.692121,23.7895385 388.250303,25.8464615 391.292121,25.9132308 C388.924848,27.7935385 385.919091,28.9264615 382.665152,28.9264615 C382.094545,28.9264615 381.547273,28.9006154 381,28.8295385 C384.082121,30.8476923 387.734848,32 391.673939,32 C404.477576,32 411.477576,21.2307692 411.477576,11.896 C411.477576,11.5836923 411.46697,11.2821538 411.452121,10.9827692 C412.83303,9.98769231 413.993333,8.74492308 414.939394,7.31476923 Z" id="twitter_icon"></path>
            </g>
        </g>
    </g>
</svg>